<svg width="92" height="116" viewBox="0 0 92 116" fill="none" xmlns="http://www.w3.org/2000/svg">
<g filter="url(#filter0_d_192_6517)">
<rect x="12.5" y="12.5" width="67" height="91" rx="5.5" fill="#EEF6FF" stroke="#A9BDD5"/>
<path d="M35.9238 34.166V30.2422C35.9238 29.7044 35.819 29.1986 35.6094 28.7246C35.4089 28.2415 35.1309 27.8223 34.7754 27.4668C34.4199 27.1113 34.0007 26.8333 33.5176 26.6328C33.0436 26.4232 32.5378 26.3184 32 26.3184C31.4622 26.3184 30.9518 26.4232 30.4688 26.6328C29.9948 26.8333 29.5801 27.1113 29.2246 27.4668C28.8691 27.8223 28.5866 28.2415 28.377 28.7246C28.1764 29.1986 28.0762 29.7044 28.0762 30.2422V34.166H35.9238ZM39.8477 42H35.9238V38.0762H28.0762V42H24.166V30.2422C24.166 29.1576 24.3711 28.1413 24.7812 27.1934C25.1914 26.2363 25.7474 25.4023 26.4492 24.6914C27.1602 23.9805 27.9896 23.4199 28.9375 23.0098C29.8945 22.5996 30.9154 22.3945 32 22.3945C33.0846 22.3945 34.1009 22.5996 35.0488 23.0098C36.0059 23.4199 36.8398 23.9805 37.5508 24.6914C38.2617 25.4023 38.8223 26.2363 39.2324 27.1934C39.6426 28.1413 39.8477 29.1576 39.8477 30.2422V42Z" fill="#E21452"/>
<path d="M32 48L41 57L32 66L23 57L32 48Z" fill="#E21452"/>
</g>
<defs>
<filter id="filter0_d_192_6517" x="0" y="0" width="92" height="116" filterUnits="userSpaceOnUse" color-interpolation-filters="sRGB">
<feFlood flood-opacity="0" result="BackgroundImageFix"/>
<feColorMatrix in="SourceAlpha" type="matrix" values="0 0 0 0 0 0 0 0 0 0 0 0 0 0 0 0 0 0 127 0" result="hardAlpha"/>
<feOffset/>
<feGaussianBlur stdDeviation="6"/>
<feComposite in2="hardAlpha" operator="out"/>
<feColorMatrix type="matrix" values="0 0 0 0 0 0 0 0 0 0 0 0 0 0 0 0 0 0 0.15 0"/>
<feBlend mode="normal" in2="BackgroundImageFix" result="effect1_dropShadow_192_6517"/>
<feBlend mode="normal" in="SourceGraphic" in2="effect1_dropShadow_192_6517" result="shape"/>
</filter>
</defs>
</svg>
