<svg width="190" height="52" viewBox="0 0 190 52" fill="none" xmlns="http://www.w3.org/2000/svg">
<path d="M26.96 51V42.36H28.406V51H26.96ZM30.2033 51V42.36H31.6673L35.6753 48.45V42.36H37.1393V51H35.6753L31.6673 44.91V51H30.2033ZM42.0146 51.18C41.3826 51.18 40.8126 51.07 40.3046 50.85C39.8006 50.63 39.3846 50.316 39.0566 49.908C38.7326 49.496 38.5266 49.008 38.4386 48.444L39.9386 48.216C40.0666 48.728 40.3286 49.124 40.7246 49.404C41.1246 49.684 41.5846 49.824 42.1046 49.824C42.4126 49.824 42.7026 49.776 42.9746 49.68C43.2466 49.584 43.4666 49.444 43.6346 49.26C43.8066 49.076 43.8926 48.85 43.8926 48.582C43.8926 48.462 43.8726 48.352 43.8326 48.252C43.7926 48.148 43.7326 48.056 43.6526 47.976C43.5766 47.896 43.4766 47.824 43.3526 47.76C43.2326 47.692 43.0926 47.634 42.9326 47.586L40.7006 46.926C40.5086 46.87 40.3006 46.796 40.0766 46.704C39.8566 46.608 39.6466 46.478 39.4466 46.314C39.2506 46.146 39.0886 45.934 38.9606 45.678C38.8366 45.418 38.7746 45.098 38.7746 44.718C38.7746 44.162 38.9146 43.696 39.1946 43.32C39.4786 42.94 39.8586 42.656 40.3346 42.468C40.8146 42.28 41.3466 42.188 41.9306 42.192C42.5226 42.196 43.0506 42.298 43.5146 42.498C43.9786 42.694 44.3666 42.98 44.6786 43.356C44.9906 43.732 45.2106 44.186 45.3386 44.718L43.7846 44.988C43.7206 44.684 43.5966 44.426 43.4126 44.214C43.2326 43.998 43.0106 43.834 42.7466 43.722C42.4866 43.61 42.2086 43.55 41.9126 43.542C41.6246 43.538 41.3566 43.582 41.1086 43.674C40.8646 43.762 40.6666 43.89 40.5146 44.058C40.3666 44.226 40.2926 44.422 40.2926 44.646C40.2926 44.858 40.3566 45.032 40.4846 45.168C40.6126 45.3 40.7706 45.406 40.9586 45.486C41.1506 45.562 41.3446 45.626 41.5406 45.678L43.0886 46.11C43.3006 46.166 43.5386 46.242 43.8026 46.338C44.0666 46.434 44.3206 46.568 44.5646 46.74C44.8086 46.912 45.0086 47.138 45.1646 47.418C45.3246 47.698 45.4046 48.054 45.4046 48.486C45.4046 48.934 45.3106 49.328 45.1226 49.668C44.9386 50.004 44.6886 50.284 44.3726 50.508C44.0566 50.732 43.6946 50.9 43.2866 51.012C42.8826 51.124 42.4586 51.18 42.0146 51.18ZM50.1833 51.18C49.4953 51.18 48.8893 51.04 48.3653 50.76C47.8453 50.48 47.4373 50.086 47.1413 49.578C46.8493 49.07 46.7033 48.474 46.7033 47.79V42.372L48.1673 42.36V47.754C48.1673 48.078 48.2213 48.368 48.3293 48.624C48.4413 48.88 48.5913 49.098 48.7793 49.278C48.9673 49.454 49.1833 49.588 49.4273 49.68C49.6713 49.772 49.9233 49.818 50.1833 49.818C50.4513 49.818 50.7053 49.772 50.9453 49.68C51.1893 49.584 51.4053 49.448 51.5933 49.272C51.7813 49.092 51.9293 48.874 52.0373 48.618C52.1453 48.362 52.1993 48.074 52.1993 47.754V42.36H53.6633V47.79C53.6633 48.474 53.5153 49.07 53.2193 49.578C52.9273 50.086 52.5193 50.48 51.9953 50.76C51.4753 51.04 50.8713 51.18 50.1833 51.18ZM55.34 51V42.36H58.91C58.994 42.36 59.102 42.364 59.234 42.372C59.366 42.376 59.488 42.388 59.6 42.408C60.1 42.484 60.512 42.65 60.836 42.906C61.164 43.162 61.406 43.486 61.562 43.878C61.722 44.266 61.802 44.698 61.802 45.174C61.802 45.878 61.624 46.484 61.268 46.992C60.912 47.496 60.366 47.808 59.63 47.928L59.012 47.982H56.786V51H55.34ZM60.302 51L58.598 47.484L60.068 47.16L61.94 51H60.302ZM56.786 46.632H58.85C58.93 46.632 59.02 46.628 59.12 46.62C59.22 46.612 59.312 46.596 59.396 46.572C59.636 46.512 59.824 46.406 59.96 46.254C60.1 46.102 60.198 45.93 60.254 45.738C60.314 45.546 60.344 45.358 60.344 45.174C60.344 44.99 60.314 44.802 60.254 44.61C60.198 44.414 60.1 44.24 59.96 44.088C59.824 43.936 59.636 43.83 59.396 43.77C59.312 43.746 59.22 43.732 59.12 43.728C59.02 43.72 58.93 43.716 58.85 43.716H56.786V46.632ZM62.6619 51L65.3859 42.36H67.5039L70.2279 51H68.7399L66.2679 43.248H66.5919L64.1499 51H62.6619ZM64.1799 49.128V47.778H68.7159V49.128H64.1799ZM71.3127 51V42.36H72.7767L76.7847 48.45V42.36H78.2487V51H76.7847L72.7767 44.91V51H71.3127ZM83.5799 51.18C82.7159 51.18 81.9759 50.992 81.3599 50.616C80.7439 50.236 80.2699 49.708 79.9379 49.032C79.6099 48.356 79.4459 47.572 79.4459 46.68C79.4459 45.788 79.6099 45.004 79.9379 44.328C80.2699 43.652 80.7439 43.126 81.3599 42.75C81.9759 42.37 82.7159 42.18 83.5799 42.18C84.5759 42.18 85.4059 42.43 86.0699 42.93C86.7339 43.426 87.1999 44.096 87.4679 44.94L86.0099 45.342C85.8419 44.778 85.5559 44.338 85.1519 44.022C84.7479 43.702 84.2239 43.542 83.5799 43.542C82.9999 43.542 82.5159 43.672 82.1279 43.932C81.7439 44.192 81.4539 44.558 81.2579 45.03C81.0659 45.498 80.9679 46.048 80.9639 46.68C80.9639 47.312 81.0599 47.864 81.2519 48.336C81.4479 48.804 81.7399 49.168 82.1279 49.428C82.5159 49.688 82.9999 49.818 83.5799 49.818C84.2239 49.818 84.7479 49.658 85.1519 49.338C85.5559 49.018 85.8419 48.578 86.0099 48.018L87.4679 48.42C87.1999 49.264 86.7339 49.936 86.0699 50.436C85.4059 50.932 84.5759 51.18 83.5799 51.18ZM88.7853 51V42.36H94.3653V43.716H90.2313V45.846H93.6453V47.202H90.2313V49.644H94.3653V51H88.7853ZM98.2072 51V42.36H101.777C101.861 42.36 101.969 42.364 102.101 42.372C102.233 42.376 102.355 42.388 102.467 42.408C102.967 42.484 103.379 42.65 103.703 42.906C104.031 43.162 104.273 43.486 104.429 43.878C104.589 44.266 104.669 44.698 104.669 45.174C104.669 45.646 104.589 46.078 104.429 46.47C104.269 46.858 104.025 47.18 103.697 47.436C103.373 47.692 102.963 47.858 102.467 47.934C102.355 47.95 102.231 47.962 102.095 47.97C101.963 47.978 101.857 47.982 101.777 47.982H99.6532V51H98.2072ZM99.6532 46.632H101.717C101.797 46.632 101.887 46.628 101.987 46.62C102.087 46.612 102.179 46.596 102.263 46.572C102.503 46.512 102.691 46.406 102.827 46.254C102.967 46.102 103.065 45.93 103.121 45.738C103.181 45.546 103.211 45.358 103.211 45.174C103.211 44.99 103.181 44.802 103.121 44.61C103.065 44.414 102.967 44.24 102.827 44.088C102.691 43.936 102.503 43.83 102.263 43.77C102.179 43.746 102.087 43.732 101.987 43.728C101.887 43.72 101.797 43.716 101.717 43.716H99.6532V46.632ZM104.674 51L107.398 42.36H109.516L112.24 51H110.752L108.28 43.248H108.604L106.162 51H104.674ZM106.192 49.128V47.778H110.728V49.128H106.192ZM114.71 51V47.46L111.77 42.36H113.456L115.442 45.804L117.422 42.36H119.108L116.174 47.46V51H114.71ZM122.78 51.18C122.148 51.18 121.578 51.07 121.07 50.85C120.566 50.63 120.15 50.316 119.822 49.908C119.498 49.496 119.292 49.008 119.204 48.444L120.704 48.216C120.832 48.728 121.094 49.124 121.49 49.404C121.89 49.684 122.35 49.824 122.87 49.824C123.178 49.824 123.468 49.776 123.74 49.68C124.012 49.584 124.232 49.444 124.4 49.26C124.572 49.076 124.658 48.85 124.658 48.582C124.658 48.462 124.638 48.352 124.598 48.252C124.558 48.148 124.498 48.056 124.418 47.976C124.342 47.896 124.242 47.824 124.118 47.76C123.998 47.692 123.858 47.634 123.698 47.586L121.466 46.926C121.274 46.87 121.066 46.796 120.842 46.704C120.622 46.608 120.412 46.478 120.212 46.314C120.016 46.146 119.854 45.934 119.726 45.678C119.602 45.418 119.54 45.098 119.54 44.718C119.54 44.162 119.68 43.696 119.96 43.32C120.244 42.94 120.624 42.656 121.1 42.468C121.58 42.28 122.112 42.188 122.696 42.192C123.288 42.196 123.816 42.298 124.28 42.498C124.744 42.694 125.132 42.98 125.444 43.356C125.756 43.732 125.976 44.186 126.104 44.718L124.55 44.988C124.486 44.684 124.362 44.426 124.178 44.214C123.998 43.998 123.776 43.834 123.512 43.722C123.252 43.61 122.974 43.55 122.678 43.542C122.39 43.538 122.122 43.582 121.874 43.674C121.63 43.762 121.432 43.89 121.28 44.058C121.132 44.226 121.058 44.422 121.058 44.646C121.058 44.858 121.122 45.032 121.25 45.168C121.378 45.3 121.536 45.406 121.724 45.486C121.916 45.562 122.11 45.626 122.306 45.678L123.854 46.11C124.066 46.166 124.304 46.242 124.568 46.338C124.832 46.434 125.086 46.568 125.33 46.74C125.574 46.912 125.774 47.138 125.93 47.418C126.09 47.698 126.17 48.054 126.17 48.486C126.17 48.934 126.076 49.328 125.888 49.668C125.704 50.004 125.454 50.284 125.138 50.508C124.822 50.732 124.46 50.9 124.052 51.012C123.648 51.124 123.224 51.18 122.78 51.18ZM129.631 50.988V49.728L133.327 46.434C133.615 46.178 133.815 45.936 133.927 45.708C134.039 45.48 134.095 45.26 134.095 45.048C134.095 44.76 134.033 44.504 133.909 44.28C133.785 44.052 133.613 43.872 133.393 43.74C133.177 43.608 132.927 43.542 132.643 43.542C132.343 43.542 132.077 43.612 131.845 43.752C131.617 43.888 131.439 44.07 131.311 44.298C131.183 44.526 131.123 44.772 131.131 45.036H129.643C129.643 44.46 129.771 43.958 130.027 43.53C130.287 43.102 130.643 42.77 131.095 42.534C131.551 42.298 132.077 42.18 132.673 42.18C133.225 42.18 133.721 42.304 134.161 42.552C134.601 42.796 134.947 43.136 135.199 43.572C135.451 44.004 135.577 44.502 135.577 45.066C135.577 45.478 135.521 45.824 135.409 46.104C135.297 46.384 135.129 46.642 134.905 46.878C134.685 47.114 134.411 47.376 134.083 47.664L131.461 49.986L131.329 49.626H135.577V50.988H129.631ZM141.498 51V43.716H138.702V42.36H145.74V43.716H142.944V51H141.498ZM150.353 51.18C149.489 51.18 148.749 50.992 148.133 50.616C147.517 50.236 147.043 49.708 146.711 49.032C146.383 48.356 146.219 47.572 146.219 46.68C146.219 45.788 146.383 45.004 146.711 44.328C147.043 43.652 147.517 43.126 148.133 42.75C148.749 42.37 149.489 42.18 150.353 42.18C151.217 42.18 151.957 42.37 152.573 42.75C153.193 43.126 153.667 43.652 153.995 44.328C154.327 45.004 154.493 45.788 154.493 46.68C154.493 47.572 154.327 48.356 153.995 49.032C153.667 49.708 153.193 50.236 152.573 50.616C151.957 50.992 151.217 51.18 150.353 51.18ZM150.353 49.818C150.933 49.822 151.415 49.694 151.799 49.434C152.187 49.174 152.477 48.808 152.669 48.336C152.865 47.864 152.963 47.312 152.963 46.68C152.963 46.048 152.865 45.5 152.669 45.036C152.477 44.568 152.187 44.204 151.799 43.944C151.415 43.684 150.933 43.55 150.353 43.542C149.773 43.538 149.291 43.666 148.907 43.926C148.523 44.186 148.233 44.552 148.037 45.024C147.845 45.496 147.749 46.048 147.749 46.68C147.749 47.312 147.845 47.862 148.037 48.33C148.229 48.794 148.517 49.156 148.901 49.416C149.289 49.676 149.773 49.81 150.353 49.818ZM159.59 51V43.938L157.97 44.928V43.332L159.59 42.36H161.066V51H159.59Z" fill="#6F85A0"/>
<path d="M0 0H190L180.052 15L190 30H0L9.94764 15L0 0Z" fill="#2C3D53"/>
<path d="M26.84 20V11.36H30.266C30.85 11.36 31.328 11.478 31.7 11.714C32.076 11.946 32.354 12.244 32.534 12.608C32.718 12.972 32.81 13.348 32.81 13.736C32.81 14.212 32.696 14.616 32.468 14.948C32.244 15.28 31.938 15.504 31.55 15.62V15.32C32.094 15.444 32.506 15.702 32.786 16.094C33.07 16.486 33.212 16.932 33.212 17.432C33.212 17.944 33.114 18.392 32.918 18.776C32.722 19.16 32.43 19.46 32.042 19.676C31.658 19.892 31.182 20 30.614 20H26.84ZM28.304 18.638H30.434C30.686 18.638 30.912 18.588 31.112 18.488C31.312 18.384 31.468 18.24 31.58 18.056C31.696 17.868 31.754 17.646 31.754 17.39C31.754 17.158 31.704 16.95 31.604 16.766C31.504 16.582 31.358 16.436 31.166 16.328C30.974 16.216 30.744 16.16 30.476 16.16H28.304V18.638ZM28.304 14.81H30.248C30.456 14.81 30.642 14.77 30.806 14.69C30.97 14.61 31.1 14.492 31.196 14.336C31.292 14.18 31.34 13.988 31.34 13.76C31.34 13.46 31.244 13.21 31.052 13.01C30.86 12.81 30.592 12.71 30.248 12.71H28.304V14.81ZM34.5303 20V11.36H35.9763V18.644H39.7923V20H34.5303ZM40.2088 20L42.9328 11.36H45.0508L47.7748 20H46.2868L43.8148 12.248H44.1388L41.6968 20H40.2088ZM41.7268 18.128V16.778H46.2628V18.128H41.7268ZM52.2792 20.18C51.4152 20.18 50.6752 19.992 50.0592 19.616C49.4432 19.236 48.9692 18.708 48.6372 18.032C48.3092 17.356 48.1452 16.572 48.1452 15.68C48.1452 14.788 48.3092 14.004 48.6372 13.328C48.9692 12.652 49.4432 12.126 50.0592 11.75C50.6752 11.37 51.4152 11.18 52.2792 11.18C53.2752 11.18 54.1052 11.43 54.7692 11.93C55.4332 12.426 55.8992 13.096 56.1672 13.94L54.7092 14.342C54.5412 13.778 54.2552 13.338 53.8512 13.022C53.4472 12.702 52.9232 12.542 52.2792 12.542C51.6992 12.542 51.2152 12.672 50.8272 12.932C50.4432 13.192 50.1532 13.558 49.9572 14.03C49.7652 14.498 49.6672 15.048 49.6632 15.68C49.6632 16.312 49.7592 16.864 49.9512 17.336C50.1472 17.804 50.4392 18.168 50.8272 18.428C51.2152 18.688 51.6992 18.818 52.2792 18.818C52.9232 18.818 53.4472 18.658 53.8512 18.338C54.2552 18.018 54.5412 17.578 54.7092 17.018L56.1672 17.42C55.8992 18.264 55.4332 18.936 54.7692 19.436C54.1052 19.932 53.2752 20.18 52.2792 20.18ZM57.4845 20V11.36H58.9305V15.368L62.3805 11.36H64.1565L60.4425 15.596L64.4085 20H62.5725L58.9305 15.968V20H57.4845ZM66.9821 20.18C66.3221 20.18 65.7721 20.008 65.3321 19.664C64.8961 19.32 64.5901 18.856 64.4141 18.272L65.8421 17.93C65.8861 18.174 66.0141 18.384 66.2261 18.56C66.4381 18.736 66.6721 18.824 66.9281 18.824C67.0961 18.824 67.2741 18.78 67.4621 18.692C67.6501 18.6 67.7901 18.454 67.8821 18.254C67.9381 18.126 67.9701 17.974 67.9781 17.798C67.9901 17.618 67.9961 17.41 67.9961 17.174V11.36H69.4601V17.174C69.4601 17.442 69.4581 17.678 69.4541 17.882C69.4541 18.082 69.4341 18.272 69.3941 18.452C69.3581 18.628 69.2841 18.81 69.1721 18.998C68.9361 19.406 68.6281 19.706 68.2481 19.898C67.8681 20.086 67.4461 20.18 66.9821 20.18ZM70.4314 20L73.1554 11.36H75.2734L77.9974 20H76.5094L74.0374 12.248H74.3614L71.9194 20H70.4314ZM71.9494 18.128V16.778H76.4854V18.128H71.9494ZM82.5018 20.18C81.6378 20.18 80.8978 19.992 80.2818 19.616C79.6658 19.236 79.1918 18.708 78.8598 18.032C78.5318 17.356 78.3678 16.572 78.3678 15.68C78.3678 14.788 78.5318 14.004 78.8598 13.328C79.1918 12.652 79.6658 12.126 80.2818 11.75C80.8978 11.37 81.6378 11.18 82.5018 11.18C83.4978 11.18 84.3278 11.43 84.9918 11.93C85.6558 12.426 86.1218 13.096 86.3898 13.94L84.9318 14.342C84.7638 13.778 84.4778 13.338 84.0738 13.022C83.6698 12.702 83.1458 12.542 82.5018 12.542C81.9218 12.542 81.4378 12.672 81.0498 12.932C80.6658 13.192 80.3758 13.558 80.1798 14.03C79.9878 14.498 79.8898 15.048 79.8858 15.68C79.8858 16.312 79.9818 16.864 80.1738 17.336C80.3698 17.804 80.6618 18.168 81.0498 18.428C81.4378 18.688 81.9218 18.818 82.5018 18.818C83.1458 18.818 83.6698 18.658 84.0738 18.338C84.4778 18.018 84.7638 17.578 84.9318 17.018L86.3898 17.42C86.1218 18.264 85.6558 18.936 84.9918 19.436C84.3278 19.932 83.4978 20.18 82.5018 20.18ZM87.7072 20V11.36H89.1532V15.368L92.6032 11.36H94.3792L90.6652 15.596L94.6312 20H92.7952L89.1532 15.968V20H87.7072ZM97.6447 20V11.36H101.215C101.299 11.36 101.407 11.364 101.539 11.372C101.671 11.376 101.793 11.388 101.905 11.408C102.405 11.484 102.817 11.65 103.141 11.906C103.469 12.162 103.711 12.486 103.867 12.878C104.027 13.266 104.107 13.698 104.107 14.174C104.107 14.646 104.027 15.078 103.867 15.47C103.707 15.858 103.463 16.18 103.135 16.436C102.811 16.692 102.401 16.858 101.905 16.934C101.793 16.95 101.669 16.962 101.533 16.97C101.401 16.978 101.295 16.982 101.215 16.982H99.0907V20H97.6447ZM99.0907 15.632H101.155C101.235 15.632 101.325 15.628 101.425 15.62C101.525 15.612 101.617 15.596 101.701 15.572C101.941 15.512 102.129 15.406 102.265 15.254C102.405 15.102 102.503 14.93 102.559 14.738C102.619 14.546 102.649 14.358 102.649 14.174C102.649 13.99 102.619 13.802 102.559 13.61C102.503 13.414 102.405 13.24 102.265 13.088C102.129 12.936 101.941 12.83 101.701 12.77C101.617 12.746 101.525 12.732 101.425 12.728C101.325 12.72 101.235 12.716 101.155 12.716H99.0907V15.632ZM104.111 20L106.835 11.36H108.953L111.677 20H110.189L107.717 12.248H108.041L105.599 20H104.111ZM105.629 18.128V16.778H110.165V18.128H105.629ZM114.147 20V16.46L111.207 11.36H112.893L114.879 14.804L116.859 11.36H118.545L115.611 16.46V20H114.147ZM122.218 20.18C121.586 20.18 121.016 20.07 120.508 19.85C120.004 19.63 119.588 19.316 119.26 18.908C118.936 18.496 118.73 18.008 118.642 17.444L120.142 17.216C120.27 17.728 120.532 18.124 120.928 18.404C121.328 18.684 121.788 18.824 122.308 18.824C122.616 18.824 122.906 18.776 123.178 18.68C123.45 18.584 123.67 18.444 123.838 18.26C124.01 18.076 124.096 17.85 124.096 17.582C124.096 17.462 124.076 17.352 124.036 17.252C123.996 17.148 123.936 17.056 123.856 16.976C123.78 16.896 123.68 16.824 123.556 16.76C123.436 16.692 123.296 16.634 123.136 16.586L120.904 15.926C120.712 15.87 120.504 15.796 120.28 15.704C120.06 15.608 119.85 15.478 119.65 15.314C119.454 15.146 119.292 14.934 119.164 14.678C119.04 14.418 118.978 14.098 118.978 13.718C118.978 13.162 119.118 12.696 119.398 12.32C119.682 11.94 120.062 11.656 120.538 11.468C121.018 11.28 121.55 11.188 122.134 11.192C122.726 11.196 123.254 11.298 123.718 11.498C124.182 11.694 124.57 11.98 124.882 12.356C125.194 12.732 125.414 13.186 125.542 13.718L123.988 13.988C123.924 13.684 123.8 13.426 123.616 13.214C123.436 12.998 123.214 12.834 122.95 12.722C122.69 12.61 122.412 12.55 122.116 12.542C121.828 12.538 121.56 12.582 121.312 12.674C121.068 12.762 120.87 12.89 120.718 13.058C120.57 13.226 120.496 13.422 120.496 13.646C120.496 13.858 120.56 14.032 120.688 14.168C120.816 14.3 120.974 14.406 121.162 14.486C121.354 14.562 121.548 14.626 121.744 14.678L123.292 15.11C123.504 15.166 123.742 15.242 124.006 15.338C124.27 15.434 124.524 15.568 124.768 15.74C125.012 15.912 125.212 16.138 125.368 16.418C125.528 16.698 125.608 17.054 125.608 17.486C125.608 17.934 125.514 18.328 125.326 18.668C125.142 19.004 124.892 19.284 124.576 19.508C124.26 19.732 123.898 19.9 123.49 20.012C123.086 20.124 122.662 20.18 122.218 20.18ZM131.781 20.162C131.349 20.162 130.941 20.078 130.557 19.91C130.173 19.742 129.839 19.504 129.555 19.196C129.275 18.888 129.073 18.524 128.949 18.104L130.347 17.726C130.447 18.07 130.629 18.336 130.893 18.524C131.161 18.708 131.455 18.798 131.775 18.794C132.059 18.794 132.313 18.728 132.537 18.596C132.761 18.464 132.937 18.286 133.065 18.062C133.193 17.834 133.257 17.58 133.257 17.3C133.257 16.872 133.119 16.514 132.843 16.226C132.567 15.938 132.211 15.794 131.775 15.794C131.643 15.794 131.513 15.812 131.385 15.848C131.261 15.884 131.141 15.934 131.025 15.998L130.365 14.858L133.269 12.374L133.395 12.722H129.285V11.36H134.583V12.728L132.249 14.972L132.237 14.546C132.761 14.582 133.207 14.728 133.575 14.984C133.947 15.24 134.231 15.57 134.427 15.974C134.627 16.378 134.727 16.82 134.727 17.3C134.727 17.844 134.593 18.332 134.325 18.764C134.061 19.196 133.705 19.538 133.257 19.79C132.813 20.038 132.321 20.162 131.781 20.162ZM140.76 20V12.716H137.964V11.36H145.002V12.716H142.206V20H140.76ZM149.615 20.18C148.751 20.18 148.011 19.992 147.395 19.616C146.779 19.236 146.305 18.708 145.973 18.032C145.645 17.356 145.481 16.572 145.481 15.68C145.481 14.788 145.645 14.004 145.973 13.328C146.305 12.652 146.779 12.126 147.395 11.75C148.011 11.37 148.751 11.18 149.615 11.18C150.479 11.18 151.219 11.37 151.835 11.75C152.455 12.126 152.929 12.652 153.257 13.328C153.589 14.004 153.755 14.788 153.755 15.68C153.755 16.572 153.589 17.356 153.257 18.032C152.929 18.708 152.455 19.236 151.835 19.616C151.219 19.992 150.479 20.18 149.615 20.18ZM149.615 18.818C150.195 18.822 150.677 18.694 151.061 18.434C151.449 18.174 151.739 17.808 151.931 17.336C152.127 16.864 152.225 16.312 152.225 15.68C152.225 15.048 152.127 14.5 151.931 14.036C151.739 13.568 151.449 13.204 151.061 12.944C150.677 12.684 150.195 12.55 149.615 12.542C149.035 12.538 148.553 12.666 148.169 12.926C147.785 13.186 147.495 13.552 147.299 14.024C147.107 14.496 147.011 15.048 147.011 15.68C147.011 16.312 147.107 16.862 147.299 17.33C147.491 17.794 147.779 18.156 148.163 18.416C148.551 18.676 149.035 18.81 149.615 18.818ZM157.112 19.988V18.728L160.808 15.434C161.096 15.178 161.296 14.936 161.408 14.708C161.52 14.48 161.576 14.26 161.576 14.048C161.576 13.76 161.514 13.504 161.39 13.28C161.266 13.052 161.094 12.872 160.874 12.74C160.658 12.608 160.408 12.542 160.124 12.542C159.824 12.542 159.558 12.612 159.326 12.752C159.098 12.888 158.92 13.07 158.792 13.298C158.664 13.526 158.604 13.772 158.612 14.036H157.124C157.124 13.46 157.252 12.958 157.508 12.53C157.768 12.102 158.124 11.77 158.576 11.534C159.032 11.298 159.558 11.18 160.154 11.18C160.706 11.18 161.202 11.304 161.642 11.552C162.082 11.796 162.428 12.136 162.68 12.572C162.932 13.004 163.058 13.502 163.058 14.066C163.058 14.478 163.002 14.824 162.89 15.104C162.778 15.384 162.61 15.642 162.386 15.878C162.166 16.114 161.892 16.376 161.564 16.664L158.942 18.986L158.81 18.626H163.058V19.988H157.112Z" fill="#6F85A0"/>
</svg>
