<svg width="185" height="220" viewBox="0 0 185 220" fill="none" xmlns="http://www.w3.org/2000/svg">
<g clip-path="url(#clip0_192_89)">
<rect width="185" height="220" rx="6" fill="url(#paint0_linear_192_89)"/>
<circle cx="97" cy="97" r="97" transform="matrix(1 0 0 -1 -4 97)" fill="#FF4830"/>
<path d="M57 196.696C57 197.44 56.764 198.012 56.292 198.412C55.828 198.804 55.22 199 54.468 199H51.912C51.872 199 51.836 198.988 51.804 198.964C51.78 198.932 51.768 198.896 51.768 198.856V190.744C51.768 190.704 51.78 190.672 51.804 190.648C51.836 190.616 51.872 190.6 51.912 190.6H54.324C55.132 190.6 55.76 190.792 56.208 191.176C56.664 191.552 56.892 192.116 56.892 192.868C56.892 193.692 56.568 194.276 55.92 194.62C55.88 194.644 55.876 194.668 55.908 194.692C56.636 195.084 57 195.752 57 196.696ZM53.22 191.8C53.18 191.8 53.16 191.82 53.16 191.86V194.092C53.16 194.132 53.18 194.152 53.22 194.152H54.336C54.712 194.152 55.004 194.052 55.212 193.852C55.428 193.644 55.536 193.356 55.536 192.988C55.536 192.612 55.428 192.32 55.212 192.112C55.004 191.904 54.712 191.8 54.336 191.8H53.22ZM54.42 197.788C54.788 197.788 55.076 197.676 55.284 197.452C55.5 197.228 55.608 196.916 55.608 196.516C55.608 196.116 55.5 195.804 55.284 195.58C55.068 195.348 54.776 195.232 54.408 195.232H53.22C53.18 195.232 53.16 195.252 53.16 195.292V197.728C53.16 197.768 53.18 197.788 53.22 197.788H54.42ZM59.7566 198.988C59.7166 198.988 59.6806 198.976 59.6486 198.952C59.6246 198.92 59.6126 198.884 59.6126 198.844V195.604L59.6006 195.532L57.5246 190.768C57.5166 190.752 57.5126 190.728 57.5126 190.696C57.5126 190.632 57.5526 190.6 57.6326 190.6H58.8086C58.8966 190.6 58.9526 190.636 58.9766 190.708L60.2726 193.948C60.2966 194.004 60.3206 194.004 60.3446 193.948L61.6286 190.708C61.6526 190.636 61.7086 190.6 61.7966 190.6H62.9846C63.0406 190.6 63.0766 190.616 63.0926 190.648C63.1086 190.68 63.1086 190.72 63.0926 190.768L61.0046 195.532L60.9926 195.604V198.844C60.9926 198.884 60.9766 198.92 60.9446 198.952C60.9206 198.976 60.8886 198.988 60.8486 198.988H59.7566ZM69.1565 190.6C69.1965 190.6 69.2285 190.616 69.2525 190.648C69.2845 190.672 69.3005 190.704 69.3005 190.744V191.668C69.3005 191.708 69.2845 191.744 69.2525 191.776C69.2285 191.8 69.1965 191.812 69.1565 191.812H67.2965C67.2565 191.812 67.2365 191.832 67.2365 191.872V198.856C67.2365 198.896 67.2205 198.932 67.1885 198.964C67.1645 198.988 67.1325 199 67.0925 199H65.9885C65.9485 199 65.9125 198.988 65.8805 198.964C65.8565 198.932 65.8445 198.896 65.8445 198.856V191.872C65.8445 191.832 65.8245 191.812 65.7845 191.812H63.9965C63.9565 191.812 63.9205 191.8 63.8885 191.776C63.8645 191.744 63.8525 191.708 63.8525 191.668V190.744C63.8525 190.704 63.8645 190.672 63.8885 190.648C63.9205 190.616 63.9565 190.6 63.9965 190.6H69.1565ZM75.368 191.656C75.368 191.696 75.352 191.732 75.32 191.764C75.296 191.788 75.264 191.8 75.224 191.8H71.888C71.848 191.8 71.828 191.82 71.828 191.86V194.116C71.828 194.156 71.848 194.176 71.888 194.176H74.024C74.064 194.176 74.096 194.192 74.12 194.224C74.152 194.248 74.168 194.28 74.168 194.32V195.232C74.168 195.272 74.152 195.308 74.12 195.34C74.096 195.364 74.064 195.376 74.024 195.376H71.888C71.848 195.376 71.828 195.396 71.828 195.436V197.74C71.828 197.78 71.848 197.8 71.888 197.8H75.224C75.264 197.8 75.296 197.816 75.32 197.848C75.352 197.872 75.368 197.904 75.368 197.944V198.856C75.368 198.896 75.352 198.932 75.32 198.964C75.296 198.988 75.264 199 75.224 199H70.58C70.54 199 70.504 198.988 70.472 198.964C70.448 198.932 70.436 198.896 70.436 198.856V190.744C70.436 190.704 70.448 190.672 70.472 190.648C70.504 190.616 70.54 190.6 70.58 190.6H75.224C75.264 190.6 75.296 190.616 75.32 190.648C75.352 190.672 75.368 190.704 75.368 190.744V191.656ZM81.8203 196.696C81.8203 197.44 81.5843 198.012 81.1123 198.412C80.6483 198.804 80.0403 199 79.2883 199H76.7323C76.6923 199 76.6563 198.988 76.6243 198.964C76.6003 198.932 76.5883 198.896 76.5883 198.856V190.744C76.5883 190.704 76.6003 190.672 76.6243 190.648C76.6563 190.616 76.6923 190.6 76.7323 190.6H79.1443C79.9523 190.6 80.5803 190.792 81.0283 191.176C81.4843 191.552 81.7123 192.116 81.7123 192.868C81.7123 193.692 81.3883 194.276 80.7403 194.62C80.7003 194.644 80.6963 194.668 80.7283 194.692C81.4563 195.084 81.8203 195.752 81.8203 196.696ZM78.0403 191.8C78.0003 191.8 77.9803 191.82 77.9803 191.86V194.092C77.9803 194.132 78.0003 194.152 78.0403 194.152H79.1563C79.5323 194.152 79.8243 194.052 80.0323 193.852C80.2483 193.644 80.3563 193.356 80.3563 192.988C80.3563 192.612 80.2483 192.32 80.0323 192.112C79.8243 191.904 79.5323 191.8 79.1563 191.8H78.0403ZM79.2403 197.788C79.6083 197.788 79.8963 197.676 80.1043 197.452C80.3203 197.228 80.4283 196.916 80.4283 196.516C80.4283 196.116 80.3203 195.804 80.1043 195.58C79.8883 195.348 79.5963 195.232 79.2283 195.232H78.0403C78.0003 195.232 77.9803 195.252 77.9803 195.292V197.728C77.9803 197.768 78.0003 197.788 78.0403 197.788H79.2403ZM88.0008 191.656C88.0008 191.696 87.9848 191.732 87.9528 191.764C87.9288 191.788 87.8968 191.8 87.8568 191.8H84.5208C84.4808 191.8 84.4608 191.82 84.4608 191.86V194.116C84.4608 194.156 84.4808 194.176 84.5208 194.176H86.6568C86.6968 194.176 86.7288 194.192 86.7528 194.224C86.7848 194.248 86.8008 194.28 86.8008 194.32V195.232C86.8008 195.272 86.7848 195.308 86.7528 195.34C86.7288 195.364 86.6968 195.376 86.6568 195.376H84.5208C84.4808 195.376 84.4608 195.396 84.4608 195.436V197.74C84.4608 197.78 84.4808 197.8 84.5208 197.8H87.8568C87.8968 197.8 87.9288 197.816 87.9528 197.848C87.9848 197.872 88.0008 197.904 88.0008 197.944V198.856C88.0008 198.896 87.9848 198.932 87.9528 198.964C87.9288 198.988 87.8968 199 87.8568 199H83.2128C83.1728 199 83.1368 198.988 83.1048 198.964C83.0808 198.932 83.0688 198.896 83.0688 198.856V190.744C83.0688 190.704 83.0808 190.672 83.1048 190.648C83.1368 190.616 83.1728 190.6 83.2128 190.6H87.8568C87.8968 190.6 87.9288 190.616 87.9528 190.648C87.9848 190.672 88.0008 190.704 88.0008 190.744V191.656ZM94.1291 190.6C94.1691 190.6 94.2011 190.616 94.2251 190.648C94.2571 190.672 94.2731 190.704 94.2731 190.744V191.668C94.2731 191.708 94.2571 191.744 94.2251 191.776C94.2011 191.8 94.1691 191.812 94.1291 191.812H92.2691C92.2291 191.812 92.2091 191.832 92.2091 191.872V198.856C92.2091 198.896 92.1931 198.932 92.1611 198.964C92.1371 198.988 92.1051 199 92.0651 199H90.9611C90.9211 199 90.8851 198.988 90.8531 198.964C90.8291 198.932 90.8171 198.896 90.8171 198.856V191.872C90.8171 191.832 90.7971 191.812 90.7571 191.812H88.9691C88.9291 191.812 88.8931 191.8 88.8611 191.776C88.8371 191.744 88.8251 191.708 88.8251 191.668V190.744C88.8251 190.704 88.8371 190.672 88.8611 190.648C88.8931 190.616 88.9291 190.6 88.9691 190.6H94.1291ZM100.295 199.108C99.767 199.108 99.299 199 98.891 198.784C98.491 198.568 98.179 198.264 97.955 197.872C97.739 197.472 97.631 197.012 97.631 196.492V193.108C97.631 192.596 97.739 192.144 97.955 191.752C98.179 191.352 98.491 191.044 98.891 190.828C99.299 190.612 99.767 190.504 100.295 190.504C100.831 190.504 101.299 190.612 101.699 190.828C102.107 191.044 102.423 191.352 102.647 191.752C102.871 192.144 102.983 192.596 102.983 193.108V196.492C102.983 197.012 102.871 197.472 102.647 197.872C102.423 198.264 102.107 198.568 101.699 198.784C101.299 199 100.831 199.108 100.295 199.108ZM100.295 197.908C100.687 197.908 100.999 197.784 101.231 197.536C101.471 197.28 101.591 196.952 101.591 196.552V193.072C101.591 192.664 101.471 192.336 101.231 192.088C100.999 191.832 100.687 191.704 100.295 191.704C99.911 191.704 99.603 191.832 99.371 192.088C99.139 192.336 99.023 192.664 99.023 193.072V196.552C99.023 196.952 99.139 197.28 99.371 197.536C99.603 197.784 99.911 197.908 100.295 197.908ZM108.346 199C108.258 199 108.202 198.96 108.178 198.88L106.882 195.436C106.866 195.404 106.846 195.388 106.822 195.388H105.79C105.75 195.388 105.73 195.408 105.73 195.448V198.856C105.73 198.896 105.714 198.932 105.682 198.964C105.658 198.988 105.626 199 105.586 199H104.482C104.442 199 104.406 198.988 104.374 198.964C104.35 198.932 104.338 198.896 104.338 198.856V190.744C104.338 190.704 104.35 190.672 104.374 190.648C104.406 190.616 104.442 190.6 104.482 190.6H107.254C107.71 190.6 108.114 190.704 108.466 190.912C108.818 191.112 109.09 191.4 109.282 191.776C109.474 192.144 109.57 192.568 109.57 193.048C109.57 193.568 109.45 194.02 109.21 194.404C108.97 194.788 108.642 195.06 108.226 195.22C108.186 195.236 108.174 195.264 108.19 195.304L109.606 198.832C109.614 198.848 109.618 198.872 109.618 198.904C109.618 198.968 109.578 199 109.498 199H108.346ZM105.79 191.8C105.75 191.8 105.73 191.82 105.73 191.86V194.248C105.73 194.288 105.75 194.308 105.79 194.308H107.05C107.386 194.308 107.658 194.196 107.866 193.972C108.074 193.74 108.178 193.436 108.178 193.06C108.178 192.676 108.074 192.372 107.866 192.148C107.658 191.916 107.386 191.8 107.05 191.8H105.79ZM110.928 199C110.888 199 110.852 198.988 110.82 198.964C110.796 198.932 110.784 198.896 110.784 198.856V190.744C110.784 190.704 110.796 190.672 110.82 190.648C110.852 190.616 110.888 190.6 110.928 190.6H112.032C112.072 190.6 112.104 190.616 112.128 190.648C112.16 190.672 112.176 190.704 112.176 190.744V198.856C112.176 198.896 112.16 198.932 112.128 198.964C112.104 198.988 112.072 199 112.032 199H110.928ZM116.15 199.096C115.63 199.096 115.17 198.992 114.77 198.784C114.378 198.576 114.07 198.284 113.846 197.908C113.63 197.524 113.522 197.084 113.522 196.588V193.012C113.522 192.516 113.63 192.08 113.846 191.704C114.07 191.32 114.378 191.024 114.77 190.816C115.17 190.608 115.63 190.504 116.15 190.504C116.67 190.504 117.13 190.608 117.53 190.816C117.93 191.016 118.238 191.3 118.454 191.668C118.678 192.036 118.79 192.456 118.79 192.928V193.204C118.79 193.244 118.774 193.28 118.742 193.312C118.718 193.336 118.686 193.348 118.646 193.348H117.542C117.502 193.348 117.466 193.336 117.434 193.312C117.41 193.28 117.398 193.244 117.398 193.204V192.928C117.398 192.568 117.282 192.276 117.05 192.052C116.826 191.82 116.526 191.704 116.15 191.704C115.782 191.704 115.482 191.824 115.25 192.064C115.026 192.296 114.914 192.604 114.914 192.988V196.612C114.914 196.996 115.03 197.308 115.262 197.548C115.502 197.78 115.81 197.896 116.186 197.896C116.554 197.896 116.846 197.792 117.062 197.584C117.286 197.368 117.398 197.076 117.398 196.708V195.76C117.398 195.72 117.378 195.7 117.338 195.7H116.246C116.206 195.7 116.17 195.688 116.138 195.664C116.114 195.632 116.102 195.596 116.102 195.556V194.68C116.102 194.64 116.114 194.608 116.138 194.584C116.17 194.552 116.206 194.536 116.246 194.536H118.646C118.686 194.536 118.718 194.552 118.742 194.584C118.774 194.608 118.79 194.64 118.79 194.68V196.552C118.79 197.344 118.55 197.968 118.07 198.424C117.59 198.872 116.95 199.096 116.15 199.096ZM120.291 199C120.251 199 120.215 198.988 120.183 198.964C120.159 198.932 120.147 198.896 120.147 198.856V190.744C120.147 190.704 120.159 190.672 120.183 190.648C120.215 190.616 120.251 190.6 120.291 190.6H121.395C121.435 190.6 121.467 190.616 121.491 190.648C121.523 190.672 121.539 190.704 121.539 190.744V198.856C121.539 198.896 121.523 198.932 121.491 198.964C121.467 198.988 121.435 199 121.395 199H120.291ZM127.205 190.744C127.205 190.704 127.217 190.672 127.241 190.648C127.273 190.616 127.309 190.6 127.349 190.6H128.453C128.493 190.6 128.525 190.616 128.549 190.648C128.581 190.672 128.597 190.704 128.597 190.744V198.856C128.597 198.896 128.581 198.932 128.549 198.964C128.525 198.988 128.493 199 128.453 199H127.289C127.217 199 127.161 198.964 127.121 198.892L124.505 193.516C124.489 193.492 124.473 193.484 124.457 193.492C124.441 193.492 124.433 193.508 124.433 193.54L124.445 198.856C124.445 198.896 124.429 198.932 124.397 198.964C124.373 198.988 124.341 199 124.301 199H123.197C123.157 199 123.121 198.988 123.089 198.964C123.065 198.932 123.053 198.896 123.053 198.856V190.744C123.053 190.704 123.065 190.672 123.089 190.648C123.121 190.616 123.157 190.6 123.197 190.6H124.349C124.429 190.6 124.485 190.636 124.517 190.708L127.145 196.108C127.161 196.132 127.177 196.144 127.193 196.144C127.209 196.136 127.217 196.116 127.217 196.084L127.205 190.744ZM134.428 199C134.34 199 134.284 198.96 134.26 198.88L133.948 197.596C133.94 197.564 133.92 197.548 133.888 197.548H131.416C131.384 197.548 131.364 197.564 131.356 197.596L131.056 198.88C131.032 198.96 130.976 199 130.888 199H129.748C129.644 199 129.604 198.948 129.628 198.844L131.812 190.72C131.836 190.64 131.892 190.6 131.98 190.6H133.348C133.436 190.6 133.492 190.64 133.516 190.72L135.7 198.844L135.712 198.892C135.712 198.964 135.668 199 135.58 199H134.428ZM131.644 196.384C131.636 196.408 131.64 196.428 131.656 196.444C131.672 196.452 131.688 196.456 131.704 196.456H133.6C133.616 196.456 133.632 196.452 133.648 196.444C133.664 196.428 133.668 196.408 133.66 196.384L132.676 192.448C132.668 192.424 132.656 192.412 132.64 192.412C132.624 192.412 132.612 192.424 132.604 192.448L131.644 196.384ZM136.885 199C136.845 199 136.809 198.988 136.777 198.964C136.753 198.932 136.741 198.896 136.741 198.856V190.744C136.741 190.704 136.753 190.672 136.777 190.648C136.809 190.616 136.845 190.6 136.885 190.6H137.989C138.029 190.6 138.061 190.616 138.085 190.648C138.117 190.672 138.133 190.704 138.133 190.744V197.74C138.133 197.78 138.153 197.8 138.193 197.8H141.493C141.533 197.8 141.565 197.816 141.589 197.848C141.621 197.872 141.637 197.904 141.637 197.944V198.856C141.637 198.896 141.621 198.932 141.589 198.964C141.565 198.988 141.533 199 141.493 199H136.885ZM144.975 199.096C144.447 199.096 143.983 199.004 143.583 198.82C143.183 198.628 142.871 198.36 142.647 198.016C142.431 197.664 142.323 197.26 142.323 196.804V196.492C142.323 196.452 142.335 196.42 142.359 196.396C142.391 196.364 142.427 196.348 142.467 196.348H143.547C143.587 196.348 143.619 196.364 143.643 196.396C143.675 196.42 143.691 196.452 143.691 196.492V196.732C143.691 197.076 143.811 197.356 144.051 197.572C144.291 197.788 144.615 197.896 145.023 197.896C145.399 197.896 145.687 197.8 145.887 197.608C146.087 197.416 146.187 197.164 146.187 196.852C146.187 196.636 146.131 196.452 146.019 196.3C145.907 196.14 145.747 195.996 145.539 195.868C145.339 195.732 145.027 195.552 144.603 195.328C144.115 195.072 143.723 194.844 143.427 194.644C143.131 194.444 142.879 194.188 142.671 193.876C142.471 193.564 142.371 193.184 142.371 192.736C142.371 192.048 142.599 191.504 143.055 191.104C143.519 190.704 144.127 190.504 144.879 190.504C145.399 190.504 145.859 190.604 146.259 190.804C146.659 190.996 146.967 191.272 147.183 191.632C147.399 191.992 147.507 192.404 147.507 192.868V193.12C147.507 193.16 147.491 193.196 147.459 193.228C147.435 193.252 147.403 193.264 147.363 193.264H146.283C146.243 193.264 146.207 193.252 146.175 193.228C146.151 193.196 146.139 193.16 146.139 193.12V192.892C146.139 192.548 146.023 192.264 145.791 192.04C145.559 191.816 145.247 191.704 144.855 191.704C144.511 191.704 144.239 191.796 144.039 191.98C143.839 192.156 143.739 192.404 143.739 192.724C143.739 192.94 143.791 193.124 143.895 193.276C143.999 193.428 144.155 193.572 144.363 193.708C144.579 193.844 144.903 194.02 145.335 194.236C145.911 194.564 146.335 194.82 146.607 195.004C146.879 195.188 147.107 195.428 147.291 195.724C147.483 196.012 147.579 196.368 147.579 196.792C147.579 197.496 147.343 198.056 146.871 198.472C146.399 198.888 145.767 199.096 144.975 199.096Z" fill="#EEF6FF"/>
<path d="M42.0001 197.6L44.4001 200H39.6001L42.0001 197.6Z" fill="#EEF6FF"/>
<path d="M48 194.063L44.4955 197.6L42 195.082L39.5045 197.6L36 194.063L38.4955 191.545L38.4878 191.537L42 188L45.5122 191.537L45.5045 191.545L48 194.063Z" fill="#EEF6FF"/>
<path d="M32.5898 158.121C32.5898 158.932 32.4349 159.693 32.125 160.404C31.8151 161.115 31.3913 161.74 30.8535 162.277C30.3249 162.806 29.7051 163.225 28.9941 163.535C28.2832 163.845 27.5221 164 26.7109 164H16.9082V144.395H26.7109C27.5221 144.395 28.2832 144.549 28.9941 144.859C29.7051 145.169 30.3249 145.593 30.8535 146.131C31.3913 146.66 31.8151 147.279 32.125 147.99C32.4349 148.701 32.5898 149.462 32.5898 150.273C32.5898 150.638 32.5397 151.012 32.4395 151.395C32.3392 151.777 32.1979 152.146 32.0156 152.502C31.8333 152.857 31.6146 153.181 31.3594 153.473C31.1042 153.764 30.8216 154.006 30.5117 154.197C30.8307 154.37 31.1178 154.607 31.373 154.908C31.6283 155.2 31.847 155.523 32.0293 155.879C32.2116 156.234 32.3483 156.608 32.4395 157C32.5397 157.383 32.5898 157.757 32.5898 158.121ZM20.832 160.076H26.7109C26.9844 160.076 27.2396 160.026 27.4766 159.926C27.7135 159.826 27.9186 159.689 28.0918 159.516C28.2741 159.333 28.4154 159.124 28.5156 158.887C28.6159 158.65 28.666 158.395 28.666 158.121C28.666 157.848 28.6159 157.592 28.5156 157.355C28.4154 157.118 28.2741 156.913 28.0918 156.74C27.9186 156.558 27.7135 156.417 27.4766 156.316C27.2396 156.216 26.9844 156.166 26.7109 156.166H20.832V160.076ZM20.832 152.242H26.7109C26.9844 152.242 27.2396 152.192 27.4766 152.092C27.7135 151.992 27.9186 151.855 28.0918 151.682C28.2741 151.499 28.4154 151.29 28.5156 151.053C28.6159 150.807 28.666 150.547 28.666 150.273C28.666 150 28.6159 149.745 28.5156 149.508C28.4154 149.271 28.2741 149.066 28.0918 148.893C27.9186 148.71 27.7135 148.569 27.4766 148.469C27.2396 148.368 26.9844 148.318 26.7109 148.318H20.832V152.242ZM49.2832 164H35.5566V144.395H39.4805V160.076H49.2832V164ZM62.873 156.166V152.242C62.873 151.704 62.7682 151.199 62.5586 150.725C62.3581 150.242 62.0801 149.822 61.7246 149.467C61.3691 149.111 60.9499 148.833 60.4668 148.633C59.9928 148.423 59.487 148.318 58.9492 148.318C58.4115 148.318 57.901 148.423 57.418 148.633C56.944 148.833 56.5293 149.111 56.1738 149.467C55.8184 149.822 55.5358 150.242 55.3262 150.725C55.1257 151.199 55.0254 151.704 55.0254 152.242V156.166H62.873ZM66.7969 164H62.873V160.076H55.0254V164H51.1152V152.242C51.1152 151.158 51.3203 150.141 51.7305 149.193C52.1406 148.236 52.6966 147.402 53.3984 146.691C54.1094 145.98 54.9388 145.42 55.8867 145.01C56.8438 144.6 57.8646 144.395 58.9492 144.395C60.0339 144.395 61.0501 144.6 61.998 145.01C62.9551 145.42 63.7891 145.98 64.5 146.691C65.2109 147.402 65.7715 148.236 66.1816 149.193C66.5918 150.141 66.7969 151.158 66.7969 152.242V164ZM85.8555 161.99C84.944 162.774 83.9232 163.376 82.793 163.795C81.6628 164.214 80.4915 164.424 79.2793 164.424C78.3496 164.424 77.4518 164.301 76.5859 164.055C75.7292 163.818 74.9225 163.48 74.166 163.043C73.4186 162.596 72.735 162.063 72.1152 161.443C71.4954 160.824 70.9622 160.14 70.5156 159.393C70.0781 158.636 69.7363 157.829 69.4902 156.973C69.2533 156.107 69.1348 155.209 69.1348 154.279C69.1348 153.35 69.2533 152.452 69.4902 151.586C69.7363 150.72 70.0781 149.913 70.5156 149.166C70.9622 148.41 71.4954 147.721 72.1152 147.102C72.735 146.482 73.4186 145.953 74.166 145.516C74.9225 145.069 75.7292 144.727 76.5859 144.49C77.4518 144.244 78.3496 144.121 79.2793 144.121C80.4915 144.121 81.6628 144.331 82.793 144.75C83.9232 145.16 84.944 145.762 85.8555 146.555L83.7773 149.973C83.2031 149.353 82.5241 148.879 81.7402 148.551C80.9564 148.214 80.1361 148.045 79.2793 148.045C78.4134 148.045 77.6022 148.209 76.8457 148.537C76.0892 148.865 75.4284 149.312 74.8633 149.877C74.2982 150.433 73.8516 151.094 73.5234 151.859C73.1953 152.616 73.0312 153.423 73.0312 154.279C73.0312 155.136 73.1953 155.943 73.5234 156.699C73.8516 157.447 74.2982 158.103 74.8633 158.668C75.4284 159.233 76.0892 159.68 76.8457 160.008C77.6022 160.336 78.4134 160.5 79.2793 160.5C80.1361 160.5 80.9564 160.336 81.7402 160.008C82.5241 159.671 83.2031 159.192 83.7773 158.572L85.8555 161.99ZM92.0625 164H88.1387V144.395H92.0625V154.197L99.3633 144.395H103.82L97.627 152.666L103.82 164H99.3633L95.0566 156.07L92.0625 160.076V164ZM114.143 156.166C114.143 157.251 113.938 158.271 113.527 159.229C113.117 160.176 112.557 161.006 111.846 161.717C111.144 162.419 110.314 162.975 109.357 163.385C108.41 163.795 107.393 164 106.309 164C105.652 164 104.996 163.918 104.34 163.754V159.543C104.632 159.716 104.946 159.848 105.283 159.939C105.62 160.031 105.962 160.076 106.309 160.076C106.846 160.076 107.352 159.976 107.826 159.775C108.309 159.566 108.729 159.283 109.084 158.928C109.439 158.572 109.717 158.158 109.918 157.684C110.128 157.21 110.232 156.704 110.232 156.166V144.395H114.143V156.166ZM128.963 156.166V152.242C128.963 151.704 128.858 151.199 128.648 150.725C128.448 150.242 128.17 149.822 127.814 149.467C127.459 149.111 127.04 148.833 126.557 148.633C126.083 148.423 125.577 148.318 125.039 148.318C124.501 148.318 123.991 148.423 123.508 148.633C123.034 148.833 122.619 149.111 122.264 149.467C121.908 149.822 121.626 150.242 121.416 150.725C121.215 151.199 121.115 151.704 121.115 152.242V156.166H128.963ZM132.887 164H128.963V160.076H121.115V164H117.205V152.242C117.205 151.158 117.41 150.141 117.82 149.193C118.23 148.236 118.786 147.402 119.488 146.691C120.199 145.98 121.029 145.42 121.977 145.01C122.934 144.6 123.954 144.395 125.039 144.395C126.124 144.395 127.14 144.6 128.088 145.01C129.045 145.42 129.879 145.98 130.59 146.691C131.301 147.402 131.861 148.236 132.271 149.193C132.682 150.141 132.887 151.158 132.887 152.242V164ZM151.945 161.99C151.034 162.774 150.013 163.376 148.883 163.795C147.753 164.214 146.581 164.424 145.369 164.424C144.439 164.424 143.542 164.301 142.676 164.055C141.819 163.818 141.012 163.48 140.256 163.043C139.508 162.596 138.825 162.063 138.205 161.443C137.585 160.824 137.052 160.14 136.605 159.393C136.168 158.636 135.826 157.829 135.58 156.973C135.343 156.107 135.225 155.209 135.225 154.279C135.225 153.35 135.343 152.452 135.58 151.586C135.826 150.72 136.168 149.913 136.605 149.166C137.052 148.41 137.585 147.721 138.205 147.102C138.825 146.482 139.508 145.953 140.256 145.516C141.012 145.069 141.819 144.727 142.676 144.49C143.542 144.244 144.439 144.121 145.369 144.121C146.581 144.121 147.753 144.331 148.883 144.75C150.013 145.16 151.034 145.762 151.945 146.555L149.867 149.973C149.293 149.353 148.614 148.879 147.83 148.551C147.046 148.214 146.226 148.045 145.369 148.045C144.503 148.045 143.692 148.209 142.936 148.537C142.179 148.865 141.518 149.312 140.953 149.877C140.388 150.433 139.941 151.094 139.613 151.859C139.285 152.616 139.121 153.423 139.121 154.279C139.121 155.136 139.285 155.943 139.613 156.699C139.941 157.447 140.388 158.103 140.953 158.668C141.518 159.233 142.179 159.68 142.936 160.008C143.692 160.336 144.503 160.5 145.369 160.5C146.226 160.5 147.046 160.336 147.83 160.008C148.614 159.671 149.293 159.192 149.867 158.572L151.945 161.99ZM158.152 164H154.229V144.395H158.152V154.197L165.453 144.395H169.91L163.717 152.666L169.91 164H165.453L161.146 156.07L158.152 160.076V164Z" fill="#EEF6FF"/>
<g clip-path="url(#clip1_192_89)">
<rect x="21" y="24.7427" width="70" height="91" rx="5" transform="rotate(-6.35051 21 24.7427)" fill="#EEF6FF"/>
<path d="M48.0753 48.2008C47.1902 45.5851 48.5931 42.7471 51.2089 41.862L104.254 23.9127L131.499 104.428C132.384 107.044 130.981 109.882 128.365 110.767L75.3197 128.716L48.0753 48.2008Z" fill="#D1E5FC"/>
<path d="M40.8232 40.8147L40.3892 36.9149C40.3297 36.3805 40.1696 35.8893 39.9088 35.4414C39.6561 34.9835 39.3335 34.5976 38.9408 34.2836C38.5482 33.9696 38.1008 33.7397 37.5985 33.5938C37.1043 33.4379 36.5899 33.3897 36.0555 33.4492C35.521 33.5087 35.0253 33.6693 34.5684 33.9311C34.1195 34.1828 33.7381 34.505 33.4241 34.8976C33.1102 35.2902 32.8757 35.7381 32.7208 36.2414C32.5739 36.7346 32.5302 37.2485 32.5897 37.783L33.0237 41.6827L40.8232 40.8147ZM45.5895 48.1666L41.6898 48.6006L41.2557 44.7008L33.4562 45.5689L33.8903 49.4686L30.0041 49.9011L28.7036 38.2155C28.5836 37.1375 28.675 36.1048 28.9778 35.1173C29.2796 34.1208 29.7399 33.2304 30.3588 32.4462C30.9867 31.661 31.749 31.0121 32.6458 30.4996C33.5516 29.9861 34.5435 29.6694 35.6214 29.5494C36.6994 29.4295 37.7321 29.5209 38.7196 29.8237C39.7161 30.1254 40.607 30.5903 41.3922 31.2182C42.1774 31.8462 42.8268 32.613 43.3403 33.5188C43.8528 34.4156 44.169 35.4029 44.289 36.4809L45.5895 48.1666Z" fill="#ED476F"/>
<path d="M38.3432 54.004L48.2835 61.9533L40.3342 71.8936L30.3939 63.9443L38.3432 54.004Z" fill="#ED476F"/>
</g>
<rect x="56.5137" y="46.252" width="70" height="91" rx="5" transform="rotate(-18.6946 56.5137 46.252)" fill="#EEF6FF"/>
<path d="M76.5775 77.4679L81.6486 79.9748L79.1417 85.0458L74.0707 82.539L76.5775 77.4679Z" fill="#0A131F"/>
<path d="M79.3905 70.1818L84.4616 72.6886L81.9547 77.7597L76.8837 75.2528L79.3905 70.1818Z" fill="#0A131F"/>
<path d="M86.0502 74.2626L91.1212 76.7695L88.6144 81.8405L83.5433 79.3336L86.0502 74.2626Z" fill="#0A131F"/>
<path d="M75.2593 67.357L71.5425 68.6147L65.2585 50.0436L68.9753 48.7859L72.1173 58.0714L75.8909 46.4458L80.1128 45.0172L76.8974 54.8374L86.3968 63.5883L82.1749 65.0169L75.5539 58.886L74.0017 63.6402L75.2593 67.357Z" fill="#0A131F"/>
<path d="M157.858 44.2437C160.044 47.1925 162.23 50.1413 164.416 53.0916C164.925 53.7786 165.381 54.5021 165.784 55.2606L159.226 46.4127C158.824 45.6542 158.366 44.9292 157.858 44.2437Z" fill="url(#paint1_linear_192_89)"/>
<path d="M108.145 94.8142C105.959 91.8654 103.774 88.9166 101.588 85.9663C103.623 88.7129 106.494 90.8622 110.088 92.1937L116.645 101.042C113.052 99.7101 110.18 97.5624 108.145 94.8142Z" fill="url(#paint2_linear_192_89)"/>
<path d="M159.228 46.4128L165.785 55.2608C166.758 57.0924 167.428 59.152 167.748 61.4259C168.067 63.6998 168.006 66.0497 167.621 68.4179L161.064 59.57C161.449 57.2033 161.51 54.8519 161.19 52.5795C160.871 50.3056 160.201 48.246 159.228 46.4128Z" fill="url(#paint3_linear_192_89)"/>
<path d="M124.935 93.2287L131.493 102.077C128.854 102.525 126.217 102.683 123.651 102.504C121.087 102.324 118.743 101.82 116.645 101.042L110.088 92.1936C112.184 92.9718 114.528 93.4765 117.094 93.6558C119.659 93.8352 122.297 93.6756 124.935 93.2287Z" fill="url(#paint4_linear_192_89)"/>
<path d="M157.217 60.4637C157.056 60.5002 156.875 60.5124 156.686 60.5002C156.411 60.4805 156.124 60.4075 155.868 60.2829C155.463 60.0837 155.139 59.7524 155.077 59.2964L153.941 51.1781C153.897 50.8558 153.985 50.491 154.151 50.1353C154.465 49.4544 155.061 48.7993 155.552 48.5165L159.228 46.4144C157.211 42.6189 153.845 39.6793 149.355 38.0149L147.159 41.3771C146.712 42.0626 145.304 43.0035 144.248 42.929L135.087 42.2906C134.037 42.2177 133.515 41.143 133.681 40.4377L134.584 36.9661C128.91 37.9176 123.191 40.2341 118.014 43.5461L119.665 46.0161C119.884 46.349 119.884 47.0437 119.594 47.7277C119.443 48.0849 119.214 48.4405 118.894 48.7369L110.869 56.2169C110.667 56.4053 110.436 56.5634 110.194 56.6926C109.896 56.8507 109.581 56.9647 109.276 57.0377C108.928 57.1213 108.595 57.1517 108.061 57.0954C107.982 57.0772 107.914 57.0544 107.855 57.027L105.003 55.6697C103.293 58.0074 101.82 60.4911 100.674 63.0827C99.5281 65.6743 98.7742 68.2081 98.376 70.6386L102.229 69.7464C102.371 69.7145 102.526 69.7008 102.757 69.7099C102.963 69.7251 103.176 69.7692 103.378 69.8437C103.874 70.0245 104.298 70.3833 104.372 70.9077L105.497 79.0321C105.543 79.3528 105.455 79.7161 105.29 80.0733C104.976 80.7542 104.378 81.4093 103.889 81.6875L100.233 83.8261C102.25 87.6064 105.607 90.5369 110.089 92.1968L112.279 88.833C112.726 88.1475 114.14 87.2081 115.193 87.275L124.354 87.9134C125.411 87.9864 125.924 89.0686 125.757 89.7724L124.933 93.238C130.582 92.2773 136.271 89.9624 141.431 86.664L139.778 84.1879C139.557 83.8596 139.559 83.1619 139.848 82.4794C139.998 82.1222 140.228 81.7681 140.545 81.4732L148.58 73.9872C149.097 73.5038 149.802 73.2241 150.424 73.1193C150.678 73.0767 150.916 73.0645 151.226 73.0873C151.371 73.1056 151.494 73.136 151.593 73.1831L154.449 74.5435C156.159 72.2042 157.619 69.719 158.766 67.1274C159.912 64.5358 160.666 62.002 161.064 59.5715L157.217 60.4653V60.4637Z" fill="url(#paint5_linear_192_89)"/>
<path d="M161.064 59.5698L167.621 68.4177C167.221 70.8482 166.469 73.3821 165.323 75.9737C164.177 78.5653 162.716 81.0505 161.006 83.3897L154.449 74.5418C156.159 72.2025 157.619 69.7173 158.766 67.1257C159.912 64.5341 160.666 62.0003 161.064 59.5698Z" fill="url(#paint6_linear_192_89)"/>
<path d="M141.43 86.6609L147.987 95.5088C142.827 98.8072 137.138 101.121 131.489 102.083L124.932 93.2349C130.58 92.2742 136.27 89.9593 141.43 86.6609Z" fill="url(#paint7_linear_192_89)"/>
<path d="M110.868 56.2154L118.893 48.7355C119.212 48.4375 119.442 48.0834 119.592 47.7262C119.881 47.0437 119.883 46.3475 119.664 46.0147L118.01 43.5386C115.526 45.1331 113.128 46.9783 110.883 49.0744C108.632 51.169 106.672 53.3867 105 55.6667L107.852 57.024C107.911 57.0529 107.98 57.0757 108.059 57.0924C108.098 57.1015 108.139 57.1091 108.182 57.1137C108.224 57.1198 108.27 57.1243 108.317 57.1274C108.592 57.1471 108.925 57.1167 109.273 57.0331C109.579 56.9602 109.893 56.8462 110.191 56.6881C110.433 56.5589 110.664 56.4023 110.866 56.2123L110.868 56.2154Z" fill="url(#paint8_linear_192_89)"/>
<path d="M147.159 41.3755L149.355 38.0133C149.293 37.9905 149.234 37.9677 149.171 37.9449C148.907 37.8491 148.638 37.7564 148.364 37.6682C146.53 37.08 144.517 36.7015 142.35 36.5495C140.251 36.4036 138.106 36.4781 135.949 36.7593C135.546 36.8125 135.142 36.8718 134.739 36.9386C134.661 36.9508 134.585 36.9645 134.509 36.9766L133.681 40.4346C133.514 41.1399 134.037 42.2146 135.087 42.2875L144.248 42.9259C145.305 42.9989 146.714 42.058 147.159 41.374V41.3755Z" fill="url(#paint9_linear_192_89)"/>
<path d="M104.371 70.9046C104.297 70.3802 103.871 70.0215 103.377 69.8406C103.175 69.7661 102.962 69.722 102.755 69.7068C102.732 69.7053 102.71 69.7038 102.685 69.7038C102.524 69.6977 102.368 69.7114 102.228 69.7433L98.3746 70.6356C97.9976 73.0022 97.9353 75.3536 98.256 77.6276C98.5692 79.9015 99.2395 81.9611 100.218 83.7836L103.889 81.6844C104.379 81.4048 104.976 80.7496 105.291 80.0702C105.455 79.713 105.543 79.3497 105.497 79.029L104.373 70.9046H104.371Z" fill="url(#paint10_linear_192_89)"/>
<path d="M161.188 52.5795C160.869 50.3056 160.199 48.246 159.226 46.4128L155.551 48.515C155.06 48.7977 154.464 49.4528 154.149 50.1338C153.984 50.491 153.895 50.8543 153.94 51.1765L155.075 59.2948C155.137 59.7508 155.461 60.0822 155.867 60.2813C156.122 60.406 156.41 60.4804 156.686 60.4987C156.873 60.5124 157.054 60.4987 157.215 60.4622L161.062 59.5684C161.447 57.2018 161.508 54.8504 161.188 52.578V52.5795Z" fill="url(#paint11_linear_192_89)"/>
<path d="M124.353 87.9103L115.192 87.2719C114.139 87.2051 112.725 88.1444 112.278 88.8299L110.088 92.1937C112.184 92.9719 114.528 93.4766 117.094 93.6559C119.659 93.8353 122.297 93.6757 124.935 93.2288L125.756 89.7693C125.925 89.0655 125.411 87.9833 124.355 87.9103H124.353Z" fill="url(#paint12_linear_192_89)"/>
<path d="M151.225 73.0857C151.192 73.0826 151.158 73.0781 151.123 73.0766C150.917 73.0614 150.676 73.075 150.424 73.1176C149.802 73.2225 149.096 73.5006 148.58 73.9855L140.546 81.4715C140.228 81.7664 139.998 82.1206 139.848 82.4778C139.559 83.1602 139.558 83.8579 139.778 84.1862L141.432 86.6623C143.912 85.0739 146.311 83.2286 148.562 81.1341C150.795 79.0562 152.741 76.8583 154.4 74.6011C154.414 74.5814 154.429 74.5631 154.443 74.5434L151.593 73.183C151.494 73.1374 151.371 73.1054 151.227 73.0872L151.225 73.0857Z" fill="url(#paint13_linear_192_89)"/>
<path d="M154.443 74.542L161 83.3899C160.986 83.4082 160.971 83.4279 160.958 83.4462C159.298 85.7034 157.352 87.9028 155.119 89.9806C152.868 92.0752 150.47 93.9205 147.989 95.5089L141.432 86.661C143.912 85.0726 146.311 83.2273 148.562 81.1327C150.795 79.0549 152.74 76.857 154.4 74.5998C154.414 74.58 154.429 74.5618 154.443 74.542Z" fill="url(#paint14_linear_192_89)"/>
<g style="mix-blend-mode:overlay">
<path d="M138.309 45.9582C127.405 45.1982 114.716 53.277 109.975 63.9976C105.233 74.7196 110.23 84.0281 121.136 84.7881C132.042 85.5481 144.724 77.4693 149.465 66.7488C154.206 56.0282 149.215 46.7182 138.309 45.9582Z" fill="#EEF6FF"/>
</g>
<path d="M138.309 45.6877C127.405 44.9277 114.716 53.0065 109.975 63.7271C105.233 74.4491 110.23 83.7576 121.136 84.5176C132.042 85.2776 144.724 77.1988 149.465 66.4767C154.206 55.7562 149.215 46.4462 138.309 45.6862V45.6877Z" fill="#FF9F05"/>
<path d="M110.614 65.8201C115.355 55.0995 128.043 47.0207 138.948 47.7807C144.952 48.1987 149.159 51.2129 150.941 55.6239C149.754 50.0881 145.223 46.1695 138.308 45.6877C127.404 44.9277 114.715 53.0065 109.974 63.7271C107.843 68.5439 107.683 73.072 109.138 76.6714C108.452 73.4748 108.879 69.7432 110.614 65.8201Z" fill="#E87500"/>
</g>
<defs>
<linearGradient id="paint0_linear_192_89" x1="92.5" y1="220" x2="92.5" y2="0" gradientUnits="userSpaceOnUse">
<stop stop-color="#E94D40"/>
<stop offset="1" stop-color="#FFC93D"/>
</linearGradient>
<linearGradient id="paint1_linear_192_89" x1="182.406" y1="27.7638" x2="119.855" y2="94.5784" gradientUnits="userSpaceOnUse">
<stop stop-color="#FFEA05"/>
<stop offset="0.19" stop-color="#FFD905"/>
<stop offset="0.72" stop-color="#FFAF05"/>
<stop offset="1" stop-color="#FF9F05"/>
</linearGradient>
<linearGradient id="paint2_linear_192_89" x1="176.155" y1="21.8968" x2="113.594" y2="88.7221" gradientUnits="userSpaceOnUse">
<stop stop-color="#FFEA05"/>
<stop offset="0.19" stop-color="#FFD905"/>
<stop offset="0.72" stop-color="#FFAF05"/>
<stop offset="1" stop-color="#FF9F05"/>
</linearGradient>
<linearGradient id="paint3_linear_192_89" x1="163.03" y1="46.6059" x2="167.153" y2="108.733" gradientUnits="userSpaceOnUse">
<stop stop-color="#38393B"/>
<stop offset="0.33" stop-color="#2E2F31"/>
<stop offset="1" stop-color="#1F2021"/>
</linearGradient>
<linearGradient id="paint4_linear_192_89" x1="117.636" y1="49.6184" x2="121.76" y2="111.747" gradientUnits="userSpaceOnUse">
<stop stop-color="#38393B"/>
<stop offset="0.33" stop-color="#2E2F31"/>
<stop offset="1" stop-color="#1F2021"/>
</linearGradient>
<linearGradient id="paint5_linear_192_89" x1="109.861" y1="61.7709" x2="192.89" y2="75.7033" gradientUnits="userSpaceOnUse">
<stop stop-color="#FFEA05"/>
<stop offset="0.19" stop-color="#FFD905"/>
<stop offset="0.72" stop-color="#FFAF05"/>
<stop offset="1" stop-color="#FF9F05"/>
</linearGradient>
<linearGradient id="paint6_linear_192_89" x1="192.829" y1="37.5177" x2="130.273" y2="104.337" gradientUnits="userSpaceOnUse">
<stop stop-color="#FFEA05"/>
<stop offset="0.19" stop-color="#FFD905"/>
<stop offset="0.72" stop-color="#FFAF05"/>
<stop offset="1" stop-color="#FF9F05"/>
</linearGradient>
<linearGradient id="paint7_linear_192_89" x1="191.154" y1="35.9491" x2="128.598" y2="102.77" gradientUnits="userSpaceOnUse">
<stop stop-color="#FFEA05"/>
<stop offset="0.19" stop-color="#FFD905"/>
<stop offset="0.72" stop-color="#FFAF05"/>
<stop offset="1" stop-color="#FF9F05"/>
</linearGradient>
<linearGradient id="paint8_linear_192_89" x1="107.335" y1="49.2477" x2="171.736" y2="61.3302" gradientUnits="userSpaceOnUse">
<stop stop-color="#38393B"/>
<stop offset="0.33" stop-color="#2E2F31"/>
<stop offset="1" stop-color="#1F2021"/>
</linearGradient>
<linearGradient id="paint9_linear_192_89" x1="110.197" y1="33.9777" x2="174.604" y2="46.0632" gradientUnits="userSpaceOnUse">
<stop stop-color="#38393B"/>
<stop offset="0.33" stop-color="#2E2F31"/>
<stop offset="1" stop-color="#1F2021"/>
</linearGradient>
<linearGradient id="paint10_linear_192_89" x1="102.153" y1="76.863" x2="166.563" y2="88.9485" gradientUnits="userSpaceOnUse">
<stop stop-color="#38393B"/>
<stop offset="0.33" stop-color="#2E2F31"/>
<stop offset="1" stop-color="#1F2021"/>
</linearGradient>
<linearGradient id="paint11_linear_192_89" x1="108.292" y1="44.145" x2="172.695" y2="56.229" gradientUnits="userSpaceOnUse">
<stop stop-color="#38393B"/>
<stop offset="0.33" stop-color="#2E2F31"/>
<stop offset="1" stop-color="#1F2021"/>
</linearGradient>
<linearGradient id="paint12_linear_192_89" x1="100.244" y1="87.0303" x2="164.648" y2="99.1143" gradientUnits="userSpaceOnUse">
<stop stop-color="#38393B"/>
<stop offset="0.33" stop-color="#2E2F31"/>
<stop offset="1" stop-color="#1F2021"/>
</linearGradient>
<linearGradient id="paint13_linear_192_89" x1="103.106" y1="71.7618" x2="167.515" y2="83.8473" gradientUnits="userSpaceOnUse">
<stop stop-color="#38393B"/>
<stop offset="0.33" stop-color="#2E2F31"/>
<stop offset="1" stop-color="#1F2021"/>
</linearGradient>
<linearGradient id="paint14_linear_192_89" x1="148.728" y1="47.5544" x2="152.851" y2="109.683" gradientUnits="userSpaceOnUse">
<stop stop-color="#38393B"/>
<stop offset="0.33" stop-color="#2E2F31"/>
<stop offset="1" stop-color="#1F2021"/>
</linearGradient>
<clipPath id="clip0_192_89">
<rect width="185" height="220" rx="6" fill="white"/>
</clipPath>
<clipPath id="clip1_192_89">
<rect x="21" y="24.7427" width="70" height="91" rx="5" transform="rotate(-6.35051 21 24.7427)" fill="white"/>
</clipPath>
</defs>
</svg>
