<svg width="185" height="220" viewBox="0 0 185 220" fill="none" xmlns="http://www.w3.org/2000/svg">
<g clip-path="url(#clip0_192_32)">
<rect width="185" height="220" rx="6" fill="url(#paint0_linear_192_32)"/>
<path d="M57 196.696C57 197.44 56.764 198.012 56.292 198.412C55.828 198.804 55.22 199 54.468 199H51.912C51.872 199 51.836 198.988 51.804 198.964C51.78 198.932 51.768 198.896 51.768 198.856V190.744C51.768 190.704 51.78 190.672 51.804 190.648C51.836 190.616 51.872 190.6 51.912 190.6H54.324C55.132 190.6 55.76 190.792 56.208 191.176C56.664 191.552 56.892 192.116 56.892 192.868C56.892 193.692 56.568 194.276 55.92 194.62C55.88 194.644 55.876 194.668 55.908 194.692C56.636 195.084 57 195.752 57 196.696ZM53.22 191.8C53.18 191.8 53.16 191.82 53.16 191.86V194.092C53.16 194.132 53.18 194.152 53.22 194.152H54.336C54.712 194.152 55.004 194.052 55.212 193.852C55.428 193.644 55.536 193.356 55.536 192.988C55.536 192.612 55.428 192.32 55.212 192.112C55.004 191.904 54.712 191.8 54.336 191.8H53.22ZM54.42 197.788C54.788 197.788 55.076 197.676 55.284 197.452C55.5 197.228 55.608 196.916 55.608 196.516C55.608 196.116 55.5 195.804 55.284 195.58C55.068 195.348 54.776 195.232 54.408 195.232H53.22C53.18 195.232 53.16 195.252 53.16 195.292V197.728C53.16 197.768 53.18 197.788 53.22 197.788H54.42ZM59.7566 198.988C59.7166 198.988 59.6806 198.976 59.6486 198.952C59.6246 198.92 59.6126 198.884 59.6126 198.844V195.604L59.6006 195.532L57.5246 190.768C57.5166 190.752 57.5126 190.728 57.5126 190.696C57.5126 190.632 57.5526 190.6 57.6326 190.6H58.8086C58.8966 190.6 58.9526 190.636 58.9766 190.708L60.2726 193.948C60.2966 194.004 60.3206 194.004 60.3446 193.948L61.6286 190.708C61.6526 190.636 61.7086 190.6 61.7966 190.6H62.9846C63.0406 190.6 63.0766 190.616 63.0926 190.648C63.1086 190.68 63.1086 190.72 63.0926 190.768L61.0046 195.532L60.9926 195.604V198.844C60.9926 198.884 60.9766 198.92 60.9446 198.952C60.9206 198.976 60.8886 198.988 60.8486 198.988H59.7566ZM69.1565 190.6C69.1965 190.6 69.2285 190.616 69.2525 190.648C69.2845 190.672 69.3005 190.704 69.3005 190.744V191.668C69.3005 191.708 69.2845 191.744 69.2525 191.776C69.2285 191.8 69.1965 191.812 69.1565 191.812H67.2965C67.2565 191.812 67.2365 191.832 67.2365 191.872V198.856C67.2365 198.896 67.2205 198.932 67.1885 198.964C67.1645 198.988 67.1325 199 67.0925 199H65.9885C65.9485 199 65.9125 198.988 65.8805 198.964C65.8565 198.932 65.8445 198.896 65.8445 198.856V191.872C65.8445 191.832 65.8245 191.812 65.7845 191.812H63.9965C63.9565 191.812 63.9205 191.8 63.8885 191.776C63.8645 191.744 63.8525 191.708 63.8525 191.668V190.744C63.8525 190.704 63.8645 190.672 63.8885 190.648C63.9205 190.616 63.9565 190.6 63.9965 190.6H69.1565ZM75.368 191.656C75.368 191.696 75.352 191.732 75.32 191.764C75.296 191.788 75.264 191.8 75.224 191.8H71.888C71.848 191.8 71.828 191.82 71.828 191.86V194.116C71.828 194.156 71.848 194.176 71.888 194.176H74.024C74.064 194.176 74.096 194.192 74.12 194.224C74.152 194.248 74.168 194.28 74.168 194.32V195.232C74.168 195.272 74.152 195.308 74.12 195.34C74.096 195.364 74.064 195.376 74.024 195.376H71.888C71.848 195.376 71.828 195.396 71.828 195.436V197.74C71.828 197.78 71.848 197.8 71.888 197.8H75.224C75.264 197.8 75.296 197.816 75.32 197.848C75.352 197.872 75.368 197.904 75.368 197.944V198.856C75.368 198.896 75.352 198.932 75.32 198.964C75.296 198.988 75.264 199 75.224 199H70.58C70.54 199 70.504 198.988 70.472 198.964C70.448 198.932 70.436 198.896 70.436 198.856V190.744C70.436 190.704 70.448 190.672 70.472 190.648C70.504 190.616 70.54 190.6 70.58 190.6H75.224C75.264 190.6 75.296 190.616 75.32 190.648C75.352 190.672 75.368 190.704 75.368 190.744V191.656ZM81.8203 196.696C81.8203 197.44 81.5843 198.012 81.1123 198.412C80.6483 198.804 80.0403 199 79.2883 199H76.7323C76.6923 199 76.6563 198.988 76.6243 198.964C76.6003 198.932 76.5883 198.896 76.5883 198.856V190.744C76.5883 190.704 76.6003 190.672 76.6243 190.648C76.6563 190.616 76.6923 190.6 76.7323 190.6H79.1443C79.9523 190.6 80.5803 190.792 81.0283 191.176C81.4843 191.552 81.7123 192.116 81.7123 192.868C81.7123 193.692 81.3883 194.276 80.7403 194.62C80.7003 194.644 80.6963 194.668 80.7283 194.692C81.4563 195.084 81.8203 195.752 81.8203 196.696ZM78.0403 191.8C78.0003 191.8 77.9803 191.82 77.9803 191.86V194.092C77.9803 194.132 78.0003 194.152 78.0403 194.152H79.1563C79.5323 194.152 79.8243 194.052 80.0323 193.852C80.2483 193.644 80.3563 193.356 80.3563 192.988C80.3563 192.612 80.2483 192.32 80.0323 192.112C79.8243 191.904 79.5323 191.8 79.1563 191.8H78.0403ZM79.2403 197.788C79.6083 197.788 79.8963 197.676 80.1043 197.452C80.3203 197.228 80.4283 196.916 80.4283 196.516C80.4283 196.116 80.3203 195.804 80.1043 195.58C79.8883 195.348 79.5963 195.232 79.2283 195.232H78.0403C78.0003 195.232 77.9803 195.252 77.9803 195.292V197.728C77.9803 197.768 78.0003 197.788 78.0403 197.788H79.2403ZM88.0008 191.656C88.0008 191.696 87.9848 191.732 87.9528 191.764C87.9288 191.788 87.8968 191.8 87.8568 191.8H84.5208C84.4808 191.8 84.4608 191.82 84.4608 191.86V194.116C84.4608 194.156 84.4808 194.176 84.5208 194.176H86.6568C86.6968 194.176 86.7288 194.192 86.7528 194.224C86.7848 194.248 86.8008 194.28 86.8008 194.32V195.232C86.8008 195.272 86.7848 195.308 86.7528 195.34C86.7288 195.364 86.6968 195.376 86.6568 195.376H84.5208C84.4808 195.376 84.4608 195.396 84.4608 195.436V197.74C84.4608 197.78 84.4808 197.8 84.5208 197.8H87.8568C87.8968 197.8 87.9288 197.816 87.9528 197.848C87.9848 197.872 88.0008 197.904 88.0008 197.944V198.856C88.0008 198.896 87.9848 198.932 87.9528 198.964C87.9288 198.988 87.8968 199 87.8568 199H83.2128C83.1728 199 83.1368 198.988 83.1048 198.964C83.0808 198.932 83.0688 198.896 83.0688 198.856V190.744C83.0688 190.704 83.0808 190.672 83.1048 190.648C83.1368 190.616 83.1728 190.6 83.2128 190.6H87.8568C87.8968 190.6 87.9288 190.616 87.9528 190.648C87.9848 190.672 88.0008 190.704 88.0008 190.744V191.656ZM94.1291 190.6C94.1691 190.6 94.2011 190.616 94.2251 190.648C94.2571 190.672 94.2731 190.704 94.2731 190.744V191.668C94.2731 191.708 94.2571 191.744 94.2251 191.776C94.2011 191.8 94.1691 191.812 94.1291 191.812H92.2691C92.2291 191.812 92.2091 191.832 92.2091 191.872V198.856C92.2091 198.896 92.1931 198.932 92.1611 198.964C92.1371 198.988 92.1051 199 92.0651 199H90.9611C90.9211 199 90.8851 198.988 90.8531 198.964C90.8291 198.932 90.8171 198.896 90.8171 198.856V191.872C90.8171 191.832 90.7971 191.812 90.7571 191.812H88.9691C88.9291 191.812 88.8931 191.8 88.8611 191.776C88.8371 191.744 88.8251 191.708 88.8251 191.668V190.744C88.8251 190.704 88.8371 190.672 88.8611 190.648C88.8931 190.616 88.9291 190.6 88.9691 190.6H94.1291ZM100.295 199.108C99.767 199.108 99.299 199 98.891 198.784C98.491 198.568 98.179 198.264 97.955 197.872C97.739 197.472 97.631 197.012 97.631 196.492V193.108C97.631 192.596 97.739 192.144 97.955 191.752C98.179 191.352 98.491 191.044 98.891 190.828C99.299 190.612 99.767 190.504 100.295 190.504C100.831 190.504 101.299 190.612 101.699 190.828C102.107 191.044 102.423 191.352 102.647 191.752C102.871 192.144 102.983 192.596 102.983 193.108V196.492C102.983 197.012 102.871 197.472 102.647 197.872C102.423 198.264 102.107 198.568 101.699 198.784C101.299 199 100.831 199.108 100.295 199.108ZM100.295 197.908C100.687 197.908 100.999 197.784 101.231 197.536C101.471 197.28 101.591 196.952 101.591 196.552V193.072C101.591 192.664 101.471 192.336 101.231 192.088C100.999 191.832 100.687 191.704 100.295 191.704C99.911 191.704 99.603 191.832 99.371 192.088C99.139 192.336 99.023 192.664 99.023 193.072V196.552C99.023 196.952 99.139 197.28 99.371 197.536C99.603 197.784 99.911 197.908 100.295 197.908ZM108.346 199C108.258 199 108.202 198.96 108.178 198.88L106.882 195.436C106.866 195.404 106.846 195.388 106.822 195.388H105.79C105.75 195.388 105.73 195.408 105.73 195.448V198.856C105.73 198.896 105.714 198.932 105.682 198.964C105.658 198.988 105.626 199 105.586 199H104.482C104.442 199 104.406 198.988 104.374 198.964C104.35 198.932 104.338 198.896 104.338 198.856V190.744C104.338 190.704 104.35 190.672 104.374 190.648C104.406 190.616 104.442 190.6 104.482 190.6H107.254C107.71 190.6 108.114 190.704 108.466 190.912C108.818 191.112 109.09 191.4 109.282 191.776C109.474 192.144 109.57 192.568 109.57 193.048C109.57 193.568 109.45 194.02 109.21 194.404C108.97 194.788 108.642 195.06 108.226 195.22C108.186 195.236 108.174 195.264 108.19 195.304L109.606 198.832C109.614 198.848 109.618 198.872 109.618 198.904C109.618 198.968 109.578 199 109.498 199H108.346ZM105.79 191.8C105.75 191.8 105.73 191.82 105.73 191.86V194.248C105.73 194.288 105.75 194.308 105.79 194.308H107.05C107.386 194.308 107.658 194.196 107.866 193.972C108.074 193.74 108.178 193.436 108.178 193.06C108.178 192.676 108.074 192.372 107.866 192.148C107.658 191.916 107.386 191.8 107.05 191.8H105.79ZM110.928 199C110.888 199 110.852 198.988 110.82 198.964C110.796 198.932 110.784 198.896 110.784 198.856V190.744C110.784 190.704 110.796 190.672 110.82 190.648C110.852 190.616 110.888 190.6 110.928 190.6H112.032C112.072 190.6 112.104 190.616 112.128 190.648C112.16 190.672 112.176 190.704 112.176 190.744V198.856C112.176 198.896 112.16 198.932 112.128 198.964C112.104 198.988 112.072 199 112.032 199H110.928ZM116.15 199.096C115.63 199.096 115.17 198.992 114.77 198.784C114.378 198.576 114.07 198.284 113.846 197.908C113.63 197.524 113.522 197.084 113.522 196.588V193.012C113.522 192.516 113.63 192.08 113.846 191.704C114.07 191.32 114.378 191.024 114.77 190.816C115.17 190.608 115.63 190.504 116.15 190.504C116.67 190.504 117.13 190.608 117.53 190.816C117.93 191.016 118.238 191.3 118.454 191.668C118.678 192.036 118.79 192.456 118.79 192.928V193.204C118.79 193.244 118.774 193.28 118.742 193.312C118.718 193.336 118.686 193.348 118.646 193.348H117.542C117.502 193.348 117.466 193.336 117.434 193.312C117.41 193.28 117.398 193.244 117.398 193.204V192.928C117.398 192.568 117.282 192.276 117.05 192.052C116.826 191.82 116.526 191.704 116.15 191.704C115.782 191.704 115.482 191.824 115.25 192.064C115.026 192.296 114.914 192.604 114.914 192.988V196.612C114.914 196.996 115.03 197.308 115.262 197.548C115.502 197.78 115.81 197.896 116.186 197.896C116.554 197.896 116.846 197.792 117.062 197.584C117.286 197.368 117.398 197.076 117.398 196.708V195.76C117.398 195.72 117.378 195.7 117.338 195.7H116.246C116.206 195.7 116.17 195.688 116.138 195.664C116.114 195.632 116.102 195.596 116.102 195.556V194.68C116.102 194.64 116.114 194.608 116.138 194.584C116.17 194.552 116.206 194.536 116.246 194.536H118.646C118.686 194.536 118.718 194.552 118.742 194.584C118.774 194.608 118.79 194.64 118.79 194.68V196.552C118.79 197.344 118.55 197.968 118.07 198.424C117.59 198.872 116.95 199.096 116.15 199.096ZM120.291 199C120.251 199 120.215 198.988 120.183 198.964C120.159 198.932 120.147 198.896 120.147 198.856V190.744C120.147 190.704 120.159 190.672 120.183 190.648C120.215 190.616 120.251 190.6 120.291 190.6H121.395C121.435 190.6 121.467 190.616 121.491 190.648C121.523 190.672 121.539 190.704 121.539 190.744V198.856C121.539 198.896 121.523 198.932 121.491 198.964C121.467 198.988 121.435 199 121.395 199H120.291ZM127.205 190.744C127.205 190.704 127.217 190.672 127.241 190.648C127.273 190.616 127.309 190.6 127.349 190.6H128.453C128.493 190.6 128.525 190.616 128.549 190.648C128.581 190.672 128.597 190.704 128.597 190.744V198.856C128.597 198.896 128.581 198.932 128.549 198.964C128.525 198.988 128.493 199 128.453 199H127.289C127.217 199 127.161 198.964 127.121 198.892L124.505 193.516C124.489 193.492 124.473 193.484 124.457 193.492C124.441 193.492 124.433 193.508 124.433 193.54L124.445 198.856C124.445 198.896 124.429 198.932 124.397 198.964C124.373 198.988 124.341 199 124.301 199H123.197C123.157 199 123.121 198.988 123.089 198.964C123.065 198.932 123.053 198.896 123.053 198.856V190.744C123.053 190.704 123.065 190.672 123.089 190.648C123.121 190.616 123.157 190.6 123.197 190.6H124.349C124.429 190.6 124.485 190.636 124.517 190.708L127.145 196.108C127.161 196.132 127.177 196.144 127.193 196.144C127.209 196.136 127.217 196.116 127.217 196.084L127.205 190.744ZM134.428 199C134.34 199 134.284 198.96 134.26 198.88L133.948 197.596C133.94 197.564 133.92 197.548 133.888 197.548H131.416C131.384 197.548 131.364 197.564 131.356 197.596L131.056 198.88C131.032 198.96 130.976 199 130.888 199H129.748C129.644 199 129.604 198.948 129.628 198.844L131.812 190.72C131.836 190.64 131.892 190.6 131.98 190.6H133.348C133.436 190.6 133.492 190.64 133.516 190.72L135.7 198.844L135.712 198.892C135.712 198.964 135.668 199 135.58 199H134.428ZM131.644 196.384C131.636 196.408 131.64 196.428 131.656 196.444C131.672 196.452 131.688 196.456 131.704 196.456H133.6C133.616 196.456 133.632 196.452 133.648 196.444C133.664 196.428 133.668 196.408 133.66 196.384L132.676 192.448C132.668 192.424 132.656 192.412 132.64 192.412C132.624 192.412 132.612 192.424 132.604 192.448L131.644 196.384ZM136.885 199C136.845 199 136.809 198.988 136.777 198.964C136.753 198.932 136.741 198.896 136.741 198.856V190.744C136.741 190.704 136.753 190.672 136.777 190.648C136.809 190.616 136.845 190.6 136.885 190.6H137.989C138.029 190.6 138.061 190.616 138.085 190.648C138.117 190.672 138.133 190.704 138.133 190.744V197.74C138.133 197.78 138.153 197.8 138.193 197.8H141.493C141.533 197.8 141.565 197.816 141.589 197.848C141.621 197.872 141.637 197.904 141.637 197.944V198.856C141.637 198.896 141.621 198.932 141.589 198.964C141.565 198.988 141.533 199 141.493 199H136.885ZM144.975 199.096C144.447 199.096 143.983 199.004 143.583 198.82C143.183 198.628 142.871 198.36 142.647 198.016C142.431 197.664 142.323 197.26 142.323 196.804V196.492C142.323 196.452 142.335 196.42 142.359 196.396C142.391 196.364 142.427 196.348 142.467 196.348H143.547C143.587 196.348 143.619 196.364 143.643 196.396C143.675 196.42 143.691 196.452 143.691 196.492V196.732C143.691 197.076 143.811 197.356 144.051 197.572C144.291 197.788 144.615 197.896 145.023 197.896C145.399 197.896 145.687 197.8 145.887 197.608C146.087 197.416 146.187 197.164 146.187 196.852C146.187 196.636 146.131 196.452 146.019 196.3C145.907 196.14 145.747 195.996 145.539 195.868C145.339 195.732 145.027 195.552 144.603 195.328C144.115 195.072 143.723 194.844 143.427 194.644C143.131 194.444 142.879 194.188 142.671 193.876C142.471 193.564 142.371 193.184 142.371 192.736C142.371 192.048 142.599 191.504 143.055 191.104C143.519 190.704 144.127 190.504 144.879 190.504C145.399 190.504 145.859 190.604 146.259 190.804C146.659 190.996 146.967 191.272 147.183 191.632C147.399 191.992 147.507 192.404 147.507 192.868V193.12C147.507 193.16 147.491 193.196 147.459 193.228C147.435 193.252 147.403 193.264 147.363 193.264H146.283C146.243 193.264 146.207 193.252 146.175 193.228C146.151 193.196 146.139 193.16 146.139 193.12V192.892C146.139 192.548 146.023 192.264 145.791 192.04C145.559 191.816 145.247 191.704 144.855 191.704C144.511 191.704 144.239 191.796 144.039 191.98C143.839 192.156 143.739 192.404 143.739 192.724C143.739 192.94 143.791 193.124 143.895 193.276C143.999 193.428 144.155 193.572 144.363 193.708C144.579 193.844 144.903 194.02 145.335 194.236C145.911 194.564 146.335 194.82 146.607 195.004C146.879 195.188 147.107 195.428 147.291 195.724C147.483 196.012 147.579 196.368 147.579 196.792C147.579 197.496 147.343 198.056 146.871 198.472C146.399 198.888 145.767 199.096 144.975 199.096Z" fill="#EEF6FF"/>
<path d="M42.0001 197.6L44.4001 200H39.6001L42.0001 197.6Z" fill="#EEF6FF"/>
<path d="M48 194.063L44.4955 197.6L42 195.082L39.5045 197.6L36 194.063L38.4955 191.545L38.4878 191.537L42 188L45.5122 191.537L45.5045 191.545L48 194.063Z" fill="#EEF6FF"/>
<path d="M54.1104 161.272C52.8734 162.336 51.488 163.153 49.9541 163.722C48.4202 164.291 46.8307 164.575 45.1855 164.575C43.9238 164.575 42.7054 164.408 41.5303 164.074C40.3675 163.753 39.2728 163.295 38.2461 162.701C37.2318 162.095 36.304 161.371 35.4629 160.53C34.6217 159.689 33.8981 158.761 33.292 157.747C32.6982 156.72 32.2344 155.626 31.9004 154.463C31.5788 153.288 31.418 152.069 31.418 150.808C31.418 149.546 31.5788 148.327 31.9004 147.152C32.2344 145.977 32.6982 144.882 33.292 143.868C33.8981 142.841 34.6217 141.908 35.4629 141.066C36.304 140.225 37.2318 139.508 38.2461 138.914C39.2728 138.308 40.3675 137.844 41.5303 137.522C42.7054 137.188 43.9238 137.021 45.1855 137.021C46.8307 137.021 48.4202 137.306 49.9541 137.875C51.488 138.432 52.8734 139.248 54.1104 140.324L51.29 144.963C50.5107 144.122 49.5892 143.479 48.5254 143.033C47.4616 142.576 46.3483 142.347 45.1855 142.347C44.0104 142.347 42.9095 142.569 41.8828 143.015C40.8561 143.46 39.9593 144.066 39.1924 144.833C38.4255 145.588 37.8193 146.484 37.374 147.523C36.9287 148.55 36.7061 149.645 36.7061 150.808C36.7061 151.97 36.9287 153.065 37.374 154.092C37.8193 155.106 38.4255 155.997 39.1924 156.764C39.9593 157.531 40.8561 158.137 41.8828 158.582C42.9095 159.027 44.0104 159.25 45.1855 159.25C46.3483 159.25 47.4616 159.027 48.5254 158.582C49.5892 158.124 50.5107 157.475 51.29 156.634L54.1104 161.272ZM62.5342 142.718V153.368H67.8594C68.5892 153.368 69.2757 153.232 69.9189 152.96C70.5622 152.675 71.125 152.292 71.6074 151.81C72.0898 151.327 72.4671 150.764 72.7393 150.121C73.0238 149.465 73.166 148.773 73.166 148.043C73.166 147.313 73.0238 146.627 72.7393 145.983C72.4671 145.328 72.0898 144.759 71.6074 144.276C71.125 143.794 70.5622 143.417 69.9189 143.145C69.2757 142.86 68.5892 142.718 67.8594 142.718H62.5342ZM62.5342 164H57.209V137.393H67.8594C68.8366 137.393 69.7767 137.522 70.6797 137.782C71.5827 138.03 72.4238 138.388 73.2031 138.858C73.9948 139.316 74.7122 139.873 75.3555 140.528C76.0111 141.172 76.5677 141.889 77.0254 142.681C77.4954 143.472 77.8542 144.32 78.1016 145.223C78.3613 146.126 78.4912 147.066 78.4912 148.043C78.4912 148.958 78.3737 149.849 78.1387 150.715C77.916 151.581 77.5882 152.403 77.1553 153.183C76.7347 153.962 76.2152 154.679 75.5967 155.335C74.9782 155.991 74.2855 156.56 73.5186 157.042L76.4688 164H70.8096L68.4902 158.638L62.5342 158.675V164ZM97.6582 153.368V148.043C97.6582 147.313 97.516 146.627 97.2314 145.983C96.9593 145.328 96.582 144.759 96.0996 144.276C95.6172 143.794 95.0482 143.417 94.3926 143.145C93.7493 142.86 93.0628 142.718 92.333 142.718C91.6032 142.718 90.9105 142.86 90.2549 143.145C89.6117 143.417 89.0488 143.794 88.5664 144.276C88.084 144.759 87.7005 145.328 87.416 145.983C87.1439 146.627 87.0078 147.313 87.0078 148.043V153.368H97.6582ZM102.983 164H97.6582V158.675H87.0078V164H81.7012V148.043C81.7012 146.571 81.9795 145.192 82.5361 143.905C83.0928 142.606 83.8473 141.475 84.7998 140.51C85.7646 139.545 86.8903 138.784 88.1768 138.228C89.4756 137.671 90.861 137.393 92.333 137.393C93.805 137.393 95.1842 137.671 96.4707 138.228C97.7695 138.784 98.9014 139.545 99.8662 140.51C100.831 141.475 101.592 142.606 102.148 143.905C102.705 145.192 102.983 146.571 102.983 148.043V164ZM106.045 145.371C106.045 144.27 106.255 143.237 106.676 142.272C107.096 141.308 107.665 140.466 108.383 139.749C109.113 139.019 109.96 138.444 110.925 138.023C111.89 137.603 112.923 137.393 114.023 137.393H126.232V142.718H114.023C113.652 142.718 113.306 142.786 112.984 142.922C112.663 143.058 112.378 143.25 112.131 143.497C111.896 143.732 111.71 144.01 111.574 144.332C111.438 144.654 111.37 145 111.37 145.371C111.37 145.742 111.438 146.095 111.574 146.429C111.71 146.75 111.896 147.035 112.131 147.282C112.378 147.517 112.663 147.703 112.984 147.839C113.306 147.975 113.652 148.043 114.023 148.043H119.349C120.45 148.043 121.482 148.253 122.447 148.674C123.424 149.082 124.272 149.651 124.989 150.381C125.719 151.098 126.288 151.946 126.696 152.923C127.117 153.888 127.327 154.921 127.327 156.021C127.327 157.122 127.117 158.155 126.696 159.12C126.288 160.085 125.719 160.932 124.989 161.662C124.272 162.38 123.424 162.949 122.447 163.369C121.482 163.79 120.45 164 119.349 164H107.529V158.675H119.349C119.72 158.675 120.066 158.607 120.388 158.471C120.709 158.335 120.988 158.149 121.223 157.914C121.47 157.667 121.662 157.382 121.798 157.061C121.934 156.739 122.002 156.393 122.002 156.021C122.002 155.65 121.934 155.304 121.798 154.982C121.662 154.661 121.47 154.382 121.223 154.147C120.988 153.9 120.709 153.708 120.388 153.572C120.066 153.436 119.72 153.368 119.349 153.368H114.023C112.923 153.368 111.89 153.158 110.925 152.737C109.96 152.317 109.113 151.748 108.383 151.03C107.665 150.3 107.096 149.453 106.676 148.488C106.255 147.511 106.045 146.472 106.045 145.371ZM136.159 164H130.834V137.393H136.159V148.043H146.791V137.393H152.116V164H146.791V153.368H136.159V164Z" fill="#EEF6FF"/>
<path opacity="0.6" d="M105.488 99.5C146.807 78.1218 162 35 162 35V164H0V119.388C0 119.388 60.8173 122.613 105.488 99.5Z" fill="url(#paint1_linear_192_32)"/>
<path d="M162 35C162 35 146.807 77.8459 105.488 99.0872C60.8173 122.052 0 118.847 0 118.847" stroke="#EEF6FF" stroke-width="6"/>
<line x1="-5.42725e-08" y1="100.5" x2="185" y2="100.5" stroke="white" stroke-opacity="0.3"/>
<line x1="-5.42725e-08" y1="70.5" x2="185" y2="70.5" stroke="white" stroke-opacity="0.3"/>
<line x1="-5.42725e-08" y1="40.5" x2="185" y2="40.5" stroke="white" stroke-opacity="0.3"/>
<circle cx="162" cy="35" r="12" fill="#EEF6FF"/>
<rect x="12" y="33" width="86" height="40" rx="20" fill="#ED476F"/>
<path d="M42.6133 62H38.5352L35.3008 56.5742L32.0547 62H28L33.1562 53.5977L28 45.1953H32.0547L35.3008 50.6211L38.5352 45.1953H42.6133L37.457 53.5977L42.6133 62ZM48.5781 62H45.2148V48.5586H43.5391V45.1953H48.5781V62ZM61.4922 53.5977C61.4922 51.7305 61.1797 50.3438 60.5547 49.4375C59.9375 48.5312 59.0742 48.0781 57.9648 48.0781C56.8633 48.0781 56.0078 48.5273 55.3984 49.4258C54.7891 50.3242 54.4844 51.7148 54.4844 53.5977C54.4844 55.4648 54.7891 56.8516 55.3984 57.7578C56.0078 58.6641 56.8633 59.1172 57.9648 59.1172C58.5195 59.1172 59.0156 59.0078 59.4531 58.7891C59.8906 58.5625 60.2578 58.2227 60.5547 57.7695C60.8594 57.3164 61.0898 56.7461 61.2461 56.0586C61.4102 55.3633 61.4922 54.543 61.4922 53.5977ZM64.6914 53.5977C64.6914 55.1914 64.5156 56.5391 64.1641 57.6406C63.8125 58.7422 63.332 59.6328 62.7227 60.3125C62.1133 60.9922 61.3984 61.4844 60.5781 61.7891C59.7656 62.0859 58.8945 62.2344 57.9648 62.2344C57.0352 62.2344 56.1602 62.082 55.3398 61.7773C54.5273 61.4648 53.8164 60.9688 53.207 60.2891C52.6055 59.6016 52.1289 58.7109 51.7773 57.6172C51.4258 56.5156 51.25 55.1758 51.25 53.5977C51.25 52.0039 51.4258 50.6602 51.7773 49.5664C52.1289 48.4648 52.6055 47.5742 53.207 46.8945C53.8164 46.2148 54.5273 45.7227 55.3398 45.418C56.1602 45.1133 57.0352 44.9609 57.9648 44.9609C58.8945 44.9609 59.7656 45.1172 60.5781 45.4297C61.3984 45.7344 62.1133 46.2305 62.7227 46.918C63.332 47.6055 63.8125 48.4961 64.1641 49.5898C64.5156 50.6836 64.6914 52.0195 64.6914 53.5977ZM76.9141 53.5977C76.9141 51.7305 76.6016 50.3438 75.9766 49.4375C75.3594 48.5312 74.4961 48.0781 73.3867 48.0781C72.2852 48.0781 71.4297 48.5273 70.8203 49.4258C70.2109 50.3242 69.9062 51.7148 69.9062 53.5977C69.9062 55.4648 70.2109 56.8516 70.8203 57.7578C71.4297 58.6641 72.2852 59.1172 73.3867 59.1172C73.9414 59.1172 74.4375 59.0078 74.875 58.7891C75.3125 58.5625 75.6797 58.2227 75.9766 57.7695C76.2812 57.3164 76.5117 56.7461 76.668 56.0586C76.832 55.3633 76.9141 54.543 76.9141 53.5977ZM80.1133 53.5977C80.1133 55.1914 79.9375 56.5391 79.5859 57.6406C79.2344 58.7422 78.7539 59.6328 78.1445 60.3125C77.5352 60.9922 76.8203 61.4844 76 61.7891C75.1875 62.0859 74.3164 62.2344 73.3867 62.2344C72.457 62.2344 71.582 62.082 70.7617 61.7773C69.9492 61.4648 69.2383 60.9688 68.6289 60.2891C68.0273 59.6016 67.5508 58.7109 67.1992 57.6172C66.8477 56.5156 66.6719 55.1758 66.6719 53.5977C66.6719 52.0039 66.8477 50.6602 67.1992 49.5664C67.5508 48.4648 68.0273 47.5742 68.6289 46.8945C69.2383 46.2148 69.9492 45.7227 70.7617 45.418C71.582 45.1133 72.457 44.9609 73.3867 44.9609C74.3164 44.9609 75.1875 45.1172 76 45.4297C76.8203 45.7344 77.5352 46.2305 78.1445 46.918C78.7539 47.6055 79.2344 48.4961 79.5859 49.5898C79.9375 50.6836 80.1133 52.0195 80.1133 53.5977Z" fill="#EEF6FF"/>
<path d="M148.5 41L150 44L115 73L118 55.5L148.5 41Z" fill="#BD84FF"/>
<path d="M146.5 35L145.5 39L113.5 47L119 36L146.5 35Z" fill="#BD84FF"/>
</g>
<defs>
<linearGradient id="paint0_linear_192_32" x1="92.5" y1="0" x2="92.5" y2="220" gradientUnits="userSpaceOnUse">
<stop stop-color="#9E00FF"/>
<stop offset="1" stop-color="#3F84FA"/>
</linearGradient>
<linearGradient id="paint1_linear_192_32" x1="81" y1="35" x2="81" y2="164" gradientUnits="userSpaceOnUse">
<stop stop-color="#EEF6FF"/>
<stop offset="1" stop-color="#EEF6FF" stop-opacity="0"/>
</linearGradient>
<clipPath id="clip0_192_32">
<rect width="185" height="220" rx="6" fill="white"/>
</clipPath>
</defs>
</svg>
