<svg width="409" height="213" viewBox="0 0 409 213" fill="none" xmlns="http://www.w3.org/2000/svg">
<g clip-path="url(#clip0_192_813)">
<path d="M14.2159 35.0505H4.90422C2.19845 35.0505 0 37.2431 0 39.9416C0 42.6402 2.19845 44.8327 4.90422 44.8327H14.2159C16.9217 44.8327 19.1201 42.6402 19.1201 39.9416C19.1201 37.2431 16.9217 35.0505 14.2159 35.0505Z" fill="#EEF6FF"/>
<path d="M88.3605 54.6149H72.612C69.9062 54.6149 67.7078 52.4223 67.7078 49.7238C67.7078 47.0253 69.9062 44.8327 72.612 44.8327H117.363C120.069 44.8327 122.267 42.6402 122.267 39.9416C122.267 37.2431 120.069 35.0505 117.363 35.0505H27.6919C24.9861 35.0505 22.7877 37.2431 22.7877 39.9416C22.7877 42.6402 24.9861 44.8327 27.6919 44.8327H48.6405C51.3463 44.8327 53.5448 47.0253 53.5448 49.7238C53.5448 52.4223 51.3463 54.6149 48.6405 54.6149H24.352C21.6462 54.6149 19.4478 56.8074 19.4478 59.506C19.4478 62.2045 21.6462 64.3971 24.352 64.3971H88.3605C91.0662 64.3971 93.2647 62.2045 93.2647 59.506C93.2647 56.8074 91.0662 54.6149 88.3605 54.6149Z" fill="#EEF6FF"/>
<path d="M125.364 54.615H103.475C100.769 54.615 98.5706 56.8075 98.5706 59.5061C98.5706 62.2046 100.769 64.3972 103.475 64.3972H125.364C128.07 64.3972 130.268 62.2046 130.268 59.5061C130.268 56.8075 128.07 54.615 125.364 54.615Z" fill="#EEF6FF"/>
<path d="M198.087 306.557C282.845 306.557 351.555 238.031 351.555 153.5C351.555 68.9687 282.845 0.442627 198.087 0.442627C113.329 0.442627 44.6189 68.9687 44.6189 153.5C44.6189 238.031 113.329 306.557 198.087 306.557Z" fill="#0C1927"/>
<path d="M223.136 233.37C223.834 229.913 224.532 226.455 225.219 222.987C227.195 213.152 227.85 200.355 218.877 195.812C211.457 192.06 202.864 196.898 195.244 200.229C187.623 203.56 176.261 203.918 173.492 196.097C172.921 192.766 172.35 189.445 171.78 186.114C162.711 177.766 146.804 178.493 138.528 187.622L135.981 171.525C132.852 168.774 127.895 168.342 124.344 170.524C126.944 175.521 122.209 182.214 116.554 182.372C110.91 182.53 106.017 177.376 105.351 171.778C104.685 166.181 107.56 160.605 111.713 156.789C114.948 153.827 119.25 151.255 120 146.943C126.743 144.962 134.628 147.85 138.475 153.721C142.259 150.433 134.174 146.648 131.732 142.284C126.659 133.208 148.643 127.843 146.508 117.671C145.969 115.088 143.845 113.106 142.978 110.608C140.684 104.073 147.301 98.1696 152.681 93.7845C158.06 89.3994 163.102 81.1878 158.219 76.2651C156.19 74.2201 153.04 73.6615 150.916 71.7219C147.037 68.2011 147.628 61.2967 143.411 58.1871C137.989 54.192 130.865 59.842 126.299 64.7753C121.733 69.7191 113.415 74.3572 109.103 69.192C108.638 73.7247 108.13 78.4366 105.763 82.3368C103.395 86.237 98.6074 89.0726 94.2422 87.7128C96.1024 67.4527 112.337 51.8729 127.525 38.2854C130.432 35.6817 133.434 33.0253 137.122 31.7499C147.089 28.2818 157.204 35.8715 165.036 42.9235C168.725 46.2439 172.456 49.6276 175.056 53.8546C177.688 58.1344 179.03 63.0571 180.33 67.8955C183.226 78.6685 186.133 89.4415 189.029 100.204C191.608 109.786 198.51 121.887 207.916 118.651C208.54 105.506 209.174 92.3614 209.798 79.2272C209.935 76.2546 210.157 73.0817 211.975 70.731C214.628 67.3157 219.892 66.6938 222.365 63.1414C226.371 57.4176 220.473 48.5841 224.447 42.8497C227.523 38.4119 235.291 37.9797 236.591 32.7407C237.595 28.7035 233.727 25.109 229.901 23.454C226.075 21.8096 221.636 20.8609 219.036 17.6037C217.281 15.4006 216.71 12.5123 215.537 9.96133C213.835 6.26139 210.939 3.38366 207.473 1.20164C204.365 1.0119 201.237 0.906494 198.076 0.906494C113.32 0.906494 44.6082 69.4345 44.6082 153.964C44.6082 161.406 45.1472 168.732 46.183 175.889C54.0784 189.393 64.4681 203.602 69.2455 197.446C74.6571 190.468 41.5324 161.901 61.107 159.234C63.0624 158.971 65.0283 159.667 66.7406 160.626C75.7986 165.696 78.9271 176.859 82.4679 186.599C85.9981 196.339 92.7096 207.007 103.078 207.302C114.06 207.618 122.727 195.844 133.687 196.508C136.256 196.666 138.803 197.509 141.34 197.098C147.935 196.034 154.023 187.031 159.234 191.206C172.319 208.809 145.219 235.468 156.454 254.294C160.618 261.273 168.788 264.519 175.881 268.504C191.809 277.443 203.89 291.621 215.231 306.041C219.289 305.588 223.306 304.976 227.259 304.217C227.29 303.933 227.322 303.659 227.322 303.374C227.417 299.063 225.102 295.12 223.369 291.157C215.526 273.195 219.257 252.545 223.115 233.328L223.136 233.37ZM347.042 117.038C340.246 113.718 334.274 108.679 329.919 102.513C332.942 98.1274 338.523 102.428 343.649 105.39C334.137 77.0241 316.517 52.3684 293.529 34.1427C285.56 36.5883 278.742 44.726 280.898 52.7268C282.78 59.6734 290.443 64.0269 291.912 71.0683C293.603 79.1745 283.9 87.1436 276.248 83.9285C275.709 88.8407 275.17 93.7423 274.631 98.6545C270.963 101.237 266.017 101.912 261.799 100.394C261.799 102.797 261.799 105.201 261.799 107.604C266.513 111.799 271.735 116.216 278.034 116.68C284.344 117.133 291.288 111.241 289.269 105.264C288.16 101.975 284.682 98.6967 286.447 95.703C291.595 94.1745 297.144 92.6461 302.217 94.3643C307.491 96.1457 309.901 101.522 308.442 106.624C326.601 104.368 318.758 122.709 309.351 127.864C292.43 137.119 279.197 125.229 262.402 127.759C256.092 128.707 250.649 132.555 245.48 136.286C238.335 141.441 230.281 148.999 232.765 157.442C233.653 160.478 235.83 162.955 238.029 165.232C245.829 173.349 256.272 180.875 267.391 179.031C273.119 178.082 278.224 174.709 283.942 173.729C295.453 171.747 306.794 180.275 311.539 190.932C316.285 201.578 315.83 213.764 314.456 225.338C313.864 230.345 313.125 235.5 314.509 240.349C315.323 243.195 317.099 245.914 319.445 247.654C339.559 221.765 351.534 189.277 351.534 153.995C351.534 141.262 349.959 128.887 347.021 117.059L347.042 117.038Z" fill="#2C3D53"/>
<path d="M392.97 148.867H402.282C404.987 148.867 407.186 146.675 407.186 143.976C407.186 141.278 404.987 139.085 402.282 139.085H392.97C390.264 139.085 388.066 141.278 388.066 143.976C388.066 146.675 390.264 148.867 392.97 148.867Z" fill="#EEF6FF"/>
<path d="M318.825 129.314H334.574C337.279 129.314 339.478 131.506 339.478 134.205C339.478 136.903 337.279 139.096 334.574 139.096H289.823C287.117 139.096 284.918 141.288 284.918 143.987C284.918 146.685 287.117 148.878 289.823 148.878H379.494C382.2 148.878 384.398 146.685 384.398 143.987C384.398 141.288 382.2 139.096 379.494 139.096H358.545C355.839 139.096 353.641 136.903 353.641 134.205C353.641 131.506 355.839 129.314 358.545 129.314H382.834C385.539 129.314 387.738 127.121 387.738 124.423C387.738 121.724 385.539 119.531 382.834 119.531H318.825C316.119 119.531 313.921 121.724 313.921 124.423C313.921 127.121 316.119 129.314 318.825 129.314Z" fill="#EEF6FF"/>
<path d="M281.822 129.314H303.711C306.417 129.314 308.615 127.121 308.615 124.423C308.615 121.724 306.417 119.531 303.711 119.531H281.822C279.116 119.531 276.917 121.724 276.917 124.423C276.917 127.121 279.116 129.314 281.822 129.314Z" fill="#EEF6FF"/>
</g>
<defs>
<clipPath id="clip0_192_813">
<rect width="409" height="213" fill="white"/>
</clipPath>
</defs>
</svg>
