<svg width="344" height="275" viewBox="0 0 344 275" fill="none" xmlns="http://www.w3.org/2000/svg">
<circle cx="190.448" cy="98.1593" r="97.6656" fill="#0C1927"/>
<circle cx="190.448" cy="98.7019" r="62.3975" fill="#102030"/>
<rect x="156.265" y="85.1372" width="68.3659" height="7.59621" fill="#FF6795"/>
<path d="M203.109 76.2751V88.9355H214.503V76.2751C214.503 62.9901 203.733 52.2205 190.448 52.2205C177.163 52.2205 166.394 62.9901 166.394 76.2751V88.9355H177.788V76.2751C177.788 69.283 183.456 63.6148 190.448 63.6148C197.44 63.6148 203.109 69.283 203.109 76.2751Z" fill="#6F85A0"/>
<path fill-rule="evenodd" clip-rule="evenodd" d="M224.631 92.7334H156.265V133.247H224.631V92.7334ZM196.778 111.724C196.778 114.323 195.212 116.557 192.971 117.531L196.778 124.384H184.118L187.925 117.531C185.685 116.557 184.118 114.323 184.118 111.724C184.118 108.228 186.952 105.394 190.448 105.394C193.944 105.394 196.778 108.228 196.778 111.724Z" fill="#E21452"/>
<path d="M87.8991 179.005C77.59 203.421 44.4922 272.872 44.4922 274.5H205.098L271.836 211.56L285.401 140.481C279.975 141.204 267.495 145.907 260.984 158.929C254.473 171.951 249.228 190.037 247.42 197.453L211.609 225.667H136.189C134.562 225.848 130.438 225.45 126.965 222.412C122.625 218.614 120.997 222.412 126.965 176.292C131.74 139.396 113.401 133.427 103.634 135.055C101.826 141.566 96.1464 159.472 87.8991 179.005Z" fill="#2C3D53"/>
<path d="M292.997 149.705C280.517 155.674 256.644 191.484 256.101 193.112L270.208 209.932L316.328 143.737C312.711 143.737 302.981 144.931 292.997 149.705Z" fill="url(#paint0_linear_192_826)"/>
<circle cx="29.2997" cy="139.396" r="29.2997" fill="#E21452"/>
<circle cx="60.7696" cy="49.3265" r="21.7035" fill="#E21452"/>
<circle cx="309.274" cy="71.03" r="34.7256" fill="#E21452"/>
<defs>
<linearGradient id="paint0_linear_192_826" x1="301.423" y1="155.945" x2="254.07" y2="191.026" gradientUnits="userSpaceOnUse">
<stop stop-color="#2C3D53"/>
<stop offset="1" stop-color="#2C3D53" stop-opacity="0"/>
</linearGradient>
</defs>
</svg>
