<svg width="107" height="24" viewBox="0 0 107 24" fill="none" xmlns="http://www.w3.org/2000/svg">
<path d="M41.4844 13.6777C41.4844 14.498 41.3444 15.2467 41.0645 15.9238C40.7845 16.6009 40.4036 17.1836 39.9219 17.6719C39.4401 18.1536 38.8737 18.528 38.2227 18.7949C37.5781 19.0618 36.8848 19.1953 36.1426 19.1953C35.4069 19.1953 34.7135 19.0586 34.0625 18.7852C33.418 18.5117 32.8516 18.1309 32.3633 17.6426C31.8815 17.1543 31.5007 16.5749 31.2207 15.9043C30.9408 15.2272 30.8008 14.485 30.8008 13.6777V4.38086H33.4766V9.26367C33.6198 9.08138 33.7923 8.91862 33.9941 8.77539C34.2025 8.63216 34.4238 8.51497 34.6582 8.42383C34.8991 8.33268 35.1465 8.26432 35.4004 8.21875C35.6543 8.16667 35.9017 8.14062 36.1426 8.14062C36.8848 8.14062 37.5781 8.2806 38.2227 8.56055C38.8737 8.83398 39.4401 9.2181 39.9219 9.71289C40.4036 10.2077 40.7845 10.7936 41.0645 11.4707C41.3444 12.1413 41.4844 12.877 41.4844 13.6777ZM38.7988 13.6777C38.7988 13.2741 38.7272 12.8997 38.584 12.5547C38.4473 12.2031 38.2585 11.9004 38.0176 11.6465C37.7767 11.3926 37.4935 11.194 37.168 11.0508C36.849 10.9076 36.5072 10.8359 36.1426 10.8359C35.778 10.8359 35.4329 10.9173 35.1074 11.0801C34.7884 11.2363 34.5085 11.4479 34.2676 11.7148C34.0267 11.9753 33.8379 12.278 33.7012 12.623C33.5645 12.9616 33.4961 13.3132 33.4961 13.6777C33.4961 14.0814 33.5645 14.4557 33.7012 14.8008C33.8379 15.1458 34.0267 15.4453 34.2676 15.6992C34.5085 15.9531 34.7884 16.1549 35.1074 16.3047C35.4329 16.4479 35.778 16.5195 36.1426 16.5195C36.5072 16.5195 36.849 16.4479 37.168 16.3047C37.4935 16.1549 37.7767 15.9531 38.0176 15.6992C38.2585 15.4453 38.4473 15.1458 38.584 14.8008C38.7272 14.4557 38.7988 14.0814 38.7988 13.6777ZM45.4883 22.9844V20.2988L46.9727 20.3184C47.2331 20.3184 47.4837 20.276 47.7246 20.1914C47.9655 20.1068 48.1868 19.9896 48.3887 19.8398C48.597 19.6901 48.7793 19.5111 48.9355 19.3027C49.0918 19.1009 49.2188 18.8796 49.3164 18.6387C49.0234 18.7624 48.724 18.8861 48.418 19.0098C48.1185 19.1335 47.8158 19.1953 47.5098 19.1953C46.8652 19.1953 46.2598 19.0814 45.6934 18.8535C45.127 18.6257 44.6289 18.3034 44.1992 17.8867C43.776 17.4635 43.4408 16.9525 43.1934 16.3535C42.9525 15.748 42.832 15.071 42.832 14.3223V8.54102H45.4883V14.3223C45.4883 14.6934 45.5404 15.0189 45.6445 15.2988C45.7552 15.5723 45.9017 15.8034 46.084 15.9922C46.2663 16.1745 46.4779 16.3112 46.7188 16.4023C46.9661 16.4935 47.2298 16.5391 47.5098 16.5391C47.7832 16.5391 48.0404 16.4772 48.2812 16.3535C48.5286 16.2233 48.7435 16.054 48.9258 15.8457C49.1081 15.6374 49.2513 15.403 49.3555 15.1426C49.4596 14.8757 49.5117 14.6022 49.5117 14.3223V8.54102H52.1973V17.6816C52.1908 18.4173 52.0475 19.1074 51.7676 19.752C51.4876 20.3965 51.1035 20.9596 50.6152 21.4414C50.1335 21.9232 49.5703 22.304 48.9258 22.584C48.2812 22.8639 47.5911 23.0039 46.8555 23.0039L45.4883 22.9844ZM59.4824 19C58.8379 19 58.2324 18.8796 57.666 18.6387C57.0996 18.3913 56.6016 18.056 56.1719 17.6328C55.7487 17.2031 55.4134 16.7051 55.166 16.1387C54.9251 15.5723 54.8047 14.9668 54.8047 14.3223V11.2168H53.5059V8.56055H54.8047V4.38086H57.4609V8.56055H61.5039V11.2168H57.4609V14.3223C57.4609 14.6022 57.513 14.8659 57.6172 15.1133C57.7214 15.3542 57.8646 15.5658 58.0469 15.748C58.2292 15.9303 58.444 16.0768 58.6914 16.1875C58.9388 16.2917 59.2025 16.3438 59.4824 16.3438H61.5039V19H59.4824ZM68.3722 19.2C67.2655 19.2 66.2855 18.9733 65.4322 18.52C64.5922 18.0533 63.9322 17.42 63.4522 16.62C62.9855 15.8067 62.7522 14.8733 62.7522 13.82C62.7522 12.9933 62.8855 12.24 63.1522 11.56C63.4189 10.88 63.7922 10.2933 64.2722 9.8C64.7522 9.29333 65.3189 8.90667 65.9722 8.64C66.6389 8.36 67.3589 8.22 68.1322 8.22C68.8389 8.22 69.4855 8.35333 70.0722 8.62C70.6722 8.88667 71.1922 9.25333 71.6322 9.72C72.0722 10.1733 72.4055 10.72 72.6322 11.36C72.8722 11.9867 72.9855 12.6733 72.9722 13.42L72.9522 14.3H64.4322L63.9522 12.6H70.8922L70.5922 12.94V12.48C70.5522 12.08 70.4189 11.7267 70.1922 11.42C69.9655 11.1 69.6722 10.8533 69.3122 10.68C68.9655 10.4933 68.5789 10.4 68.1522 10.4C67.4989 10.4 66.9455 10.5267 66.4922 10.78C66.0389 11.02 65.6922 11.38 65.4522 11.86C65.2255 12.34 65.1122 12.9333 65.1122 13.64C65.1122 14.32 65.2522 14.9133 65.5322 15.42C65.8255 15.9267 66.2389 16.32 66.7722 16.6C67.3055 16.88 67.9255 17.02 68.6322 17.02C69.1255 17.02 69.5789 16.94 69.9922 16.78C70.4189 16.62 70.8722 16.3333 71.3522 15.92L72.5522 17.6C72.1922 17.9333 71.7789 18.22 71.3122 18.46C70.8589 18.6867 70.3789 18.8667 69.8722 19C69.3655 19.1333 68.8655 19.2 68.3722 19.2ZM85.1953 13.6777C85.1953 14.498 85.0553 15.2467 84.7754 15.9238C84.4954 16.6009 84.1146 17.1836 83.6328 17.6719C83.151 18.1536 82.5846 18.528 81.9336 18.7949C81.2891 19.0618 80.5957 19.1953 79.8535 19.1953C79.1178 19.1953 78.4245 19.0586 77.7734 18.7852C77.1289 18.5117 76.5625 18.1309 76.0742 17.6426C75.5924 17.1543 75.2116 16.5749 74.9316 15.9043C74.6517 15.2272 74.5117 14.485 74.5117 13.6777V4.38086H77.1875V9.26367C77.3307 9.08138 77.5033 8.91862 77.7051 8.77539C77.9134 8.63216 78.1348 8.51497 78.3691 8.42383C78.61 8.33268 78.8574 8.26432 79.1113 8.21875C79.3652 8.16667 79.6126 8.14062 79.8535 8.14062C80.5957 8.14062 81.2891 8.2806 81.9336 8.56055C82.5846 8.83398 83.151 9.2181 83.6328 9.71289C84.1146 10.2077 84.4954 10.7936 84.7754 11.4707C85.0553 12.1413 85.1953 12.877 85.1953 13.6777ZM82.5098 13.6777C82.5098 13.2741 82.4382 12.8997 82.2949 12.5547C82.1582 12.2031 81.9694 11.9004 81.7285 11.6465C81.4876 11.3926 81.2044 11.194 80.8789 11.0508C80.5599 10.9076 80.2181 10.8359 79.8535 10.8359C79.4889 10.8359 79.1439 10.9173 78.8184 11.0801C78.4993 11.2363 78.2194 11.4479 77.9785 11.7148C77.7376 11.9753 77.5488 12.278 77.4121 12.623C77.2754 12.9616 77.207 13.3132 77.207 13.6777C77.207 14.0814 77.2754 14.4557 77.4121 14.8008C77.5488 15.1458 77.7376 15.4453 77.9785 15.6992C78.2194 15.9531 78.4993 16.1549 78.8184 16.3047C79.1439 16.4479 79.4889 16.5195 79.8535 16.5195C80.2181 16.5195 80.5599 16.4479 80.8789 16.3047C81.2044 16.1549 81.4876 15.9531 81.7285 15.6992C81.9694 15.4453 82.1582 15.1458 82.2949 14.8008C82.4382 14.4557 82.5098 14.0814 82.5098 13.6777ZM92.0441 19.2C90.9374 19.2 89.9574 18.9733 89.1041 18.52C88.2641 18.0533 87.6041 17.42 87.1241 16.62C86.6574 15.8067 86.4241 14.8733 86.4241 13.82C86.4241 12.9933 86.5574 12.24 86.8241 11.56C87.0907 10.88 87.4641 10.2933 87.9441 9.8C88.4241 9.29333 88.9907 8.90667 89.6441 8.64C90.3107 8.36 91.0307 8.22 91.8041 8.22C92.5107 8.22 93.1574 8.35333 93.7441 8.62C94.3441 8.88667 94.8641 9.25333 95.3041 9.72C95.7441 10.1733 96.0774 10.72 96.3041 11.36C96.5441 11.9867 96.6574 12.6733 96.6441 13.42L96.6241 14.3H88.1041L87.6241 12.6H94.5641L94.2641 12.94V12.48C94.2241 12.08 94.0907 11.7267 93.8641 11.42C93.6374 11.1 93.3441 10.8533 92.9841 10.68C92.6374 10.4933 92.2507 10.4 91.8241 10.4C91.1707 10.4 90.6174 10.5267 90.1641 10.78C89.7107 11.02 89.3641 11.38 89.1241 11.86C88.8974 12.34 88.7841 12.9333 88.7841 13.64C88.7841 14.32 88.9241 14.9133 89.2041 15.42C89.4974 15.9267 89.9107 16.32 90.4441 16.6C90.9774 16.88 91.5974 17.02 92.3041 17.02C92.7974 17.02 93.2507 16.94 93.6641 16.78C94.0907 16.62 94.5441 16.3333 95.0241 15.92L96.2241 17.6C95.8641 17.9333 95.4507 18.22 94.9841 18.46C94.5307 18.6867 94.0507 18.8667 93.5441 19C93.0374 19.1333 92.5374 19.2 92.0441 19.2ZM103.643 19C102.998 19 102.393 18.8796 101.826 18.6387C101.26 18.3913 100.762 18.056 100.332 17.6328C99.9089 17.2031 99.5736 16.7051 99.3262 16.1387C99.0853 15.5723 98.9648 14.9668 98.9648 14.3223V11.2168H97.666V8.56055H98.9648V4.38086H101.621V8.56055H105.664V11.2168H101.621V14.3223C101.621 14.6022 101.673 14.8659 101.777 15.1133C101.882 15.3542 102.025 15.5658 102.207 15.748C102.389 15.9303 102.604 16.0768 102.852 16.1875C103.099 16.2917 103.363 16.3438 103.643 16.3438H105.664V19H103.643Z" fill="#EEF6FF"/>
<path d="M12.0002 19.2L16.8002 24H7.2002L12.0002 19.2Z" fill="#E21452"/>
<path d="M24 12.1263L16.991 19.2L12 14.1628L7.00898 19.1999L4.4331e-06 12.1263L12 -4.68254e-05L24 11.9999L24 12.1263Z" fill="#E21452"/>
</svg>
