<svg width="186" height="138" viewBox="0 0 186 138" fill="none" xmlns="http://www.w3.org/2000/svg">
<g clip-path="url(#clip0_192_797)">
<path d="M0 77.5833C0.00648375 82.9961 2.1596 88.1854 5.98706 92.0129C9.81453 95.8403 15.0038 97.9934 20.4167 97.9999H77.5833C82.9962 97.9934 88.1855 95.8403 92.0129 92.0129C95.8404 88.1854 97.9935 82.9961 98 77.5833V40.8333H0V77.5833ZM69.4167 59.2083C70.6281 59.2083 71.8123 59.5675 72.8195 60.2405C73.8268 60.9135 74.6118 61.8701 75.0754 62.9893C75.539 64.1085 75.6603 65.34 75.424 66.5282C75.1876 67.7163 74.6043 68.8077 73.7477 69.6643C72.8911 70.5209 71.7997 71.1042 70.6116 71.3406C69.4235 71.5769 68.1919 71.4556 67.0727 70.992C65.9535 70.5284 64.9969 69.7434 64.3239 68.7361C63.6509 67.7289 63.2917 66.5447 63.2917 65.3333C63.2917 63.7088 63.937 62.1509 65.0856 61.0022C66.2343 59.8536 67.7922 59.2083 69.4167 59.2083ZM49 59.2083C50.2114 59.2083 51.3956 59.5675 52.4029 60.2405C53.4101 60.9135 54.1952 61.8701 54.6588 62.9893C55.1224 64.1085 55.2436 65.34 55.0073 66.5282C54.771 67.7163 54.1876 68.8077 53.331 69.6643C52.4744 70.5209 51.3831 71.1042 50.1949 71.3406C49.0068 71.5769 47.7753 71.4556 46.6561 70.992C45.5369 70.5284 44.5803 69.7434 43.9072 68.7361C43.2342 67.7289 42.875 66.5447 42.875 65.3333C42.875 63.7088 43.5203 62.1509 44.669 61.0022C45.8176 59.8536 47.3756 59.2083 49 59.2083ZM28.5833 59.2083C29.7947 59.2083 30.979 59.5675 31.9862 60.2405C32.9935 60.9135 33.7785 61.8701 34.2421 62.9893C34.7057 64.1085 34.827 65.34 34.5906 66.5282C34.3543 67.7163 33.771 68.8077 32.9144 69.6643C32.0578 70.5209 30.9664 71.1042 29.7783 71.3406C28.5901 71.5769 27.3586 71.4556 26.2394 70.992C25.1202 70.5284 24.1636 69.7434 23.4906 68.7361C22.8176 67.7289 22.4583 66.5447 22.4583 65.3333C22.4583 63.7088 23.1036 62.1509 24.2523 61.0022C25.401 59.8536 26.9589 59.2083 28.5833 59.2083Z" fill="#2C3D53"/>
<path d="M77.5833 8.16667H73.5V4.08333C73.5 3.00037 73.0698 1.96175 72.304 1.19598C71.5383 0.430207 70.4996 0 69.4167 0C68.3337 0 67.2951 0.430207 66.5293 1.19598C65.7635 1.96175 65.3333 3.00037 65.3333 4.08333V8.16667H32.6667V4.08333C32.6667 3.00037 32.2365 1.96175 31.4707 1.19598C30.7049 0.430207 29.6663 0 28.5833 0C27.5004 0 26.4618 0.430207 25.696 1.19598C24.9302 1.96175 24.5 3.00037 24.5 4.08333V8.16667H20.4167C15.0038 8.17315 9.81453 10.3263 5.98706 14.1537C2.1596 17.9812 0.00648375 23.1705 0 28.5833L0 32.6667H98V28.5833C97.9935 23.1705 95.8404 17.9812 92.0129 14.1537C88.1855 10.3263 82.9962 8.17315 77.5833 8.16667Z" fill="#2C3D53"/>
</g>
<g clip-path="url(#clip1_192_797)">
<path d="M124.228 137.59C132.939 137.59 140 130.529 140 121.818C140 113.107 132.939 106.046 124.228 106.046C115.517 106.046 108.456 113.107 108.456 121.818C108.456 130.529 115.517 137.59 124.228 137.59Z" fill="#EEF6FF"/>
<path d="M140 121.818C140 130.531 132.941 137.59 124.228 137.59C117.097 137.59 111.072 132.859 109.121 126.36C111.983 129.272 115.965 131.074 120.371 131.074C129.083 131.074 136.143 124.015 136.143 115.302C136.143 113.72 135.911 112.198 135.477 110.758C138.272 113.603 140 117.508 140 121.815V121.818Z" fill="#A8C6E8"/>
<path d="M181.4 110.512V115.254C181.4 117.77 179.36 119.81 176.844 119.81H71.6141C69.0981 119.81 67.0581 117.77 67.0581 115.254V110.512C67.0581 108.68 68.1561 107.024 69.8441 106.314C72.9081 105.018 75.4361 102.872 77.1981 100.216C78.9601 97.5601 79.9541 94.3921 79.9541 91.0681V68.1941C79.9541 46.1801 96.1161 27.5641 117.16 24.1021C117.096 23.7261 117.066 23.3421 117.066 22.9501C117.066 18.9921 120.272 15.7861 124.23 15.7861C128.188 15.7861 131.394 18.9921 131.394 22.9501C131.394 23.3361 131.362 23.7161 131.302 24.0841C140.696 25.5921 149.102 30.0541 155.538 36.4901C163.55 44.5021 168.506 55.5721 168.506 67.7981V91.0681C168.506 97.7201 172.49 103.726 178.616 106.314C179.462 106.67 180.154 107.26 180.642 107.994C181.126 108.724 181.402 109.598 181.402 110.512H181.4Z" fill="#F2A633"/>
<path d="M181.4 110.512V115.254C181.4 117.77 179.36 119.81 176.844 119.81H74.042L114.34 114.81C137.924 111.884 155.004 90.8119 152.886 67.1419C151.302 49.4259 143.306 36.0439 126.164 24.6679C128.25 18.8239 123.958 16.9339 121.468 16.3339C122.316 15.9819 123.25 15.7839 124.23 15.7839C128.188 15.7839 131.394 18.9899 131.394 22.9479C131.394 23.3339 131.362 23.7139 131.302 24.0819C140.696 25.5899 149.102 30.0519 155.538 36.4879C163.55 44.4999 168.506 55.5699 168.506 67.7959V91.0659C168.506 97.7179 172.49 103.724 178.616 106.312C179.462 106.668 180.154 107.258 180.642 107.992C181.126 108.722 181.402 109.596 181.402 110.51L181.4 110.512Z" fill="#EF7A25"/>
<circle cx="161" cy="36" r="22.5" fill="#E21452" stroke="#0C1927" stroke-width="5"/>
<path d="M167.756 39.541C167.756 40.2943 167.612 41.001 167.324 41.6611C167.036 42.3213 166.643 42.901 166.144 43.4004C165.653 43.8913 165.077 44.2806 164.417 44.5684C163.757 44.8561 163.05 45 162.297 45H155.01V41.3564H162.297C162.551 41.3564 162.788 41.3099 163.008 41.2168C163.228 41.1237 163.418 40.9967 163.579 40.8359C163.748 40.6667 163.88 40.472 163.973 40.252C164.066 40.0319 164.112 39.7949 164.112 39.541C164.112 39.2871 164.066 39.0501 163.973 38.8301C163.88 38.61 163.748 38.4196 163.579 38.2588C163.418 38.0895 163.228 37.9583 163.008 37.8652C162.788 37.7721 162.551 37.7256 162.297 37.7256H157.333V34.082H162.297C162.551 34.082 162.788 34.0355 163.008 33.9424C163.228 33.8493 163.418 33.7223 163.579 33.5615C163.748 33.3923 163.88 33.1976 163.973 32.9775C164.066 32.749 164.112 32.5078 164.112 32.2539C164.112 32 164.066 31.763 163.973 31.543C163.88 31.3229 163.748 31.1325 163.579 30.9717C163.418 30.8024 163.228 30.6712 163.008 30.5781C162.788 30.485 162.551 30.4385 162.297 30.4385H155.01V26.7949H162.297C163.05 26.7949 163.757 26.9388 164.417 27.2266C165.077 27.5143 165.653 27.9079 166.144 28.4072C166.643 28.8981 167.036 29.4736 167.324 30.1338C167.612 30.7939 167.756 31.5007 167.756 32.2539C167.756 32.9225 167.633 33.5742 167.388 34.209C167.142 34.8353 166.795 35.3981 166.347 35.8975C166.795 36.3968 167.142 36.9639 167.388 37.5986C167.633 38.2249 167.756 38.8724 167.756 39.541Z" fill="#EEF6FF"/>
</g>
<defs>
<clipPath id="clip0_192_797">
<rect width="98" height="98" fill="white"/>
</clipPath>
<clipPath id="clip1_192_797">
<rect width="119" height="127" fill="white" transform="translate(67 11)"/>
</clipPath>
</defs>
</svg>
