<svg width="326" height="275" viewBox="0 0 326 275" fill="none" xmlns="http://www.w3.org/2000/svg">
<g clip-path="url(#clip0_196_6842)">
<path d="M107.48 198.244C107.48 198.244 105.276 219.969 92.7784 228.625C80.2799 237.283 69.6365 238.069 69.6365 238.069V251.841H107.48C107.48 251.841 114.575 245.939 120.094 238.462C125.612 230.985 137.833 208.949 137.833 208.949L107.48 198.242V198.244Z" fill="#E21452"/>
<path d="M218.302 198.244C218.302 198.244 220.506 219.969 233.004 228.625C245.502 237.283 256.146 238.069 256.146 238.069V251.841H218.302C218.302 251.841 211.207 245.939 205.688 238.462C200.17 230.985 187.949 208.949 187.949 208.949L218.302 198.242V198.244Z" fill="#E21452"/>
<path d="M101.443 218.284C101.443 218.284 109.728 221.172 113.136 225.043C116.544 228.914 121.73 236.121 121.73 236.121L130.379 222.024L103.733 209.418L101.442 218.286L101.443 218.284Z" fill="#B51042"/>
<path d="M195.435 222.082L200.021 229.773C200.021 229.773 208.102 228.277 215.863 227.01C223.624 225.744 229.806 225.928 229.806 225.928C229.806 225.928 226.477 222.563 224.696 218.949C222.914 215.335 222.045 207.429 222.045 207.429L195.433 222.082H195.435Z" fill="#B51042"/>
<path d="M239.645 195.319C281.975 153.064 281.975 84.5556 239.645 42.3008C197.316 0.0459021 128.686 0.0458996 86.3567 42.3008C44.0272 84.5556 44.0273 153.064 86.3567 195.319C128.686 237.574 197.316 237.574 239.645 195.319Z" fill="#EFAC25"/>
<path d="M79.5603 110.68L56.1392 115.762L79.5603 127.854V110.68Z" fill="#E21452"/>
<path d="M100.681 64.4405L87.0305 41.6328L113.138 53.036L100.681 64.4405Z" fill="#E21452"/>
<path d="M154.526 36.5328C154.526 35.9204 161.118 10.6069 161.118 10.6069L170.889 36.5328H154.526Z" fill="#E21452"/>
<path d="M212.006 53.036C212.578 52.8256 239.728 42.3845 239.728 42.3845L226.736 66.0686L212.006 53.036Z" fill="#E21452"/>
<path d="M245.362 105.236L271.392 112.984L246.439 123.245L245.362 105.236Z" fill="#E21452"/>
<path d="M219.14 180.415L246.439 189L232.789 165.495L219.14 180.415Z" fill="#E21452"/>
<path d="M153.043 202.529C153.043 202.529 162.782 229.73 162.89 228.37C162.999 227.01 172.969 202.529 172.969 202.529H153.043Z" fill="#E21452"/>
<path d="M100.083 172.626C100.75 173.379 86.7498 195.712 86.7498 195.712L113.136 186.615L100.083 172.627V172.626Z" fill="#E21452"/>
<path d="M163 229.347C133.422 229.347 105.614 217.849 84.7 196.971C63.785 176.093 52.2664 148.334 52.2664 118.809C52.2664 89.2836 63.785 61.5247 84.7 40.6465C105.615 19.7684 133.423 8.27002 163 8.27002C192.577 8.27002 220.385 19.7684 241.3 40.6465C262.215 61.5247 273.734 89.2836 273.734 118.809C273.734 148.334 262.215 176.093 241.3 196.971C220.385 217.849 192.577 229.347 163 229.347ZM163 12.9465C104.524 12.9465 56.9498 60.4366 56.9498 118.81C56.9498 177.183 104.524 224.673 163 224.673C221.477 224.673 269.05 177.183 269.05 118.81C269.05 60.4366 221.477 12.9465 163 12.9465Z" fill="#F2D633"/>
<path d="M222 176.688C254.585 144.161 254.585 91.4234 222 58.896C189.415 26.3686 136.585 26.3686 104 58.896C71.4152 91.4233 71.4152 144.161 104 176.688C136.585 209.215 189.415 209.215 222 176.688Z" fill="#E21452"/>
<path d="M163.155 117.794L140.792 37.5498C148.073 35.5278 155.597 34.5027 163.155 34.5027C169.308 34.5027 175.442 35.1821 181.447 36.5287L163.155 117.794Z" fill="#EEF6FF"/>
<path d="M163.154 117.794L185.516 198.039C178.234 200.061 170.712 201.086 163.154 201.086C157.001 201.086 150.867 200.406 144.862 199.06L163.154 117.794Z" fill="#EEF6FF"/>
<path d="M163 117.794L243.386 95.4717C245.412 102.74 246.439 110.25 246.439 117.794C246.439 123.937 245.758 130.06 244.409 136.054L163 117.794Z" fill="#EEF6FF"/>
<path d="M163 117.794L82.614 140.117C80.5884 132.849 79.5615 125.338 79.5615 117.794C79.5615 111.652 80.2421 105.528 81.5912 99.5344L163 117.794Z" fill="#EEF6FF"/>
<path d="M163 117.684L90.3459 76.7281C94.0629 70.1582 98.6564 64.123 104 58.7885C108.351 54.4457 113.171 50.5959 118.37 47.3103L163 117.686V117.684Z" fill="#EEF6FF"/>
<path d="M163 117.684L235.654 158.641C231.937 165.211 227.344 171.245 222 176.58C217.648 180.923 212.83 184.774 207.63 188.059L163 117.683V117.684Z" fill="#EEF6FF"/>
<path d="M162.89 117.794L203.919 45.2681C210.5 48.9785 216.546 53.5639 221.89 58.8983C226.24 63.2412 230.097 68.0517 233.388 73.2427L162.889 117.794H162.89Z" fill="#EEF6FF"/>
<path d="M162.89 117.794L121.862 190.32C115.28 186.61 109.234 182.025 103.89 176.69C99.5398 172.347 95.6833 167.537 92.3918 162.346L162.892 117.794H162.89Z" fill="#EEF6FF"/>
<path d="M163 205.454C140.088 205.454 118.546 196.547 102.344 180.374C86.1418 164.2 77.2192 142.696 77.2192 119.824C77.2192 96.9523 86.1418 75.4484 102.344 59.2749C118.546 43.1014 140.086 34.1946 163 34.1946C185.914 34.1946 207.455 43.1014 223.657 59.2749C239.859 75.4484 248.781 96.951 248.781 119.824C248.781 142.698 239.859 164.2 223.657 180.374C207.455 196.547 185.914 205.454 163 205.454ZM163 38.8711C118.283 38.8711 81.9027 75.1871 81.9027 119.826C81.9027 164.464 118.283 200.78 163 200.78C207.718 200.78 244.098 164.464 244.098 119.826C244.098 75.1871 207.718 38.8711 163 38.8711Z" fill="#F2D633"/>
<path d="M188 119C188 132.806 176.808 144 163 144C149.192 144 138 132.808 138 119C138 105.192 149.194 94 163 94C176.806 94 188 105.192 188 119Z" fill="#F2D633"/>
<path d="M163.222 105.742L165.743 112.819L172.539 109.595L169.308 116.379L176.398 118.896L169.308 121.412L172.539 128.196L165.743 124.972L163.222 132.049L160.701 124.972L153.905 128.196L157.134 121.412L150.044 118.896L157.134 116.379L153.905 109.595L160.701 112.819L163.222 105.742Z" fill="#E21452"/>
<g opacity="0.25">
<path d="M73.5935 244.463C74.6553 244.821 75.8124 244.698 76.9199 244.53C80.1173 244.045 83.2638 243.225 86.2881 242.085C91.3755 240.165 96.4295 236.973 98.4121 231.917C98.7853 230.967 98.7128 229.468 97.6926 229.41C97.0791 229.375 96.6335 229.954 96.2657 230.446C93.8454 233.687 89.9996 235.565 86.1256 236.744C82.4114 237.873 78.2716 238.198 74.654 239.507C72.4458 240.306 69.8055 243.185 73.5922 244.463H73.5935Z" fill="#EEF6FF"/>
</g>
<g opacity="0.25">
<path d="M228.596 234.975C230.864 237.262 233.837 238.753 236.918 239.699C239.998 240.645 243.211 241.077 246.405 241.508C247.913 241.71 249.775 241.758 250.577 240.468C250.749 240.192 250.852 239.857 250.785 239.539C250.604 238.687 249.481 238.521 248.608 238.495C243.594 238.352 238.639 236.598 234.654 233.555C233.369 232.573 231.085 230.572 229.32 230.667C226.686 230.81 227.289 233.654 228.596 234.974V234.975Z" fill="#EEF6FF"/>
</g>
</g>
<rect x="33.3384" y="223.89" width="259.322" height="50.9099" rx="7.95469" fill="#111F2E"/>
<rect x="76.2937" y="245.367" width="63.6374" height="6.36374" rx="3.18187" fill="#1A293A"/>
<circle cx="58.7934" cy="249.345" r="9.54561" fill="#1A293A"/>
<path d="M215.413 243.341L211.226 255.594H208.602L212.046 245.793H206.833V243.341H215.413ZM223.642 249.468C223.642 248.106 223.414 247.095 222.958 246.434C222.508 245.773 221.878 245.443 221.07 245.443C220.266 245.443 219.643 245.77 219.198 246.426C218.754 247.081 218.532 248.095 218.532 249.468C218.532 250.829 218.754 251.84 219.198 252.501C219.643 253.162 220.266 253.492 221.07 253.492C221.474 253.492 221.836 253.413 222.155 253.253C222.474 253.088 222.742 252.84 222.958 252.51C223.18 252.179 223.348 251.763 223.462 251.262C223.582 250.755 223.642 250.157 223.642 249.468ZM225.974 249.468C225.974 250.63 225.846 251.612 225.59 252.416C225.334 253.219 224.983 253.868 224.539 254.364C224.094 254.86 223.573 255.218 222.975 255.441C222.383 255.657 221.747 255.765 221.07 255.765C220.392 255.765 219.754 255.654 219.155 255.432C218.563 255.204 218.045 254.843 217.6 254.347C217.162 253.846 216.814 253.196 216.558 252.399C216.301 251.595 216.173 250.618 216.173 249.468C216.173 248.306 216.301 247.326 216.558 246.528C216.814 245.725 217.162 245.075 217.6 244.58C218.045 244.084 218.563 243.725 219.155 243.503C219.754 243.281 220.392 243.17 221.07 243.17C221.747 243.17 222.383 243.284 222.975 243.512C223.573 243.734 224.094 244.096 224.539 244.597C224.983 245.098 225.334 245.748 225.59 246.545C225.846 247.343 225.974 248.317 225.974 249.468ZM230.64 246.229C230.64 245.722 230.566 245.349 230.418 245.11C230.275 244.865 230.068 244.742 229.794 244.742C229.532 244.742 229.33 244.865 229.187 245.11C229.045 245.349 228.974 245.722 228.974 246.229C228.974 246.73 229.045 247.104 229.187 247.348C229.33 247.593 229.532 247.716 229.794 247.716C230.068 247.716 230.275 247.593 230.418 247.348C230.566 247.104 230.64 246.73 230.64 246.229ZM232.264 246.229C232.264 246.799 232.198 247.283 232.067 247.682C231.942 248.075 231.768 248.394 231.546 248.639C231.324 248.884 231.062 249.06 230.76 249.169C230.463 249.277 230.142 249.331 229.794 249.331C229.452 249.331 229.13 249.274 228.828 249.16C228.532 249.046 228.273 248.867 228.051 248.622C227.829 248.371 227.652 248.049 227.521 247.656C227.396 247.263 227.333 246.787 227.333 246.229C227.333 245.659 227.396 245.178 227.521 244.785C227.652 244.392 227.829 244.073 228.051 243.828C228.273 243.583 228.532 243.406 228.828 243.298C229.13 243.19 229.452 243.136 229.794 243.136C230.142 243.136 230.463 243.193 230.76 243.307C231.062 243.415 231.324 243.591 231.546 243.836C231.768 244.081 231.942 244.4 232.067 244.794C232.198 245.187 232.264 245.665 232.264 246.229ZM230.29 255.594H228.435L235.169 243.341H237.023L230.29 255.594ZM236.434 252.672C236.434 252.159 236.36 251.783 236.211 251.544C236.069 251.305 235.861 251.185 235.588 251.185C235.326 251.185 235.123 251.305 234.981 251.544C234.839 251.783 234.767 252.159 234.767 252.672C234.767 253.168 234.839 253.538 234.981 253.783C235.123 254.022 235.326 254.142 235.588 254.142C235.861 254.142 236.069 254.022 236.211 253.783C236.36 253.538 236.434 253.168 236.434 252.672ZM238.057 252.672C238.057 253.242 237.992 253.723 237.861 254.116C237.735 254.509 237.562 254.828 237.339 255.073C237.117 255.318 236.855 255.495 236.553 255.603C236.257 255.711 235.935 255.765 235.588 255.765C235.246 255.765 234.924 255.708 234.622 255.594C234.326 255.486 234.067 255.31 233.844 255.065C233.622 254.814 233.446 254.492 233.315 254.099C233.189 253.706 233.127 253.23 233.127 252.672C233.127 252.102 233.189 251.621 233.315 251.228C233.446 250.835 233.622 250.516 233.844 250.271C234.067 250.026 234.326 249.849 234.622 249.741C234.924 249.627 235.246 249.57 235.588 249.57C235.935 249.57 236.257 249.627 236.553 249.741C236.855 249.849 237.117 250.029 237.339 250.279C237.562 250.524 237.735 250.843 237.861 251.236C237.992 251.63 238.057 252.108 238.057 252.672ZM247.192 245.793V250.698H249.644C249.98 250.698 250.297 250.635 250.593 250.51C250.889 250.379 251.148 250.203 251.37 249.98C251.593 249.758 251.766 249.499 251.892 249.203C252.023 248.901 252.088 248.582 252.088 248.246C252.088 247.91 252.023 247.593 251.892 247.297C251.766 246.995 251.593 246.733 251.37 246.511C251.148 246.289 250.889 246.115 250.593 245.99C250.297 245.859 249.98 245.793 249.644 245.793H247.192ZM247.192 255.594H244.739V243.341H249.644C250.094 243.341 250.527 243.401 250.943 243.52C251.359 243.634 251.746 243.799 252.105 244.016C252.47 244.227 252.8 244.483 253.097 244.785C253.398 245.081 253.655 245.412 253.866 245.776C254.082 246.141 254.247 246.531 254.361 246.947C254.481 247.363 254.541 247.796 254.541 248.246C254.541 248.667 254.487 249.077 254.378 249.476C254.276 249.875 254.125 250.254 253.925 250.613C253.732 250.972 253.492 251.302 253.208 251.604C252.923 251.906 252.604 252.168 252.251 252.39L253.609 255.594H251.003L249.935 253.125L247.192 253.142V255.594ZM261.078 255.594H258.634V245.793H254.951V243.341H264.752V245.793H261.078V255.594ZM268.503 245.793V250.698H270.956C271.292 250.698 271.608 250.635 271.904 250.51C272.2 250.379 272.46 250.203 272.682 249.98C272.904 249.758 273.078 249.499 273.203 249.203C273.334 248.901 273.4 248.582 273.4 248.246C273.4 247.91 273.334 247.593 273.203 247.297C273.078 246.995 272.904 246.733 272.682 246.511C272.46 246.289 272.2 246.115 271.904 245.99C271.608 245.859 271.292 245.793 270.956 245.793H268.503ZM268.503 255.594H266.051V243.341H270.956C271.406 243.341 271.839 243.401 272.255 243.52C272.67 243.634 273.058 243.799 273.417 244.016C273.781 244.227 274.112 244.483 274.408 244.785C274.71 245.081 274.966 245.412 275.177 245.776C275.393 246.141 275.559 246.531 275.673 246.947C275.792 247.363 275.852 247.796 275.852 248.246C275.852 248.918 275.724 249.553 275.468 250.151C275.211 250.744 274.861 251.262 274.416 251.706C273.972 252.151 273.451 252.501 272.853 252.758C272.26 253.014 271.628 253.142 270.956 253.142H268.503V255.594Z" fill="#1A293A"/>
<rect x="15.5625" y="175" width="294.875" height="57.8896" rx="9.04524" fill="#172637"/>
<rect x="64.4067" y="199.422" width="72.3619" height="7.23619" rx="3.6181" fill="#2C3E52"/>
<circle cx="44.5074" cy="203.945" r="10.8543" fill="#2C3E52"/>
<path d="M223.214 207.011C223.214 207.64 223.071 208.219 222.786 208.751C222.501 209.282 222.109 209.742 221.611 210.13C221.118 210.513 220.542 210.811 219.881 211.024C219.22 211.245 218.514 211.355 217.763 211.355C217.011 211.355 216.305 211.245 215.645 211.024C214.984 210.811 214.404 210.513 213.905 210.13C213.413 209.742 213.024 209.282 212.739 208.751C212.454 208.219 212.312 207.64 212.312 207.011C212.312 206.649 212.36 206.296 212.458 205.952C212.555 205.602 212.694 205.275 212.875 204.971C213.063 204.666 213.287 204.388 213.546 204.135C213.805 203.876 214.096 203.656 214.42 203.474C214.22 203.3 214.038 203.099 213.876 202.872C213.721 202.645 213.585 202.406 213.468 202.153C213.358 201.9 213.274 201.641 213.215 201.376C213.157 201.104 213.128 200.835 213.128 200.569C213.128 200.025 213.248 199.517 213.488 199.044C213.734 198.564 214.067 198.147 214.488 197.79C214.909 197.428 215.402 197.143 215.965 196.935C216.529 196.728 217.128 196.624 217.763 196.624C218.404 196.624 219.007 196.728 219.57 196.935C220.134 197.143 220.626 197.428 221.047 197.79C221.475 198.147 221.808 198.564 222.048 199.044C222.294 199.517 222.417 200.025 222.417 200.569C222.417 200.835 222.385 201.104 222.32 201.376C222.262 201.641 222.177 201.904 222.067 202.163C221.957 202.415 221.821 202.655 221.659 202.882C221.504 203.109 221.326 203.313 221.125 203.494C221.442 203.675 221.73 203.892 221.99 204.145C222.249 204.398 222.469 204.676 222.65 204.981C222.832 205.285 222.971 205.609 223.068 205.952C223.165 206.296 223.214 206.649 223.214 207.011ZM219.687 200.87C219.687 200.644 219.635 200.433 219.531 200.239C219.434 200.038 219.298 199.863 219.123 199.714C218.955 199.565 218.754 199.449 218.521 199.364C218.288 199.28 218.041 199.238 217.782 199.238C217.517 199.238 217.267 199.28 217.034 199.364C216.801 199.449 216.597 199.565 216.422 199.714C216.254 199.863 216.117 200.038 216.014 200.239C215.917 200.433 215.868 200.644 215.868 200.87C215.868 201.097 215.917 201.308 216.014 201.502C216.117 201.696 216.254 201.865 216.422 202.007C216.597 202.15 216.801 202.263 217.034 202.347C217.267 202.432 217.517 202.474 217.782 202.474C218.041 202.474 218.288 202.432 218.521 202.347C218.754 202.263 218.955 202.15 219.123 202.007C219.298 201.865 219.434 201.696 219.531 201.502C219.635 201.308 219.687 201.097 219.687 200.87ZM220.445 206.934C220.445 206.623 220.373 206.334 220.231 206.069C220.095 205.797 219.904 205.56 219.658 205.36C219.418 205.159 219.133 205 218.802 204.883C218.479 204.767 218.132 204.708 217.763 204.708C217.394 204.708 217.047 204.767 216.723 204.883C216.399 205 216.114 205.159 215.868 205.36C215.628 205.56 215.437 205.797 215.295 206.069C215.159 206.334 215.091 206.623 215.091 206.934C215.091 207.245 215.159 207.53 215.295 207.789C215.437 208.048 215.628 208.271 215.868 208.459C216.114 208.647 216.399 208.796 216.723 208.906C217.047 209.01 217.394 209.062 217.763 209.062C218.132 209.062 218.479 209.01 218.802 208.906C219.133 208.796 219.418 208.647 219.658 208.459C219.904 208.271 220.095 208.048 220.231 207.789C220.373 207.53 220.445 207.245 220.445 206.934ZM233.222 204.028C233.222 202.48 232.963 201.33 232.445 200.579C231.933 199.828 231.217 199.452 230.297 199.452C229.384 199.452 228.675 199.824 228.169 200.569C227.664 201.314 227.411 202.467 227.411 204.028C227.411 205.577 227.664 206.726 228.169 207.478C228.675 208.229 229.384 208.605 230.297 208.605C230.757 208.605 231.168 208.514 231.531 208.333C231.894 208.145 232.198 207.863 232.445 207.487C232.697 207.112 232.888 206.639 233.018 206.069C233.154 205.492 233.222 204.812 233.222 204.028ZM235.875 204.028C235.875 205.35 235.729 206.467 235.437 207.381C235.146 208.294 234.747 209.032 234.242 209.596C233.737 210.159 233.144 210.568 232.464 210.82C231.79 211.066 231.068 211.189 230.297 211.189C229.526 211.189 228.801 211.063 228.121 210.811C227.447 210.551 226.858 210.14 226.352 209.576C225.853 209.006 225.458 208.268 225.167 207.361C224.875 206.448 224.73 205.337 224.73 204.028C224.73 202.707 224.875 201.593 225.167 200.686C225.458 199.772 225.853 199.034 226.352 198.47C226.858 197.907 227.447 197.499 228.121 197.246C228.801 196.994 229.526 196.867 230.297 196.867C231.068 196.867 231.79 196.997 232.464 197.256C233.144 197.509 233.737 197.92 234.242 198.49C234.747 199.06 235.146 199.798 235.437 200.705C235.729 201.612 235.875 202.72 235.875 204.028ZM241.18 200.346C241.18 199.769 241.096 199.345 240.927 199.073C240.765 198.794 240.529 198.655 240.218 198.655C239.92 198.655 239.69 198.794 239.528 199.073C239.366 199.345 239.285 199.769 239.285 200.346C239.285 200.916 239.366 201.34 239.528 201.619C239.69 201.897 239.92 202.036 240.218 202.036C240.529 202.036 240.765 201.897 240.927 201.619C241.096 201.34 241.18 200.916 241.18 200.346ZM243.026 200.346C243.026 200.994 242.951 201.544 242.802 201.998C242.66 202.445 242.462 202.807 242.21 203.086C241.957 203.364 241.659 203.565 241.316 203.688C240.979 203.811 240.613 203.873 240.218 203.873C239.829 203.873 239.463 203.808 239.12 203.679C238.783 203.549 238.488 203.345 238.236 203.066C237.983 202.781 237.782 202.415 237.633 201.968C237.491 201.521 237.419 200.981 237.419 200.346C237.419 199.698 237.491 199.151 237.633 198.704C237.782 198.257 237.983 197.894 238.236 197.615C238.488 197.337 238.783 197.136 239.12 197.013C239.463 196.89 239.829 196.828 240.218 196.828C240.613 196.828 240.979 196.893 241.316 197.023C241.659 197.146 241.957 197.347 242.21 197.625C242.462 197.904 242.66 198.266 242.802 198.713C242.951 199.16 243.026 199.704 243.026 200.346ZM240.781 210.995H238.673L246.33 197.062H248.438L240.781 210.995ZM247.768 207.672C247.768 207.089 247.683 206.662 247.515 206.389C247.353 206.117 247.117 205.981 246.806 205.981C246.508 205.981 246.278 206.117 246.116 206.389C245.954 206.662 245.873 207.089 245.873 207.672C245.873 208.236 245.954 208.657 246.116 208.935C246.278 209.207 246.508 209.343 246.806 209.343C247.117 209.343 247.353 209.207 247.515 208.935C247.683 208.657 247.768 208.236 247.768 207.672ZM249.614 207.672C249.614 208.32 249.539 208.867 249.39 209.314C249.248 209.761 249.05 210.124 248.798 210.402C248.545 210.681 248.247 210.882 247.904 211.005C247.567 211.128 247.201 211.189 246.806 211.189C246.417 211.189 246.051 211.125 245.708 210.995C245.371 210.872 245.076 210.671 244.823 210.393C244.571 210.108 244.37 209.742 244.221 209.295C244.079 208.848 244.007 208.307 244.007 207.672C244.007 207.024 244.079 206.477 244.221 206.03C244.37 205.583 244.571 205.22 244.823 204.942C245.076 204.663 245.371 204.462 245.708 204.339C246.051 204.21 246.417 204.145 246.806 204.145C247.201 204.145 247.567 204.21 247.904 204.339C248.247 204.462 248.545 204.666 248.798 204.951C249.05 205.23 249.248 205.593 249.39 206.04C249.539 206.487 249.614 207.031 249.614 207.672ZM260.001 199.85V205.428H262.789C263.172 205.428 263.531 205.356 263.868 205.214C264.205 205.065 264.5 204.864 264.752 204.611C265.005 204.359 265.202 204.064 265.345 203.727C265.494 203.384 265.568 203.021 265.568 202.639C265.568 202.257 265.494 201.897 265.345 201.56C265.202 201.217 265.005 200.919 264.752 200.666C264.5 200.414 264.205 200.216 263.868 200.074C263.531 199.925 263.172 199.85 262.789 199.85H260.001ZM260.001 210.995H257.212V197.062H262.789C263.301 197.062 263.793 197.13 264.266 197.266C264.739 197.395 265.18 197.583 265.588 197.829C266.002 198.069 266.378 198.36 266.715 198.704C267.058 199.04 267.35 199.416 267.589 199.831C267.836 200.245 268.023 200.689 268.153 201.162C268.289 201.635 268.357 202.127 268.357 202.639C268.357 203.118 268.295 203.585 268.172 204.038C268.056 204.491 267.884 204.922 267.657 205.33C267.437 205.738 267.165 206.114 266.841 206.457C266.517 206.801 266.155 207.099 265.753 207.351L267.298 210.995H264.334L263.12 208.187L260.001 208.206V210.995ZM275.79 210.995H273.011V199.85H268.823V197.062H279.968V199.85H275.79V210.995ZM284.234 199.85V205.428H287.023C287.405 205.428 287.764 205.356 288.101 205.214C288.438 205.065 288.733 204.864 288.985 204.611C289.238 204.359 289.435 204.064 289.578 203.727C289.727 203.384 289.801 203.021 289.801 202.639C289.801 202.257 289.727 201.897 289.578 201.56C289.435 201.217 289.238 200.919 288.985 200.666C288.733 200.414 288.438 200.216 288.101 200.074C287.764 199.925 287.405 199.85 287.023 199.85H284.234ZM284.234 210.995H281.445V197.062H287.023C287.534 197.062 288.027 197.13 288.499 197.266C288.972 197.395 289.413 197.583 289.821 197.829C290.235 198.069 290.611 198.36 290.948 198.704C291.291 199.04 291.583 199.416 291.823 199.831C292.069 200.245 292.257 200.689 292.386 201.162C292.522 201.635 292.59 202.127 292.59 202.639C292.59 203.403 292.444 204.126 292.153 204.806C291.861 205.479 291.463 206.069 290.958 206.574C290.452 207.079 289.86 207.478 289.18 207.769C288.506 208.061 287.787 208.206 287.023 208.206H284.234V210.995Z" fill="#2C3E52"/>
<rect y="120" width="326" height="64" rx="10" fill="#2C3D53"/>
<path d="M65.4844 153.678C65.4844 154.498 65.3444 155.247 65.0645 155.924C64.7845 156.601 64.4036 157.184 63.9219 157.672C63.4401 158.154 62.8737 158.528 62.2227 158.795C61.5781 159.062 60.8848 159.195 60.1426 159.195C59.4069 159.195 58.7135 159.059 58.0625 158.785C57.418 158.512 56.8516 158.131 56.3633 157.643C55.8815 157.154 55.5007 156.575 55.2207 155.904C54.9408 155.227 54.8008 154.485 54.8008 153.678V144.381H57.4766V149.264C57.6198 149.081 57.7923 148.919 57.9941 148.775C58.2025 148.632 58.4238 148.515 58.6582 148.424C58.8991 148.333 59.1465 148.264 59.4004 148.219C59.6543 148.167 59.9017 148.141 60.1426 148.141C60.8848 148.141 61.5781 148.281 62.2227 148.561C62.8737 148.834 63.4401 149.218 63.9219 149.713C64.4036 150.208 64.7845 150.794 65.0645 151.471C65.3444 152.141 65.4844 152.877 65.4844 153.678ZM62.7988 153.678C62.7988 153.274 62.7272 152.9 62.584 152.555C62.4473 152.203 62.2585 151.9 62.0176 151.646C61.7767 151.393 61.4935 151.194 61.168 151.051C60.849 150.908 60.5072 150.836 60.1426 150.836C59.778 150.836 59.4329 150.917 59.1074 151.08C58.7884 151.236 58.5085 151.448 58.2676 151.715C58.0267 151.975 57.8379 152.278 57.7012 152.623C57.5645 152.962 57.4961 153.313 57.4961 153.678C57.4961 154.081 57.5645 154.456 57.7012 154.801C57.8379 155.146 58.0267 155.445 58.2676 155.699C58.5085 155.953 58.7884 156.155 59.1074 156.305C59.4329 156.448 59.778 156.52 60.1426 156.52C60.5072 156.52 60.849 156.448 61.168 156.305C61.4935 156.155 61.7767 155.953 62.0176 155.699C62.2585 155.445 62.4473 155.146 62.584 154.801C62.7272 154.456 62.7988 154.081 62.7988 153.678ZM69.4883 162.984V160.299L70.9727 160.318C71.2331 160.318 71.4837 160.276 71.7246 160.191C71.9655 160.107 72.1868 159.99 72.3887 159.84C72.597 159.69 72.7793 159.511 72.9355 159.303C73.0918 159.101 73.2188 158.88 73.3164 158.639C73.0234 158.762 72.724 158.886 72.418 159.01C72.1185 159.133 71.8158 159.195 71.5098 159.195C70.8652 159.195 70.2598 159.081 69.6934 158.854C69.127 158.626 68.6289 158.303 68.1992 157.887C67.776 157.464 67.4408 156.952 67.1934 156.354C66.9525 155.748 66.832 155.071 66.832 154.322V148.541H69.4883V154.322C69.4883 154.693 69.5404 155.019 69.6445 155.299C69.7552 155.572 69.9017 155.803 70.084 155.992C70.2663 156.174 70.4779 156.311 70.7188 156.402C70.9661 156.493 71.2298 156.539 71.5098 156.539C71.7832 156.539 72.0404 156.477 72.2812 156.354C72.5286 156.223 72.7435 156.054 72.9258 155.846C73.1081 155.637 73.2513 155.403 73.3555 155.143C73.4596 154.876 73.5117 154.602 73.5117 154.322V148.541H76.1973V157.682C76.1908 158.417 76.0475 159.107 75.7676 159.752C75.4876 160.396 75.1035 160.96 74.6152 161.441C74.1335 161.923 73.5703 162.304 72.9258 162.584C72.2812 162.864 71.5911 163.004 70.8555 163.004L69.4883 162.984ZM83.4824 159C82.8379 159 82.2324 158.88 81.666 158.639C81.0996 158.391 80.6016 158.056 80.1719 157.633C79.7487 157.203 79.4134 156.705 79.166 156.139C78.9251 155.572 78.8047 154.967 78.8047 154.322V151.217H77.5059V148.561H78.8047V144.381H81.4609V148.561H85.5039V151.217H81.4609V154.322C81.4609 154.602 81.513 154.866 81.6172 155.113C81.7214 155.354 81.8646 155.566 82.0469 155.748C82.2292 155.93 82.444 156.077 82.6914 156.188C82.9388 156.292 83.2025 156.344 83.4824 156.344H85.5039V159H83.4824ZM92.3722 159.2C91.2655 159.2 90.2855 158.973 89.4322 158.52C88.5922 158.053 87.9322 157.42 87.4522 156.62C86.9855 155.807 86.7522 154.873 86.7522 153.82C86.7522 152.993 86.8855 152.24 87.1522 151.56C87.4189 150.88 87.7922 150.293 88.2722 149.8C88.7522 149.293 89.3189 148.907 89.9722 148.64C90.6389 148.36 91.3589 148.22 92.1322 148.22C92.8389 148.22 93.4855 148.353 94.0722 148.62C94.6722 148.887 95.1922 149.253 95.6322 149.72C96.0722 150.173 96.4055 150.72 96.6322 151.36C96.8722 151.987 96.9855 152.673 96.9722 153.42L96.9522 154.3H88.4322L87.9522 152.6H94.8922L94.5922 152.94V152.48C94.5522 152.08 94.4189 151.727 94.1922 151.42C93.9655 151.1 93.6722 150.853 93.3122 150.68C92.9655 150.493 92.5789 150.4 92.1522 150.4C91.4989 150.4 90.9455 150.527 90.4922 150.78C90.0389 151.02 89.6922 151.38 89.4522 151.86C89.2255 152.34 89.1122 152.933 89.1122 153.64C89.1122 154.32 89.2522 154.913 89.5322 155.42C89.8255 155.927 90.2389 156.32 90.7722 156.6C91.3055 156.88 91.9255 157.02 92.6322 157.02C93.1255 157.02 93.5789 156.94 93.9922 156.78C94.4189 156.62 94.8722 156.333 95.3522 155.92L96.5522 157.6C96.1922 157.933 95.7789 158.22 95.3122 158.46C94.8589 158.687 94.3789 158.867 93.8722 159C93.3655 159.133 92.8655 159.2 92.3722 159.2ZM109.195 153.678C109.195 154.498 109.055 155.247 108.775 155.924C108.495 156.601 108.115 157.184 107.633 157.672C107.151 158.154 106.585 158.528 105.934 158.795C105.289 159.062 104.596 159.195 103.854 159.195C103.118 159.195 102.424 159.059 101.773 158.785C101.129 158.512 100.562 158.131 100.074 157.643C99.5924 157.154 99.2116 156.575 98.9316 155.904C98.6517 155.227 98.5117 154.485 98.5117 153.678V144.381H101.188V149.264C101.331 149.081 101.503 148.919 101.705 148.775C101.913 148.632 102.135 148.515 102.369 148.424C102.61 148.333 102.857 148.264 103.111 148.219C103.365 148.167 103.613 148.141 103.854 148.141C104.596 148.141 105.289 148.281 105.934 148.561C106.585 148.834 107.151 149.218 107.633 149.713C108.115 150.208 108.495 150.794 108.775 151.471C109.055 152.141 109.195 152.877 109.195 153.678ZM106.51 153.678C106.51 153.274 106.438 152.9 106.295 152.555C106.158 152.203 105.969 151.9 105.729 151.646C105.488 151.393 105.204 151.194 104.879 151.051C104.56 150.908 104.218 150.836 103.854 150.836C103.489 150.836 103.144 150.917 102.818 151.08C102.499 151.236 102.219 151.448 101.979 151.715C101.738 151.975 101.549 152.278 101.412 152.623C101.275 152.962 101.207 153.313 101.207 153.678C101.207 154.081 101.275 154.456 101.412 154.801C101.549 155.146 101.738 155.445 101.979 155.699C102.219 155.953 102.499 156.155 102.818 156.305C103.144 156.448 103.489 156.52 103.854 156.52C104.218 156.52 104.56 156.448 104.879 156.305C105.204 156.155 105.488 155.953 105.729 155.699C105.969 155.445 106.158 155.146 106.295 154.801C106.438 154.456 106.51 154.081 106.51 153.678ZM116.044 159.2C114.937 159.2 113.957 158.973 113.104 158.52C112.264 158.053 111.604 157.42 111.124 156.62C110.657 155.807 110.424 154.873 110.424 153.82C110.424 152.993 110.557 152.24 110.824 151.56C111.091 150.88 111.464 150.293 111.944 149.8C112.424 149.293 112.991 148.907 113.644 148.64C114.311 148.36 115.031 148.22 115.804 148.22C116.511 148.22 117.157 148.353 117.744 148.62C118.344 148.887 118.864 149.253 119.304 149.72C119.744 150.173 120.077 150.72 120.304 151.36C120.544 151.987 120.657 152.673 120.644 153.42L120.624 154.3H112.104L111.624 152.6H118.564L118.264 152.94V152.48C118.224 152.08 118.091 151.727 117.864 151.42C117.637 151.1 117.344 150.853 116.984 150.68C116.637 150.493 116.251 150.4 115.824 150.4C115.171 150.4 114.617 150.527 114.164 150.78C113.711 151.02 113.364 151.38 113.124 151.86C112.897 152.34 112.784 152.933 112.784 153.64C112.784 154.32 112.924 154.913 113.204 155.42C113.497 155.927 113.911 156.32 114.444 156.6C114.977 156.88 115.597 157.02 116.304 157.02C116.797 157.02 117.251 156.94 117.664 156.78C118.091 156.62 118.544 156.333 119.024 155.92L120.224 157.6C119.864 157.933 119.451 158.22 118.984 158.46C118.531 158.687 118.051 158.867 117.544 159C117.037 159.133 116.537 159.2 116.044 159.2ZM127.643 159C126.998 159 126.393 158.88 125.826 158.639C125.26 158.391 124.762 158.056 124.332 157.633C123.909 157.203 123.574 156.705 123.326 156.139C123.085 155.572 122.965 154.967 122.965 154.322V151.217H121.666V148.561H122.965V144.381H125.621V148.561H129.664V151.217H125.621V154.322C125.621 154.602 125.673 154.866 125.777 155.113C125.882 155.354 126.025 155.566 126.207 155.748C126.389 155.93 126.604 156.077 126.852 156.188C127.099 156.292 127.363 156.344 127.643 156.344H129.664V159H127.643Z" fill="#EEF6FF"/>
<path d="M32 159.2L36.7999 164H27.2L32 159.2Z" fill="#EEF6FF"/>
<path d="M44 152.126L36.991 159.2L32 154.163L27.009 159.2L20 152.126L24.991 147.089L24.9756 147.074L32 140L39.0244 147.074L39.009 147.089L44 152.126Z" fill="#EEF6FF"/>
<path d="M229.43 150.257C229.43 151.245 229.329 152.212 229.129 153.157C228.936 154.095 228.653 154.983 228.28 155.821C227.908 156.659 227.453 157.433 226.916 158.142C226.379 158.851 225.77 159.47 225.09 160H220.933C221.369 159.721 221.792 159.409 222.2 159.065C222.608 158.722 222.995 158.353 223.36 157.959C223.733 157.565 224.076 157.15 224.392 156.713C224.707 156.276 224.986 155.825 225.229 155.359C224.914 155.567 224.578 155.746 224.22 155.896C223.862 156.04 223.493 156.111 223.113 156.111C222.24 156.111 221.455 155.968 220.761 155.682C220.066 155.388 219.472 154.983 218.978 154.468C218.491 153.945 218.115 153.326 217.85 152.609C217.592 151.893 217.463 151.109 217.463 150.257C217.463 149.426 217.61 148.642 217.903 147.904C218.204 147.16 218.616 146.511 219.139 145.96C219.661 145.401 220.281 144.961 220.997 144.639C221.713 144.316 222.49 144.155 223.328 144.155C224.173 144.155 224.965 144.316 225.702 144.639C226.447 144.961 227.095 145.401 227.646 145.96C228.198 146.511 228.631 147.16 228.946 147.904C229.269 148.642 229.43 149.426 229.43 150.257ZM226.132 150.257C226.132 149.863 226.064 149.483 225.928 149.118C225.792 148.753 225.598 148.431 225.348 148.151C225.104 147.872 224.811 147.65 224.467 147.485C224.123 147.321 223.743 147.238 223.328 147.238C222.906 147.238 222.522 147.321 222.179 147.485C221.842 147.643 221.552 147.858 221.309 148.13C221.065 148.402 220.879 148.721 220.75 149.086C220.621 149.451 220.557 149.841 220.557 150.257C220.557 150.665 220.621 151.052 220.75 151.417C220.879 151.775 221.065 152.09 221.309 152.362C221.552 152.634 221.842 152.849 222.179 153.007C222.522 153.164 222.906 153.243 223.328 153.243C223.751 153.243 224.134 153.164 224.478 153.007C224.828 152.849 225.126 152.634 225.369 152.362C225.613 152.09 225.799 151.775 225.928 151.417C226.064 151.052 226.132 150.665 226.132 150.257ZM242.986 150.257C242.986 151.245 242.886 152.212 242.686 153.157C242.492 154.095 242.209 154.983 241.837 155.821C241.465 156.659 241.01 157.433 240.473 158.142C239.936 158.851 239.327 159.47 238.646 160H234.489C234.926 159.721 235.349 159.409 235.757 159.065C236.165 158.722 236.552 158.353 236.917 157.959C237.289 157.565 237.633 157.15 237.948 156.713C238.263 156.276 238.543 155.825 238.786 155.359C238.471 155.567 238.134 155.746 237.776 155.896C237.418 156.04 237.049 156.111 236.67 156.111C235.796 156.111 235.012 155.968 234.317 155.682C233.623 155.388 233.028 154.983 232.534 154.468C232.047 153.945 231.671 153.326 231.406 152.609C231.148 151.893 231.02 151.109 231.02 150.257C231.02 149.426 231.166 148.642 231.46 147.904C231.761 147.16 232.173 146.511 232.695 145.96C233.218 145.401 233.838 144.961 234.554 144.639C235.27 144.316 236.047 144.155 236.885 144.155C237.73 144.155 238.521 144.316 239.259 144.639C240.004 144.961 240.652 145.401 241.203 145.96C241.755 146.511 242.188 147.16 242.503 147.904C242.825 148.642 242.986 149.426 242.986 150.257ZM239.688 150.257C239.688 149.863 239.62 149.483 239.484 149.118C239.348 148.753 239.155 148.431 238.904 148.151C238.661 147.872 238.367 147.65 238.023 147.485C237.68 147.321 237.3 147.238 236.885 147.238C236.462 147.238 236.079 147.321 235.735 147.485C235.399 147.643 235.109 147.858 234.865 148.13C234.622 148.402 234.436 148.721 234.307 149.086C234.178 149.451 234.113 149.841 234.113 150.257C234.113 150.665 234.178 151.052 234.307 151.417C234.436 151.775 234.622 152.09 234.865 152.362C235.109 152.634 235.399 152.849 235.735 153.007C236.079 153.164 236.462 153.243 236.885 153.243C237.307 153.243 237.69 153.164 238.034 153.007C238.385 152.849 238.682 152.634 238.926 152.362C239.169 152.09 239.355 151.775 239.484 151.417C239.62 151.052 239.688 150.665 239.688 150.257ZM248.776 148.227C248.776 147.589 248.683 147.12 248.497 146.819C248.318 146.511 248.057 146.357 247.713 146.357C247.383 146.357 247.129 146.511 246.95 146.819C246.771 147.12 246.682 147.589 246.682 148.227C246.682 148.857 246.771 149.326 246.95 149.634C247.129 149.942 247.383 150.096 247.713 150.096C248.057 150.096 248.318 149.942 248.497 149.634C248.683 149.326 248.776 148.857 248.776 148.227ZM250.817 148.227C250.817 148.943 250.735 149.551 250.57 150.053C250.413 150.547 250.194 150.948 249.915 151.256C249.636 151.564 249.306 151.786 248.927 151.922C248.554 152.058 248.15 152.126 247.713 152.126C247.283 152.126 246.879 152.054 246.499 151.911C246.127 151.768 245.801 151.542 245.521 151.234C245.242 150.919 245.02 150.515 244.855 150.021C244.698 149.526 244.619 148.928 244.619 148.227C244.619 147.51 244.698 146.905 244.855 146.411C245.02 145.917 245.242 145.516 245.521 145.208C245.801 144.9 246.127 144.678 246.499 144.542C246.879 144.406 247.283 144.338 247.713 144.338C248.15 144.338 248.554 144.41 248.927 144.553C249.306 144.689 249.636 144.911 249.915 145.219C250.194 145.527 250.413 145.928 250.57 146.422C250.735 146.916 250.817 147.518 250.817 148.227ZM248.336 160H246.005L254.47 144.596H256.801L248.336 160ZM256.06 156.326C256.06 155.682 255.966 155.209 255.78 154.908C255.601 154.607 255.34 154.457 254.996 154.457C254.667 154.457 254.412 154.607 254.233 154.908C254.054 155.209 253.965 155.682 253.965 156.326C253.965 156.949 254.054 157.415 254.233 157.723C254.412 158.023 254.667 158.174 254.996 158.174C255.34 158.174 255.601 158.023 255.78 157.723C255.966 157.415 256.06 156.949 256.06 156.326ZM258.101 156.326C258.101 157.042 258.018 157.647 257.854 158.142C257.696 158.636 257.478 159.037 257.198 159.345C256.919 159.653 256.59 159.875 256.21 160.011C255.838 160.147 255.433 160.215 254.996 160.215C254.566 160.215 254.162 160.143 253.782 160C253.41 159.864 253.084 159.642 252.805 159.334C252.525 159.019 252.303 158.614 252.139 158.12C251.981 157.626 251.902 157.028 251.902 156.326C251.902 155.61 251.981 155.005 252.139 154.511C252.303 154.017 252.525 153.616 252.805 153.308C253.084 153 253.41 152.778 253.782 152.642C254.162 152.498 254.566 152.427 254.996 152.427C255.433 152.427 255.838 152.498 256.21 152.642C256.59 152.778 256.919 153.003 257.198 153.318C257.478 153.626 257.696 154.027 257.854 154.521C258.018 155.016 258.101 155.617 258.101 156.326ZM269.584 147.679V153.845H272.667C273.09 153.845 273.487 153.766 273.859 153.608C274.232 153.444 274.558 153.222 274.837 152.942C275.116 152.663 275.335 152.337 275.492 151.965C275.657 151.585 275.739 151.184 275.739 150.762C275.739 150.339 275.657 149.942 275.492 149.569C275.335 149.19 275.116 148.86 274.837 148.581C274.558 148.302 274.232 148.083 273.859 147.926C273.487 147.761 273.09 147.679 272.667 147.679H269.584ZM269.584 160H266.501V144.596H272.667C273.233 144.596 273.777 144.671 274.3 144.821C274.823 144.965 275.31 145.172 275.761 145.444C276.219 145.709 276.634 146.032 277.007 146.411C277.386 146.784 277.709 147.199 277.974 147.657C278.246 148.116 278.453 148.606 278.597 149.129C278.747 149.652 278.822 150.196 278.822 150.762C278.822 151.292 278.754 151.807 278.618 152.309C278.489 152.81 278.299 153.286 278.049 153.737C277.805 154.188 277.505 154.604 277.146 154.983C276.788 155.363 276.387 155.692 275.943 155.972L277.651 160H274.375L273.032 156.896L269.584 156.917V160ZM287.04 160H283.968V147.679H279.338V144.596H291.659V147.679H287.04V160ZM296.375 147.679V153.845H299.458C299.881 153.845 300.278 153.766 300.65 153.608C301.023 153.444 301.349 153.222 301.628 152.942C301.907 152.663 302.126 152.337 302.283 151.965C302.448 151.585 302.53 151.184 302.53 150.762C302.53 150.339 302.448 149.942 302.283 149.569C302.126 149.19 301.907 148.86 301.628 148.581C301.349 148.302 301.023 148.083 300.65 147.926C300.278 147.761 299.881 147.679 299.458 147.679H296.375ZM296.375 160H293.292V144.596H299.458C300.024 144.596 300.568 144.671 301.091 144.821C301.614 144.965 302.101 145.172 302.552 145.444C303.01 145.709 303.425 146.032 303.798 146.411C304.177 146.784 304.5 147.199 304.765 147.657C305.037 148.116 305.244 148.606 305.388 149.129C305.538 149.652 305.613 150.196 305.613 150.762C305.613 151.607 305.452 152.405 305.13 153.157C304.808 153.902 304.367 154.554 303.809 155.112C303.25 155.671 302.595 156.111 301.843 156.434C301.098 156.756 300.303 156.917 299.458 156.917H296.375V160Z" fill="#6F85A0"/>
<defs>
<clipPath id="clip0_196_6842">
<rect width="236" height="252" fill="white" transform="translate(45)"/>
</clipPath>
</defs>
</svg>
