<svg width="266" height="225" viewBox="0 0 266 225" fill="none" xmlns="http://www.w3.org/2000/svg">
<g clip-path="url(#clip0_192_741)">
<path fill-rule="evenodd" clip-rule="evenodd" d="M205.228 38.5325C194.992 38.5325 185.592 42.1105 178.211 48.084C172.802 40.1837 163.715 35 153.417 35C137.826 35 125.011 46.8824 123.533 62.0851C100.002 62.3246 81 81.4743 81 105.062C81 122.293 91.1399 137.156 105.778 144.008C107.059 175.066 132.642 199.852 164.015 199.852C172.78 199.852 181.093 197.917 188.55 194.452C195.757 201.439 205.583 205.74 216.414 205.74C236.491 205.74 253.117 190.961 256.005 171.689C267.567 164.668 275.29 151.958 275.29 137.444C275.29 129.697 273.09 122.465 269.281 116.337C275.803 111.275 280 103.36 280 94.4645C280 79.1819 267.611 66.7929 252.328 66.7929C250.111 66.7929 247.954 67.0538 245.887 67.5465C240.09 50.6651 224.076 38.5325 205.228 38.5325Z" fill="url(#paint0_linear_192_741)"/>
<path d="M200.934 136.43L202.39 134.796L203.748 132.842L204.907 130.706L205.797 128.522L206.362 126.451L206.55 124.631L206.72 122.713L207.331 123.045L207.896 124.022L208.088 125.471L207.89 127.286L207.335 129.363L206.442 131.534L205.277 133.681L203.918 135.631L202.471 137.267L201.016 138.474L199.662 139.165L198.492 139.299L197.768 138.942L199.483 137.636L200.934 136.43Z" fill="#5D85B5"/>
<path d="M196.938 137.967L200.442 132.92L203.446 127.391L205.751 121.762L207.2 116.415L207.696 111.707L206.753 122.34L206.72 122.713L206.55 124.631L206.362 126.451L205.797 128.522L204.907 130.706L203.748 132.842L202.39 134.796L200.934 136.43L199.483 137.636L197.768 138.942L197.438 139.193L196.969 139.549L196.121 138.891L196.938 137.967Z" fill="#5D85B5"/>
<path d="M197.438 139.193L197.768 138.942L198.492 139.299L199.662 139.166L201.016 138.474L202.471 137.267L203.918 135.631L205.276 133.681L206.441 131.535L207.334 129.363L207.89 127.286L208.087 125.471L207.896 124.022L207.33 123.045L206.72 122.713L206.753 122.341L209.923 121.474L211.545 121.287L216.011 121.296L219.826 122.673L221.337 123.413L224.532 125.926L225.437 127.501L225.751 129.836L225.438 132.785L224.534 136.127L223.092 139.651L221.206 143.11L219.013 146.272L216.668 148.91L214.317 150.86L212.607 151.738L197.733 140.153L197.438 139.193Z" fill="#EEF6FF"/>
<path d="M171.475 135.752L155.23 117.373L170.154 124.836L193.236 135.432L194.001 136.865L194.355 137.518L196.121 138.891L196.969 139.549L197.733 140.153L212.607 151.738L227.523 163.35L228.171 165.417L227.272 165.717L171.475 135.752Z" fill="#435E7F"/>
<path d="M162.839 73.8622L184.861 60.6035L185.841 60.7474L163.518 74.1933L162.839 73.8622Z" fill="#435E7F"/>
<path d="M171.475 135.752L227.272 165.717L228.171 165.417L226.825 167.128L225.929 167.437L187.02 146.537L170.136 137.47L171.475 135.752Z" fill="#5D85B5"/>
<path d="M154.66 118.342L155.23 117.373L171.475 135.752L170.136 137.47L158.283 124.062L153.888 119.084L154.66 118.342Z" fill="#6F98CA"/>
<path d="M170.154 124.836L155.23 117.373L154.66 118.342L153.888 119.084L158.283 124.062L152.163 121.085L152.146 120.128L154.033 118.027L155.756 115.509L156.908 115.021L171.669 122.643L194.757 133.913L194.832 135.642L194.001 136.865L193.236 135.432L170.154 124.836Z" fill="#F14A7C"/>
<path d="M164.543 74.7953L163.518 74.1934L185.841 60.7475L241.31 92.3913L241.694 94.7509L239.935 98.4288L201.768 98.4889L199.801 101.184L178.905 84.4998L164.543 74.7953Z" fill="#435E7F"/>
<path d="M33.4049 38.4564L33.5847 37.7713L33.404 37.4477L40.2394 41.1784L40.4281 41.4997L40.2363 42.1881L39.7905 42.8377L39.2283 43.0055L32.501 39.3271L32.953 39.0991L33.4049 38.4564Z" fill="#EEF6FF"/>
<path d="M40.2364 42.188L40.4282 41.4996L40.2395 41.1783L42.1472 40.6072L45.7532 42.3216L46.0965 42.4862L46.5763 43.3195L46.0925 45.1037L44.9347 46.782L43.7636 47.3737L43.1784 47.0089L40.0263 45.0575L39.5816 44.2917L39.2284 43.0054L39.7906 42.8377L40.2364 42.188Z" fill="#5D85B5"/>
<path d="M180.438 146.608L191.354 159.951L188.962 161.571L186.662 161.665L129.98 131.574L130.128 127.66L151.949 137.025L180.438 146.608Z" fill="#435E7F"/>
<path d="M53.894 68.3317L56.4613 67.0153L59.2296 64.7259L61.9881 61.6182L64.5672 57.9045L66.7708 53.8426L68.4672 49.707L69.533 45.7703L69.8986 42.3162L69.5348 39.5706L68.4699 37.7183L66.7731 36.8904C66.7731 36.8904 83.0615 37.9256 88.4023 38.9186C93.4909 39.8638 103.455 42.7945 108.332 44.5276C113.142 46.2358 122.457 50.4475 127.067 52.6369C127.861 53.0142 129.437 53.7761 130.216 54.1787C136.063 57.2037 153.333 66.8002 153.333 66.8002L155.319 70.2397L155.997 75.3551L155.317 81.7836L153.333 89.1045L150.176 96.8038L146.069 104.36L141.277 111.27L136.142 117.045L131.007 121.303L126.217 123.753L122.111 124.225L118.96 122.692C118.96 122.692 101.47 113.488 95.843 110.071C91.478 107.423 82.927 101.805 78.8916 98.6791C74.7962 95.5054 66.9503 88.6894 63.4027 84.9115C59.6767 80.9463 49.9898 67.7703 49.9898 67.7703L51.6845 68.5903L53.8921 68.3408L53.894 68.3317ZM144.263 78.9353L145.398 80.0121L146.887 80.4128L148.286 80.209L149.769 78.7556L149.997 76.4798L149.399 74.7118L148.398 73.21L147.076 72.1835L145.62 71.6801L144.457 71.889L143.538 72.7509L143.134 74.0178L143.083 75.1046L143.398 77.3802L144.263 78.9353ZM129.095 70.6228L130.329 71.8141L131.386 72.168L132.147 72.2032L133.166 71.8235L134.046 71.2156L134.582 70.4563L134.861 69.6122L134.86 67.9023L134.284 66.0388L133.336 64.5912L132.753 63.9479L132.126 63.5557L130.611 63.1835L129.361 63.48L128.359 64.4625L127.933 65.6497L127.941 67.1311L128.261 69.2043L129.09 70.6199L129.095 70.6228ZM112.031 62.4503L112.341 63.1753L112.707 63.8383L114.13 65.0645L115.515 65.3988L117.075 64.9038L117.928 64.1792L118.789 62.7814L118.865 60.7646L118.236 58.8809L117.337 57.5828L115.966 56.522L114.525 56.1385L113.573 56.2397L112.298 57.3039L111.699 58.8026L111.652 59.5206L111.6 60.7786L111.966 62.2881L112.345 63.1743L112.035 62.4492L112.031 62.4503Z" fill="#EEF6FF"/>
<path d="M32.5061 38.3254L32.952 37.6758L33.4039 37.4478L33.5847 37.7714L33.4049 38.4565L32.9529 39.0992L32.5009 39.3272L32.3184 39.0128L32.5061 38.3254Z" fill="#EEF6FF"/>
<path d="M44.9346 46.7821L46.0924 45.1038L46.5763 43.3196L46.0964 42.4862L45.7491 42.3228L46.1198 41.967L46.9526 41.2778L48.4375 40.4054C48.4375 40.4054 49.2167 39.9785 49.4903 39.8667C50.2573 39.5543 51.8553 39.0877 52.6581 38.8768C54.1611 38.4869 57.2078 37.8587 58.7443 37.6095C59.1868 37.5379 60.5239 37.4062 60.5239 37.4062L66.773 36.8904L68.4698 37.7183L69.5348 39.5706L69.8985 42.3162L69.5329 45.7703L68.4671 49.707L66.7707 53.8426L64.5671 57.9046L61.988 61.6183L59.2295 64.7259L56.4612 67.0153L53.8939 68.3317L51.6863 68.5812L49.9916 67.7613L48.9266 65.909C48.9266 65.909 46.7931 62.0472 46.1906 60.708C45.5475 59.2813 44.4632 56.3355 43.9823 54.844C43.7255 54.0449 43.2785 52.4246 43.1144 51.605C43.0577 51.3295 42.9842 50.7677 42.9644 50.4866C42.928 50.0474 42.9107 48.7225 42.9107 48.7225L43.0214 47.6838L43.1834 47.0119L43.7686 47.3767L44.9396 46.7851L44.9346 46.7821Z" fill="#E21452"/>
<path d="M143.109 74.5329L143.082 75.1004L143.133 74.0136L143.538 72.7507L144.457 71.8887L145.624 71.6788L147.076 72.1833L148.402 73.2088L149.403 74.7105L150.001 76.4785L149.773 78.7543L148.29 80.2077L146.891 80.4115L145.398 80.0119L144.471 79.1189L145.398 80.0119L144.263 78.9351L143.398 77.38L143.082 75.1004L143.109 74.5329Z" fill="#435E7F"/>
<path d="M191.719 158.091L191.354 159.951L180.438 146.608L182.998 147.435L191.719 158.091Z" fill="#5D85B5"/>
<path d="M111.6 60.7786L111.653 59.5245L111.699 58.8025L112.303 57.3068L113.578 56.2426L114.53 56.1414L115.967 56.5259L117.341 57.5857L118.241 58.8838L118.869 60.7675L118.794 62.7842L117.932 64.1781L117.08 64.9066L115.52 65.4017L114.135 65.0674L112.706 63.8383L112.345 63.1742L111.967 62.292L111.6 60.7786Z" fill="#435E7F"/>
<path d="M130.611 63.1836L132.126 63.5558L131.436 63.3901L130.611 63.1836Z" fill="#F29100"/>
<path d="M127.933 65.6498L128.359 64.4626L129.361 63.4801L130.611 63.1836L131.436 63.3901L132.126 63.5558L132.753 63.9479L133.336 64.5912L134.284 66.0388L134.86 67.9023L134.861 69.6122L134.636 70.2882L134.861 69.6122L134.582 70.4564L134.046 71.2157L133.166 71.8235L132.151 72.2022L131.386 72.168L130.329 71.8141L129.095 70.6228L128.261 69.2044L127.941 67.1312L127.933 65.6498Z" fill="#435E7F"/>
<path d="M151.964 119.642L153.849 117.551L155.574 115.019L156.72 114.541L171.483 122.155L194.564 133.43L194.757 133.913L171.669 122.643L156.908 115.021L155.756 115.509L154.033 118.027L152.146 120.128L152.163 121.085L151.977 120.6L151.964 119.642Z" fill="#F14A7C"/>
<path d="M126.22 123.748L131.011 121.302L136.145 117.04L141.281 111.269L146.073 104.359L150.179 96.8026L153.337 89.1033L155.321 81.7824L156.001 75.3539L155.318 70.2356L153.333 66.8L162.14 72.7514L163.641 73.7729L164.559 74.3906L180.235 84.9956L200.838 101.51L201.23 101.824L205.754 105.451L207.207 107.969L207.696 111.707L207.2 116.415L205.751 121.762L203.446 127.391L200.442 132.92L196.938 137.967L196.121 138.891L194.355 137.518L194.001 136.865L194.831 135.641L194.757 133.913L194.564 133.43L171.483 122.154L156.72 114.541L155.574 115.019L153.849 117.551L151.964 119.642L151.977 120.6L152.163 121.085L158.283 124.062L170.136 137.47L187.02 146.537L185.931 147.099L182.998 147.435L180.438 146.608L151.949 137.025L130.128 127.66L122.114 124.22L126.22 123.748Z" fill="#E21452"/>
<g style="mix-blend-mode:difference" opacity="0.2">
<path d="M202.128 137.551L201.914 137.728C201.873 137.654 201.832 137.579 201.793 137.5C201.905 137.517 202.014 137.539 202.128 137.551Z" fill="#435E7F"/>
<path d="M200.164 137.068C200.435 137.265 200.718 137.442 201.001 137.622C200.719 137.446 200.435 137.265 200.164 137.068L200.168 137.067C200.689 137.27 201.236 137.414 201.791 137.505C201.828 137.58 201.869 137.655 201.912 137.733L201.013 138.478L199.658 139.166L198.488 139.3L197.764 138.943L199.479 137.637L200.161 137.069L200.164 137.068Z" fill="#435E7F"/>
<path d="M198.465 135.767C198.648 135.812 198.828 135.862 199.007 135.908C199.124 136.09 199.257 136.264 199.405 136.421C199.631 136.656 199.883 136.862 200.147 137.052C200.023 137.004 199.894 136.953 199.773 136.9C199.895 136.957 200.023 137.004 200.147 137.052C200.152 137.055 200.158 137.061 200.164 137.064L199.482 137.632L197.767 138.938L197.437 139.189L196.965 139.55L196.121 138.891L196.938 137.967L198.462 135.772L198.465 135.767Z" fill="#5D85B5"/>
<path d="M200.148 137.056C200.148 137.056 200.162 137.061 200.173 137.067L200.169 137.068C200.169 137.068 200.158 137.062 200.152 137.055L200.148 137.056Z" fill="#5D85B5"/>
<path d="M198.737 135.377C198.808 135.564 198.898 135.741 199.008 135.912C198.825 135.867 198.645 135.817 198.465 135.771L198.737 135.377Z" fill="#5D85B5"/>
<path d="M163.857 73.1933L163.179 72.8621L167.166 70.464C167.33 70.6125 167.494 70.761 167.664 70.9034L163.862 73.1962L163.857 73.1933Z" fill="#5D85B5"/>
<path d="M164.543 74.7952L163.518 74.1934L167.32 71.9006C175.038 78.4603 185.976 80.7024 196.253 80.5095C203.141 80.3826 209.959 79.3423 216.791 78.401L241.308 92.3873L241.693 94.7469L239.939 98.4277L201.767 98.4848L199.8 101.179L178.904 84.4957L164.543 74.7952Z" fill="#435E7F"/>
<path d="M40.1514 42.3176C40.2212 42.4186 40.295 42.5185 40.3648 42.6195C40.7054 43.0926 41.0488 43.5607 41.3893 44.0338C41.6816 44.4385 41.9779 44.8423 42.2713 45.251C41.979 44.8462 41.6827 44.4425 41.3893 44.0338C41.9824 44.3964 42.5716 44.7601 43.1647 45.1228C43.8499 45.542 44.541 45.9511 45.2426 46.336L44.9306 46.783L43.7595 47.3747L43.1744 47.0099L40.0262 45.0574L39.5816 44.2916L39.2283 43.0053L39.7905 42.8375L40.1514 42.3176Z" fill="#5D85B5"/>
<path d="M180.438 146.608L191.354 159.951L188.962 161.57L186.661 161.665L129.98 131.573L130.128 127.66L151.949 137.025L180.438 146.608Z" fill="#435E7F"/>
<path d="M45.7622 46.6156C45.5884 46.5254 45.4175 46.4301 45.2426 46.3359L45.6035 45.8159C45.6501 46.0856 45.7047 46.3531 45.7633 46.6196L45.7622 46.6156Z" fill="#E21452"/>
<path d="M44.9344 46.7819L45.2465 46.3349C45.4174 46.4302 45.5923 46.5244 45.7661 46.6146C46.3065 48.9666 47.399 51.2091 48.7719 53.2055C50.6993 56.0109 53.1519 58.4149 55.5851 60.7941C56.853 62.0319 58.1362 63.2785 59.4663 64.4612L59.2304 64.7296L56.4621 67.0191L53.8948 68.3355L51.6872 68.585L49.9925 67.765L48.9276 65.9127C48.9276 65.9127 46.7941 62.0509 46.1915 60.7117C45.5485 59.2851 44.4641 56.3392 43.9833 54.8477C43.7264 54.0487 43.2794 52.4284 43.1154 51.6087C43.0586 51.3332 42.9851 50.7715 42.9653 50.4903C42.9289 50.0512 42.9116 48.7262 42.9116 48.7262L43.0224 47.6875L43.1844 47.0157L43.7695 47.3805L44.9406 46.7888L44.9344 46.7819Z" fill="#E21452"/>
<path d="M148.289 80.2076L147.804 80.2779C148.285 77.9728 147.797 75.4657 146.419 73.5476C145.91 72.8419 145.268 72.2016 144.457 71.8887L145.619 71.6758L147.075 72.1792L148.397 73.2058L149.398 74.7075L149.996 76.4755L149.768 78.7513L148.284 80.2047L148.289 80.2076Z" fill="#435E7F"/>
<path d="M182.998 147.435L191.719 158.091L191.354 159.951L180.438 146.608L182.998 147.435Z" fill="#5D85B5"/>
<path d="M117.932 64.1779L117.079 64.9025L116.979 64.9292C117.069 63.7978 116.94 62.644 116.669 61.5366C116.172 59.5065 115.118 57.4717 113.302 56.4704L113.577 56.2384L114.529 56.1372L115.97 56.5207L117.34 57.5815L118.24 58.8797L118.868 60.7633L118.793 62.7801L117.932 64.1779Z" fill="#435E7F"/>
<path d="M130.611 63.1831L132.126 63.5553L131.436 63.3896L130.611 63.1831Z" fill="#F29100"/>
<path d="M134.861 69.612L134.582 70.4561L134.046 71.2154L133.166 71.8233L133.033 71.8716C133.212 70.4301 133 68.9221 132.534 67.5335C132.163 66.4228 131.629 65.3389 130.791 64.5246C130.362 64.1051 129.845 63.7692 129.283 63.5563L129.361 63.4798L130.611 63.1833L131.436 63.3898L132.126 63.5555L132.753 63.9477L133.336 64.591L134.284 66.0385L134.86 67.9021L134.861 69.612Z" fill="#435E7F"/>
<path d="M131.011 121.301L136.146 117.044L139.53 113.238C144.137 115.052 148.644 116.825 152.913 118.588L151.964 119.642L151.981 120.599L152.167 121.084L158.287 124.061L170.141 137.473L187.028 146.535L185.936 147.101L183.003 147.438L180.443 146.611L151.958 137.027L130.133 127.663L122.119 124.223L126.225 123.751L131.015 121.3L131.011 121.301Z" fill="#E21452"/>
<path d="M194.794 134.736C196.009 135.108 197.234 135.451 198.465 135.767L196.941 137.962L196.124 138.886L194.357 137.509L194.003 136.859L194.834 135.636L194.793 134.732L194.794 134.736Z" fill="#E21452"/>
</g>
<path d="M53.8938 68.3316L56.4611 67.0152L59.2294 64.7258L59.4653 64.4574C60.8218 65.6587 62.2323 66.7899 63.7274 67.7745C75.0708 78.3091 87.4405 87.7436 100.738 95.6639C112.067 102.41 126.196 107.992 139.525 113.236L136.141 117.041L131.006 121.299L126.216 123.749L122.11 124.221L118.958 122.688C118.958 122.688 101.469 113.484 95.8418 110.067C91.4768 107.419 82.9258 101.801 78.8904 98.675C74.795 95.5013 66.9491 88.6853 63.4015 84.9074C59.6755 80.9422 49.9886 67.7662 49.9886 67.7662L51.6833 68.5862L53.8909 68.3367L53.8938 68.3316Z" fill="#A8C6E8"/>
<path d="M197.438 139.193L197.768 138.942L198.492 139.299L199.662 139.165L201.017 138.478L201.916 137.732C202.778 139.369 204.118 140.75 205.506 142.003C208.713 144.893 212.287 147.369 216.11 149.38L214.319 150.864L212.612 151.741L197.738 140.155L197.442 139.192L197.438 139.193Z" fill="#A8C6E8"/>
</g>
<defs>
<linearGradient id="paint0_linear_192_741" x1="130.25" y1="66.4896" x2="257.75" y2="187.49" gradientUnits="userSpaceOnUse">
<stop stop-color="#2C3D53"/>
<stop offset="1" stop-color="#2C3D53" stop-opacity="0"/>
</linearGradient>
<clipPath id="clip0_192_741">
<rect width="266" height="225" fill="white" transform="matrix(-1 0 0 1 266 0)"/>
</clipPath>
</defs>
</svg>
