<svg width="484" height="222" viewBox="0 0 484 222" fill="none" xmlns="http://www.w3.org/2000/svg">
<g opacity="0.3">
<path d="M40.3051 151.136H120.915V231.746H40.3051V151.136Z" fill="url(#paint0_linear_196_6843)"/>
<path d="M120.915 70.5253V151.135H201.526V70.5253H120.915Z" fill="url(#paint1_linear_196_6843)"/>
<path d="M201.526 -10.0849H282.136V70.5253H201.526V-10.0849Z" fill="url(#paint2_linear_196_6843)"/>
<path d="M282.136 -90.695H362.746V-10.0848H282.136V-90.695Z" fill="url(#paint3_linear_196_6843)"/>
</g>
<g opacity="0.3">
<path d="M120.915 231.746H201.525V312.356H120.915V231.746Z" fill="url(#paint4_linear_196_6843)"/>
<path d="M201.525 151.135V231.746H282.136V151.135H201.525Z" fill="url(#paint5_linear_196_6843)"/>
<path d="M282.136 70.5252H362.746V151.135H282.136V70.5252Z" fill="url(#paint6_linear_196_6843)"/>
<path d="M362.746 -10.0849H443.356V70.5253H362.746V-10.0849Z" fill="url(#paint7_linear_196_6843)"/>
</g>
<path d="M447.194 40.504L452.636 60.8139C461.474 93.7975 441.906 127.709 408.939 136.542L400.579 138.782L407.291 126.726C434.396 118.941 450.407 90.7281 443.078 63.3749L438.917 47.846L403.095 57.4445L401.728 47.5666L441.129 37.0093C443.769 36.3018 446.479 37.8697 447.185 40.5062L447.194 40.504Z" fill="#E21452"/>
<path d="M418.391 195.686L421.218 206.236L359.132 222.872L356.305 212.322C356.074 211.46 356.327 210.536 356.968 209.918L360.962 206.004C367.878 199.233 370.608 189.272 368.101 179.916L365.114 168.769L388.994 162.37L391.981 173.517C394.488 182.873 401.833 190.135 411.207 192.54L416.623 193.933C417.488 194.148 418.17 194.826 418.399 195.683L418.391 195.686Z" fill="#E21452"/>
<path d="M418.391 195.686L421.218 206.236L415.247 207.836L412.42 197.286C412.189 196.424 411.508 195.75 410.644 195.535L405.228 194.143C395.854 191.737 388.508 184.475 386.002 175.119L383.015 163.972L388.986 162.372L391.973 173.52C394.48 182.876 401.825 190.137 411.199 192.543L416.615 193.935C417.479 194.15 418.161 194.828 418.391 195.686Z" fill="#B51042"/>
<path d="M393.654 151.134L395.511 158.064C396.394 161.361 394.438 164.756 391.141 165.639L364.873 172.678C361.576 173.561 358.185 171.603 357.301 168.303L355.444 161.373L393.65 151.135L393.654 151.134Z" fill="#E21452"/>
<path d="M389.947 165.959L366.067 172.358L367.008 175.869L390.888 169.47L389.947 165.959Z" fill="#B51042"/>
<path d="M430.126 201.285L441.33 243.099L360.137 264.854L348.933 223.04C348.58 221.724 349.369 220.363 350.681 220.012L427.098 199.536C428.41 199.185 429.775 199.973 430.126 201.285Z" fill="#455C77"/>
<path d="M430.126 201.285L441.331 243.099L436.554 244.379L425.35 202.565C424.997 201.248 423.633 200.465 422.321 200.816L427.098 199.536C428.41 199.185 429.775 199.973 430.126 201.285Z" fill="#2C3D53"/>
<path d="M365.185 226.37L417.721 212.293C419.042 211.939 420.397 212.725 420.75 214.041L425.232 230.768C425.585 232.085 424.804 233.443 423.483 233.797L370.947 247.874C369.626 248.228 368.271 247.442 367.918 246.125L363.436 229.398C363.084 228.082 363.864 226.724 365.185 226.37Z" fill="#E21452"/>
<path d="M393.654 151.134L395.511 158.064C396.394 161.361 394.438 164.756 391.141 165.639L386.364 166.919C389.661 166.036 391.619 162.645 390.734 159.344L388.877 152.414L393.654 151.134Z" fill="#B51042"/>
<path d="M346.853 153.178L334.911 156.378C301.944 165.211 268.042 145.627 259.204 112.644L253.762 92.3339C253.054 89.6932 254.618 86.9848 257.259 86.2772L296.659 75.7199L299.22 85.2777L264.592 94.5562L268.753 110.085C276.084 137.442 304.055 153.865 331.421 147.055L346.844 153.18L346.853 153.178Z" fill="#E21452"/>
<path d="M405.147 36.4066L406.427 41.1834C421.983 99.2411 408.399 153.331 376.088 161.988C343.777 170.646 304.968 130.595 289.411 72.5376L288.131 67.7607L405.142 36.4077L405.147 36.4066Z" fill="#E21452"/>
<path d="M364.827 119.962L378.296 127.738L357.05 133.431L364.827 119.962Z" fill="#EEF6FF"/>
<path d="M387.19 97.1905L375.873 117.002L361.84 108.814L353.781 122.921L334.074 111.423L342.133 97.3152L342.09 97.2899L353.441 77.4694L373.182 88.9589L373.157 89.0024L387.19 97.1905Z" fill="#EEF6FF"/>
<path d="M293.79 86.7281L289.014 88.008C287.932 84.9311 286.921 81.7813 285.973 78.5786L290.75 77.2987C291.698 80.5013 292.709 83.6512 293.79 86.7281Z" fill="#B51042"/>
<path d="M341.315 154.662L336.538 155.942C333.089 153.716 329.667 151.072 326.333 148.049C328.036 147.809 329.726 147.474 331.43 147.053C334.666 149.963 337.971 152.511 341.315 154.662Z" fill="#B51042"/>
<path d="M393.654 151.134L394.294 153.523C389.298 158.845 383.414 162.585 376.728 164.377C370.042 166.168 363.076 165.872 356.088 163.76L355.448 161.372C362.436 163.483 369.402 163.78 376.088 161.988C382.774 160.197 388.658 156.457 393.654 151.134Z" fill="#B51042"/>
<path d="M405.147 36.4068L406.427 41.1836C421.498 97.4289 409.218 149.947 379.064 161.051C408.339 150.147 407.165 101.242 392.1 45.0223L390.821 40.2455L405.147 36.4068Z" fill="#B51042"/>
<path d="M410.793 33.6138C411.235 35.2621 410.966 36.934 410.182 38.3115C409.385 39.6787 408.072 40.7472 406.423 41.1889L289.412 72.5419C286.116 73.4253 282.725 71.4675 281.84 68.1666C281.399 66.5183 281.667 64.8464 282.452 63.4689C283.248 62.1017 284.562 61.0331 286.21 60.5915L403.221 29.2385C406.518 28.3551 409.909 30.3129 410.793 33.6138Z" fill="#E21452"/>
<path d="M406.427 41.1836C406.856 42.7857 407.257 44.3819 407.648 45.9762L290.754 77.2977C290.291 75.7183 289.844 74.1345 289.416 72.5366L406.427 41.1836Z" fill="#B51042"/>
<path d="M410.793 33.6137C411.235 35.262 410.967 36.9339 410.182 38.3114C409.385 39.6786 408.072 40.7471 406.424 41.1888L393.291 44.7075C394.94 44.2659 396.253 43.1973 397.05 41.8301C397.835 40.4526 398.103 38.7807 397.661 37.1324C396.778 33.8357 393.386 31.8737 390.089 32.7571L403.221 29.2384C406.518 28.355 409.909 30.3128 410.793 33.6137Z" fill="#B51042"/>
<path d="M420.75 214.041L425.231 230.764C425.583 232.08 424.794 233.441 423.482 233.793L376.08 246.494C385.675 243.72 416.91 233.147 411.749 213.888L417.72 212.289C419.032 211.937 420.397 212.725 420.749 214.037L420.75 214.041Z" fill="#B51042"/>
<path d="M375.128 158.406C362.16 161.881 318.866 144.146 297.191 80.6973L311.374 76.8969C336.129 155.002 375.124 158.407 375.124 158.407L375.128 158.406Z" fill="#EEF6FF"/>
<path d="M362.538 211.715C362.538 211.715 376.372 196.485 372.211 180.956L379.253 207.237L362.538 211.715Z" fill="#EEF6FF"/>
<path d="M289.239 62.3396L290.199 65.9226L284.228 67.5227C283.699 65.5504 284.87 63.5104 286.851 62.9796L289.239 62.3396Z" fill="#EEF6FF"/>
<path d="M411.226 45.0174C412.006 48.2651 412.706 51.4984 413.3 54.7059L403.103 57.4382L401.736 47.5604L411.226 45.0174Z" fill="#B51042"/>
<path d="M410.967 125.525C409.588 129.748 407.972 133.691 406.122 137.297L400.579 138.782L403.64 133.302L407.291 126.726C408.537 126.365 409.759 125.961 410.963 125.526L410.967 125.525Z" fill="#B51042"/>
<defs>
<linearGradient id="paint0_linear_196_6843" x1="40.3051" y1="151.136" x2="120.915" y2="231.746" gradientUnits="userSpaceOnUse">
<stop stop-color="#2C3D53"/>
<stop offset="1" stop-color="#2C3D53" stop-opacity="0"/>
</linearGradient>
<linearGradient id="paint1_linear_196_6843" x1="120.915" y1="70.5253" x2="201.526" y2="151.135" gradientUnits="userSpaceOnUse">
<stop stop-color="#2C3D53"/>
<stop offset="1" stop-color="#2C3D53" stop-opacity="0"/>
</linearGradient>
<linearGradient id="paint2_linear_196_6843" x1="201.526" y1="-10.0849" x2="282.136" y2="70.5253" gradientUnits="userSpaceOnUse">
<stop stop-color="#2C3D53"/>
<stop offset="1" stop-color="#2C3D53" stop-opacity="0"/>
</linearGradient>
<linearGradient id="paint3_linear_196_6843" x1="282.136" y1="-90.695" x2="362.746" y2="-10.0848" gradientUnits="userSpaceOnUse">
<stop stop-color="#2C3D53"/>
<stop offset="1" stop-color="#2C3D53" stop-opacity="0"/>
</linearGradient>
<linearGradient id="paint4_linear_196_6843" x1="120.915" y1="231.746" x2="201.525" y2="312.356" gradientUnits="userSpaceOnUse">
<stop stop-color="#2C3D53"/>
<stop offset="1" stop-color="#2C3D53" stop-opacity="0"/>
</linearGradient>
<linearGradient id="paint5_linear_196_6843" x1="201.525" y1="151.135" x2="282.136" y2="231.746" gradientUnits="userSpaceOnUse">
<stop stop-color="#2C3D53"/>
<stop offset="1" stop-color="#2C3D53" stop-opacity="0"/>
</linearGradient>
<linearGradient id="paint6_linear_196_6843" x1="282.136" y1="70.5252" x2="362.746" y2="151.135" gradientUnits="userSpaceOnUse">
<stop stop-color="#2C3D53"/>
<stop offset="1" stop-color="#2C3D53" stop-opacity="0"/>
</linearGradient>
<linearGradient id="paint7_linear_196_6843" x1="362.746" y1="-10.0849" x2="443.356" y2="70.5253" gradientUnits="userSpaceOnUse">
<stop stop-color="#2C3D53"/>
<stop offset="1" stop-color="#2C3D53" stop-opacity="0"/>
</linearGradient>
</defs>
</svg>
